<svg width="88" height="104" viewBox="0 0 88 104" fill="none" xmlns="http://www.w3.org/2000/svg">
<path d="M44.045 1.10504C33.758 1.10504 14.782 3.76404 5.11803 9.38304C-7.60497 54.492 9.69803 85.167 44.049 102.583C78.4 85.168 95.704 54.34 82.98 9.38304C73.307 3.76404 54.34 1.10504 44.045 1.10504Z" fill="#9C824A" stroke="#9C824A" stroke-width="0.793" stroke-miterlimit="282"/>
<path d="M44.0482 4.00104C33.9372 4.00104 22.5542 5.29404 7.64825 11.38C-3.45176 50.756 9.42524 82.315 44.0482 99.516C78.6752 82.316 91.5412 50.755 80.4422 11.38C65.5332 5.29504 54.1582 4.00104 44.0482 4.00104Z" fill="#023474" stroke="#023474" stroke-width="0.793" stroke-miterlimit="282"/>
<path d="M44.0012 3.96303C33.5687 3.85733 23.2008 5.6121 13.3842 9.14503C3.27419 49.462 10.7332 78.901 44.0562 99.488L43.9992 3.96303H44.0012ZM44.0582 99.488C77.3832 78.902 84.8332 49.463 74.7222 9.14603C64.909 5.61316 54.5444 3.85836 44.1152 3.96403L44.0562 99.488H44.0582Z" fill="white"/>
<path d="M44.0562 99.488C10.7332 78.901 3.27419 49.462 13.3842 9.14503C23.2008 5.6121 33.5687 3.85733 44.0012 3.96303H43.9992L44.0562 99.488ZM44.0562 99.488L44.1152 3.96403C54.5444 3.85836 64.909 5.61316 74.7222 9.14603C84.8332 49.463 77.3832 78.902 44.0582 99.488H44.0562Z" stroke="white" stroke-width="0.793" stroke-miterlimit="282"/>
<path d="M44.058 3.95403C34.3185 3.86775 24.6296 5.36424 15.37 8.38503C4.898 50.642 13.308 79.177 44.07 98.68L44.061 3.95503L44.058 3.95403Z" fill="#EF0107" stroke="#EF0107" stroke-width="0.793" stroke-miterlimit="282"/>
<path d="M44.0768 3.95405C53.8202 3.86828 63.513 5.36474 72.7768 8.38505C83.2488 50.6421 74.8388 79.1771 44.0698 98.6801L44.0788 3.95505L44.0768 3.95405Z" fill="#DB0007" stroke="#DB0007" stroke-width="0.793" stroke-miterlimit="282"/>
<path d="M30.9831 67.719C27.305 70.2257 23.1838 72.0104 18.8391 72.978L16.3491 69.108C20.6527 66.907 24.5891 64.0521 28.0181 60.6451C28.3511 64.4001 30.0991 67.063 30.9831 67.719Z" fill="white"/>
<path d="M30.3752 67.558C26.1372 70.467 20.2362 72.493 13.4752 73.482L12.0972 71.39C18.0122 69.2933 23.3804 65.8943 27.8052 61.444C28.2406 63.6339 29.1134 65.7133 30.3712 67.558H30.3752Z" fill="#9C824A"/>
<path d="M19.0861 49.786C19.0861 50.566 18.7762 51.3141 18.2247 51.8656C17.6732 52.4172 16.9251 52.727 16.1451 52.727C15.3651 52.727 14.617 52.4172 14.0655 51.8656C13.514 51.3141 13.2041 50.566 13.2041 49.786C13.2041 49.006 13.514 48.258 14.0655 47.7064C14.617 47.1549 15.3651 46.845 16.1451 46.845C16.9251 46.845 17.6732 47.1549 18.2247 47.7064C18.7762 48.258 19.0861 49.006 19.0861 49.786Z" fill="white"/>
<path d="M18.772 43.998V55.085H27.505C28.075 51.367 30.185 47.421 34.964 43.998H18.772Z" fill="white"/>
<path d="M19.1239 55.0821C17.1759 55.1101 15.5699 52.6671 15.5419 49.6051C15.5139 46.5431 17.0819 44.0331 19.0419 43.9951H19.1089" fill="white"/>
<path d="M17.851 49.786C17.8813 50.0713 17.8514 50.3597 17.763 50.6325C17.6747 50.9054 17.5299 51.1567 17.3381 51.3699C17.1464 51.5832 16.9119 51.7538 16.6499 51.8705C16.3879 51.9873 16.1043 52.0476 15.8175 52.0476C15.5306 52.0476 15.247 51.9873 14.985 51.8705C14.7231 51.7538 14.4886 51.5832 14.2968 51.3699C14.105 51.1567 13.9602 50.9054 13.8719 50.6325C13.7835 50.3597 13.7536 50.0713 13.784 49.786C13.7536 49.5008 13.7835 49.2124 13.8719 48.9395C13.9602 48.6667 14.105 48.4154 14.2968 48.2021C14.4886 47.9889 14.7231 47.8183 14.985 47.7016C15.247 47.5848 15.5306 47.5245 15.8175 47.5245C16.1043 47.5245 16.3879 47.5848 16.6499 47.7016C16.9119 47.8183 17.1464 47.9889 17.3381 48.2021C17.5299 48.4154 17.6747 48.6667 17.763 48.9395C17.8514 49.2124 17.8813 49.5008 17.851 49.786Z" fill="#9C824A"/>
<path d="M19.0103 44.575V54.54H27.6763C28.5029 50.498 30.8542 46.9294 34.2423 44.575H19.0103Z" fill="#9C824A"/>
<path d="M19.3332 54.54C17.4992 54.578 15.9982 52.372 15.9692 49.624C15.9402 46.876 17.4232 44.613 19.2572 44.575H19.3142" fill="#9C824A"/>
<path d="M60.6321 57.678C60.6491 59.8864 60.2289 62.0763 59.3956 64.1215C58.5623 66.1667 57.3325 68.0267 55.7769 69.5943C54.2214 71.1619 52.3709 72.4061 50.3322 73.2552C48.2936 74.1043 46.107 74.5414 43.8985 74.5414C41.6901 74.5414 39.5035 74.1043 37.4649 73.2552C35.4262 72.4061 33.5757 71.1619 32.0202 69.5943C30.4646 68.0267 29.2348 66.1667 28.4015 64.1215C27.5682 62.0763 27.148 59.8864 27.1651 57.678C27.148 55.4697 27.5682 53.2798 28.4015 51.2346C29.2348 49.1894 30.4646 47.3294 32.0202 45.7618C33.5757 44.1941 35.4262 42.9499 37.4649 42.1009C39.5035 41.2518 41.6901 40.8147 43.8985 40.8147C46.107 40.8147 48.2936 41.2518 50.3322 42.1009C52.3709 42.9499 54.2214 44.1941 55.7769 45.7618C57.3325 47.3294 58.5623 49.1894 59.3956 51.2346C60.2289 53.2798 60.6491 55.4697 60.6321 57.678Z" fill="white"/>
<path d="M59.7569 57.6781C59.7569 61.8831 58.0864 65.9158 55.1131 68.8892C52.1397 71.8626 48.1069 73.5331 43.9019 73.5331C39.6969 73.5331 35.6641 71.8626 32.6907 68.8892C29.7173 65.9158 28.0469 61.8831 28.0469 57.6781C28.0469 53.473 29.7173 49.4403 32.6907 46.4669C35.6641 43.4935 39.6969 41.8231 43.9019 41.8231C48.1069 41.8231 52.1397 43.4935 55.1131 46.4669C58.0864 49.4403 59.7569 53.473 59.7569 57.6781Z" fill="#9C824A"/>
<path d="M57.1242 57.676C57.1394 59.4221 56.8086 61.1539 56.1509 62.7715C55.4932 64.389 54.5217 65.8603 53.2923 67.1004C52.063 68.3404 50.6003 69.3247 48.9885 69.9965C47.3767 70.6682 45.6479 71.014 43.9017 71.014C42.1556 71.014 40.4267 70.6682 38.8149 69.9965C37.2032 69.3247 35.7404 68.3404 34.5111 67.1004C33.2817 65.8603 32.3102 64.389 31.6525 62.7715C30.9948 61.1539 30.664 59.4221 30.6792 57.676C30.664 55.93 30.9948 54.1982 31.6525 52.5806C32.3102 50.9631 33.2817 49.4918 34.5111 48.2517C35.7404 47.0117 37.2032 46.0273 38.8149 45.3556C40.4267 44.6839 42.1556 44.338 43.9017 44.338C45.6479 44.338 47.3767 44.6839 48.9885 45.3556C50.6003 46.0273 52.063 47.0117 53.2923 48.2517C54.5217 49.4918 55.4932 50.9631 56.1509 52.5806C56.8086 54.1982 57.1394 55.93 57.1242 57.676Z" fill="white"/>
<path d="M56.2498 57.678C56.2498 60.9534 54.9486 64.0947 52.6326 66.4108C50.3165 68.7269 47.1752 70.028 43.8998 70.028C40.6244 70.028 37.4831 68.7269 35.167 66.4108C32.851 64.0947 31.5498 60.9534 31.5498 57.678C31.5498 54.4026 32.851 51.2613 35.167 48.9453C37.4831 46.6292 40.6244 45.328 43.8998 45.328C47.1752 45.328 50.3165 46.6292 52.6326 48.9453C54.9486 51.2613 56.2498 54.4026 56.2498 57.678Z" fill="#9C824A"/>
<path d="M49.0471 57.678C49.0477 58.3543 48.9152 59.0242 48.657 59.6492C48.3988 60.2743 48.02 60.8424 47.5422 61.3211C47.0645 61.7998 46.4971 62.1797 45.8725 62.4391C45.2479 62.6985 44.5784 62.8324 43.9021 62.833C43.2258 62.8337 42.5559 62.7011 41.9309 62.4429C41.3058 62.1847 40.7377 61.8059 40.259 61.3282C39.7803 60.8504 39.4004 60.283 39.141 59.6585C38.8816 59.0339 38.7477 58.3643 38.7471 57.688V57.678C38.7459 56.3122 39.2873 55.0018 40.2523 54.0351C41.2173 53.0685 42.5267 52.5247 43.8926 52.5235C45.2584 52.5223 46.5688 53.0638 47.5355 54.0287C48.5022 54.9937 49.0459 56.3032 49.0471 57.669V57.678Z" fill="white"/>
<path d="M48.438 57.678C48.4387 58.2745 48.3218 58.8653 48.0942 59.4166C47.8665 59.9679 47.5325 60.469 47.1112 60.8912C46.6899 61.3134 46.1896 61.6485 45.6388 61.8774C45.088 62.1063 44.4975 62.2244 43.901 62.225C43.3045 62.2257 42.7138 62.1089 42.1625 61.8812C41.6112 61.6536 41.1101 61.3196 40.6879 60.8983C40.2656 60.477 39.9305 59.9766 39.7017 59.4258C39.4728 58.875 39.3547 58.2845 39.354 57.6881V57.678C39.3534 57.0816 39.4702 56.4908 39.6978 55.9395C39.9255 55.3882 40.2595 54.8871 40.6808 54.4649C41.1021 54.0427 41.6024 53.7076 42.1532 53.4787C42.7041 53.2498 43.2945 53.1317 43.891 53.131C44.4875 53.1304 45.0782 53.2472 45.6295 53.4749C46.1808 53.7025 46.6819 54.0365 47.1042 54.4578C47.5264 54.8791 47.8615 55.3795 48.0904 55.9303C48.3192 56.4811 48.4373 57.0716 48.438 57.668V57.678Z" fill="#9C824A"/>
<path d="M46.2348 57.673C46.2348 58.2918 45.9891 58.8852 45.5515 59.3227C45.114 59.7602 44.5206 60.006 43.9018 60.006C43.2831 60.006 42.6897 59.7602 42.2522 59.3227C41.8146 58.8852 41.5688 58.2918 41.5688 57.673C41.5688 57.0543 41.8146 56.4609 42.2522 56.0233C42.6897 55.5858 43.2831 55.34 43.9018 55.34C44.5206 55.34 45.114 55.5858 45.5515 56.0233C45.9891 56.4609 46.2348 57.0543 46.2348 57.673Z" fill="white"/>
<path d="M45.5881 57.678C45.5881 58.1267 45.4099 58.5569 45.0927 58.8741C44.7754 59.1913 44.3452 59.3695 43.8966 59.3695C43.448 59.3695 43.0177 59.1913 42.7005 58.8741C42.3833 58.5569 42.2051 58.1267 42.2051 57.678C42.2051 57.2294 42.3833 56.7992 42.7005 56.482C43.0177 56.1647 43.448 55.9865 43.8966 55.9865C44.3452 55.9865 44.7754 56.1647 45.0927 56.482C45.4099 56.7992 45.5881 57.2294 45.5881 57.678Z" fill="#9C824A"/>
<path d="M45.6361 45.041H42.1201V53.247H45.6361V45.041Z" fill="white"/>
<path d="M45.0939 43.862H42.6709V54.293H45.0939V43.862Z" fill="#9C824A"/>
<path d="M53.6942 49.673L55.6132 52.621L48.7332 57.091L46.8232 54.143L53.6942 49.673Z" fill="white"/>
<path d="M54.9749 49.491L56.2959 51.526L47.5539 57.212L46.2329 55.168L54.9749 49.491Z" fill="#9C824A"/>
<path d="M38.9651 58.344L40.8461 61.311L33.9191 65.704L32.0381 62.728L38.9651 58.344Z" fill="white"/>
<path d="M40.1433 58.1721L41.4433 60.2261L32.6433 65.8081L31.3433 63.7541L40.1433 58.1721Z" fill="#9C824A"/>
<path d="M45.6361 62.385H42.1201V70.59H45.6361V62.385Z" fill="white"/>
<path d="M45.0939 61.215H42.6709V71.636H45.0939V61.215Z" fill="#9C824A"/>
<path d="M40.466 61.51C40.9605 61.9383 41.518 62.2877 42.119 62.546L42.1 69.868C39.0448 69.4847 36.2665 67.9047 34.375 65.475L40.475 61.51" fill="#EF0107"/>
<path d="M40.466 61.51C40.9605 61.9383 41.518 62.2877 42.119 62.546L42.1 69.868C39.0448 69.4847 36.2665 67.9047 34.375 65.475L40.475 61.51" stroke="#EF0107" stroke-width="0.312" stroke-miterlimit="282"/>
<path d="M47.3171 61.539C46.8207 61.9624 46.2635 62.3086 45.6641 62.566L45.6731 69.888C48.7286 69.5049 51.5073 67.925 53.3991 65.495L47.3081 61.54" fill="#DB0007"/>
<path d="M47.3171 61.539C46.8207 61.9624 46.2635 62.3086 45.6641 62.566L45.6731 69.888C48.7286 69.5049 51.5073 67.925 53.3991 65.495L47.3081 61.54" stroke="#DB0007" stroke-width="0.312" stroke-miterlimit="282"/>
<path d="M48.98 58.467L56.24 57.592C56.2625 59.2928 55.9216 60.9787 55.24 62.537L48.959 58.467" fill="#DB0007"/>
<path d="M48.9902 58.439C49.0182 58.325 49.0092 58.22 49.0572 57.888L56.2222 56.9561C56.242 57.1582 56.242 57.3619 56.2222 57.564L48.9902 58.439Z" fill="white" stroke="white" stroke-width="0.312" stroke-miterlimit="282"/>
<path d="M59.5952 52.401H68.9952C68.7002 53.513 68.4152 54.645 67.0662 55.149C64.8933 55.8252 62.6777 56.3557 60.4342 56.737C60.3243 55.2642 60.0438 53.8091 59.5982 52.401H59.5952Z" fill="white"/>
<path d="M53.0479 43.833L77.6019 43.861L76.7419 52.839L59.9698 53.714C58.8921 49.7124 56.4437 46.2162 53.0518 43.835L53.0479 43.833Z" fill="white"/>
<path d="M53.922 44.47L85.2699 44.498L84.0699 51.811L59.7439 53.011C58.756 49.6194 56.7163 46.6293 53.9189 44.472L53.922 44.47Z" fill="#9C824A"/>
<path d="M59.5953 52.401H68.2513C67.9663 53.39 67.7663 54.293 66.4933 54.74C64.4946 55.3207 62.4557 55.7529 60.3933 56.033C60.2217 54.8034 59.9542 53.589 59.5933 52.401H59.5953Z" fill="#9C824A"/>
<path d="M50.0929 30.797C50.0929 31.197 50.0079 32.29 49.9599 32.597H54.8249C54.5377 31.1207 54.3817 29.6219 54.3589 28.118C54.3589 28.218 54.2739 25.332 54.2739 25.332C54.2694 25.1134 54.3435 24.9005 54.4829 24.732C54.5505 24.6548 54.6366 24.596 54.7331 24.561C54.8297 24.526 54.9335 24.5161 55.0349 24.532C55.2439 24.432 55.6239 24.432 55.6709 25.226L55.7949 28.212C55.8673 29.6744 55.8259 31.1401 55.6709 32.596H60.3559C60.3179 32.196 60.1849 31.196 60.1469 30.903C60.4714 31.5526 60.984 32.0896 61.6178 32.4439C62.2517 32.7983 62.9775 32.9538 63.7009 32.89C64.552 32.8772 65.3784 32.6016 66.0669 32.101C66.1297 32.2751 66.2126 32.4412 66.3139 32.596H75.0139C74.6329 31.1275 74.3786 29.629 74.2539 28.117L73.0279 18.361L68.5519 17.561C68.9245 19.0332 69.1918 20.5299 69.3519 22.04L70.0359 28.316C70.173 29.5061 70.2428 30.703 70.2449 31.901V32.001L70.0739 31.601C69.6938 30.5471 69.4789 29.4407 69.4369 28.321L69.2759 26.321C69.0189 23.136 67.2899 21.747 63.4759 21.747C62.393 21.7505 61.3145 21.8848 60.2639 22.147L60.5209 25.722L61.5379 25.132C62.1979 24.6857 62.9742 24.4424 63.7709 24.432C64.0013 24.3987 64.2363 24.4387 64.4427 24.5464C64.6491 24.6541 64.8164 24.824 64.9209 25.032C64.0887 25.1527 63.2769 25.3862 62.5079 25.726C61.9347 25.9493 61.4117 26.2846 60.9696 26.7123C60.5275 27.14 60.175 27.6516 59.9329 28.217V28.117L59.7999 24.827C59.8175 24.3631 59.7387 23.9005 59.5684 23.4686C59.3981 23.0367 59.14 22.6448 58.8105 22.3177C58.481 21.9906 58.0872 21.7355 57.654 21.5684C57.2208 21.4013 56.7577 21.3259 56.2939 21.347C55.3902 21.3553 54.5097 21.6339 53.7659 22.147C53.7189 22.047 53.6809 21.947 53.6329 21.847L53.4619 21.447L49.5749 21.247C49.7947 22.3655 49.9503 23.4957 50.0409 24.632C49.8027 23.4938 49.1741 22.4747 48.2639 21.751C47.4007 21.2224 46.407 20.9453 45.3949 20.951C43.9396 20.9545 42.5439 21.5291 41.5079 22.551C40.4831 23.6185 39.9199 25.0465 39.9399 26.526C39.5348 26.0836 39.0297 25.7445 38.4669 25.537L36.6899 24.637H36.6049C36.1869 24.437 36.1389 24.337 36.1389 24.247C36.1869 24.047 36.6049 23.847 37.1559 23.847C38.101 23.9306 39.0129 24.237 39.8169 24.741L39.9019 21.556C39.0187 21.1861 38.0644 21.017 37.1079 21.061C36.0534 21.0466 35.0107 21.2845 34.0669 21.755C33.7719 21.955 33.5159 22.155 33.2669 22.355L33.3049 21.455C32.6828 21.3071 32.0321 21.3313 31.4228 21.5251C30.8134 21.7189 30.2683 22.0749 29.8459 22.555C29.7989 22.455 29.7129 21.955 29.6279 21.755L25.4469 21.955C25.7308 23.3946 25.8172 24.8661 25.7039 26.329L25.6189 27.929V28.129C25.5709 28.929 25.5339 29.821 25.4479 30.62C25.1059 29.52 24.7349 28.02 24.4309 26.836L22.3599 17.479L16.4489 18.373C16.5252 18.5992 16.5824 18.8313 16.6199 19.067C16.6497 20.0557 16.475 21.0399 16.1069 21.958C15.1379 24.64 13.7879 28.728 12.4769 31.609C12.3059 32.009 11.9639 32.609 11.9639 32.609H16.5729C16.7214 31.6635 16.9472 30.7317 17.2479 29.823C17.8849 29.823 19.5289 29.823 20.2889 29.723C20.4698 30.4464 20.6001 31.1815 20.6789 31.923L20.7549 32.617H29.9759C29.819 31.0941 29.8033 29.5599 29.9289 28.034C29.8778 27.0594 30.1968 26.1015 30.8219 25.352C30.9655 25.1636 31.1511 25.0113 31.3639 24.9071C31.5768 24.803 31.8109 24.7499 32.0479 24.752C32.0282 25.4228 32.2219 26.0825 32.6011 26.6362C32.9802 27.1899 33.5253 27.6089 34.1579 27.833L35.9729 28.733C36.6099 29.133 36.6099 29.228 36.6099 29.427C36.5719 29.722 36.0589 29.827 35.5929 29.827C34.6239 29.827 33.3119 29.227 31.8769 27.64L31.7919 31.814C32.9881 32.4067 34.3059 32.7128 35.6409 32.708C37.7509 32.708 39.9929 31.719 40.5819 29.827C41.0944 30.7348 41.8471 31.4839 42.7573 31.9921C43.6676 32.5003 44.7002 32.748 45.7419 32.708C46.5628 32.7404 47.3804 32.5872 48.1339 32.2598C48.8874 31.9324 49.5574 31.4392 50.0939 30.817L50.0929 30.797ZM18.3549 26.718C18.6119 26.024 18.8199 25.425 19.2009 24.331C19.4579 25.424 19.5809 26.119 19.7009 26.623C19.2563 26.7066 18.8039 26.7402 18.3519 26.723L18.3549 26.718ZM44.2199 25.625C44.2199 24.237 44.7199 23.638 45.2279 23.638C45.3989 23.638 45.7789 23.538 45.9499 24.238C46.0132 24.4294 46.0545 24.6273 46.0729 24.828C46.0729 25.228 45.8639 25.328 45.6079 25.328V25.428C45.1351 25.5642 44.6718 25.7312 44.2209 25.928C44.2209 25.828 44.2209 25.728 44.2209 25.628L44.2199 25.625ZM49.0379 28.516C48.7152 28.8933 48.3203 29.2022 47.8763 29.4242C47.4323 29.6463 46.9483 29.7772 46.4529 29.809C46.0849 29.7703 45.7353 29.6283 45.4444 29.3996C45.1536 29.1708 44.9333 28.8645 44.8089 28.516C45.6929 28.216 49.1089 26.916 50.0919 26.516C50.0919 27.316 50.1299 28.208 50.1299 28.208V29.903L49.0369 28.515L49.0379 28.516ZM64.7929 29.903C64.6604 29.9096 64.5281 29.8886 64.4041 29.8415C64.2802 29.7944 64.1673 29.722 64.0727 29.6291C63.9781 29.5362 63.9038 29.4247 63.8544 29.3016C63.805 29.1785 63.7817 29.0466 63.7859 28.914C63.8239 28.514 63.9469 27.914 65.2209 27.514C65.2589 28.009 65.3059 28.408 65.3059 28.408V28.808C65.3439 29.108 65.3439 29.408 65.3819 29.702C65.1902 29.7816 64.9934 29.8494 64.7929 29.903Z" fill="#9C824A"/>
<path d="M39.1842 22.0401C38.5101 21.8499 37.8136 21.7507 37.1132 21.7451C36.1936 21.7536 35.2864 21.9581 34.4522 22.3451C34.016 22.5693 33.6394 22.8941 33.3535 23.2926C33.0676 23.6911 32.8807 24.152 32.8082 24.6371C32.7561 25.1831 32.8966 25.7301 33.2055 26.1834C33.5143 26.6367 33.972 26.9677 34.4992 27.1191C35.2122 27.5191 35.8992 27.9191 36.3142 28.1191C36.8652 28.4141 37.3692 28.7191 37.3312 29.4121C37.2932 30.1051 36.6472 30.6121 35.5922 30.6121C34.4535 30.4877 33.3861 29.9964 32.5512 29.2121L32.5132 31.3041C33.4987 31.7306 34.5658 31.9354 35.6392 31.9041C37.5782 31.9041 39.9912 31.0101 40.0292 28.8141C40.039 28.2295 39.8655 27.6566 39.5332 27.1756C39.2009 26.6946 38.7264 26.3297 38.1762 26.1321C37.4542 25.8321 36.7312 25.4321 36.3992 25.3321C36.0572 25.1321 35.3822 24.9321 35.4302 24.1321C35.5062 23.4381 36.3142 23.1321 37.1592 23.1321C37.8521 23.134 38.534 23.3057 39.1452 23.6321" fill="white"/>
<path d="M21.8222 18.359L17.3372 18.959C17.3646 20.0466 17.1773 21.1289 16.7862 22.144C15.8642 24.826 14.3442 29.304 13.1562 31.9H15.9502C16.1179 30.9458 16.3861 30.0119 16.7502 29.114L20.8932 29.014C21.1197 29.9664 21.2866 30.9319 21.3932 31.905H25.1582C24.5746 30.2762 24.0953 28.6118 23.7232 26.922L21.8232 18.364L21.8222 18.359ZM17.3382 27.411L19.3722 21.544L20.5982 27.316" fill="white"/>
<path d="M32.5509 22.0421L32.4659 24.0421C32.0628 23.9877 31.6526 24.0309 31.2697 24.1682C30.8868 24.3056 30.5426 24.5329 30.2659 24.8311C29.5365 25.6908 29.1596 26.7948 29.2109 27.9211C29.1146 29.2469 29.0986 30.5773 29.1629 31.9051H26.0029C26.2033 30.6179 26.3146 29.3185 26.3359 28.0161L26.4209 26.4281C26.5304 25.1658 26.4908 23.895 26.3029 22.6421L29.0969 22.5421C29.25 23.1249 29.3048 23.7292 29.2589 24.3301C30.4849 22.4371 31.6719 22.0381 32.5589 22.0381" fill="white"/>
<path d="M72.4039 18.958L69.5249 18.458C69.768 19.6112 69.9519 20.7761 70.0759 21.948L70.7509 28.214C70.9059 29.4375 70.9788 30.6699 70.9689 31.903H74.0949C73.8163 30.6894 73.6321 29.4561 73.5439 28.214" fill="white"/>
<path d="M59.5103 31.899C59.3483 30.699 59.2633 29.499 59.2103 28.21L59.0873 24.93C59.1142 24.5566 59.0603 24.1817 58.9293 23.8309C58.7983 23.4802 58.5932 23.1618 58.3281 22.8974C58.0629 22.633 57.7439 22.4289 57.3928 22.2989C57.0417 22.1689 56.6666 22.1161 56.2933 22.144C55.7169 22.1369 55.1474 22.2689 54.633 22.5288C54.1186 22.7887 53.6744 23.1689 53.3383 23.637C53.2775 23.1287 53.1629 22.6282 52.9963 22.144L50.4683 22.044C50.6679 23.261 50.7789 24.4909 50.8003 25.724L50.8483 28.215C50.8827 29.4454 50.8544 30.6766 50.7633 31.904H53.9273C53.7653 30.704 53.6803 29.504 53.6323 28.215L53.5473 25.429C53.5308 25.2199 53.5564 25.0097 53.6225 24.8106C53.6885 24.6116 53.7937 24.4277 53.9319 24.27C54.0701 24.1122 54.2385 23.9837 54.4271 23.892C54.6158 23.8003 54.8208 23.7473 55.0303 23.736C55.9143 23.736 56.3413 24.336 56.3793 25.229L56.5123 28.215C56.5592 29.4447 56.5435 30.676 56.4653 31.904" fill="white"/>
<path d="M69.4009 31.9C69.0073 30.7757 68.7799 29.6 68.7259 28.41L68.5549 26.423C68.3839 24.036 67.3769 22.439 63.4809 22.439C62.6587 22.4505 61.8401 22.5494 61.0389 22.734L61.1619 24.534C61.9307 23.9873 62.8422 23.6766 63.7849 23.64C64.0538 23.6148 64.3249 23.6486 64.5794 23.739C64.8339 23.8294 65.0656 23.9743 65.2583 24.1635C65.451 24.3527 65.6002 24.5817 65.6952 24.8344C65.7903 25.0872 65.8291 25.3577 65.8089 25.627C64.7687 25.7099 63.7522 25.9809 62.8089 26.427C62.147 26.6255 61.5671 27.0328 61.156 27.5882C60.7448 28.1435 60.5245 28.817 60.5279 29.508C60.6509 31.308 62.0099 32.108 63.7019 32.108C64.2128 32.1214 64.7203 32.0206 65.1874 31.813C65.6545 31.6054 66.0694 31.2962 66.4019 30.908C66.4839 31.2515 66.5984 31.5863 66.7439 31.908L69.4009 31.9ZM64.7919 30.607C64.5703 30.6288 64.3467 30.6035 64.1357 30.5325C63.9247 30.4616 63.7312 30.3468 63.5678 30.1956C63.4044 30.0444 63.275 29.8603 63.1879 29.6554C63.1009 29.4506 63.0583 29.2296 63.0629 29.007C63.0629 27.914 63.7379 27.02 65.8949 26.715L66.0189 28.408C66.0659 29.008 66.0659 29.408 66.1519 29.901C65.8002 30.2933 65.3165 30.5425 64.7929 30.601" fill="white"/>
<path d="M47.8492 22.3441C47.1244 21.8624 46.268 21.6178 45.3982 21.6441C44.7299 21.6456 44.0695 21.7875 43.4596 22.0607C42.8497 22.3338 42.304 22.732 41.8579 23.2295C41.4117 23.727 41.0751 24.3127 40.8698 24.9487C40.6645 25.5846 40.5952 26.2566 40.6662 26.9211C40.6322 27.5965 40.7402 28.2716 40.9832 28.9028C41.2261 29.534 41.5986 30.1073 42.0766 30.5857C42.5547 31.0641 43.1277 31.4371 43.7587 31.6805C44.3897 31.9239 45.0647 32.0325 45.7402 31.9991C46.4503 32.0219 47.1572 31.892 47.8128 31.618C48.4684 31.344 49.0574 30.9324 49.5402 30.4111L48.9032 29.5111C48.2426 30.1438 47.3659 30.5013 46.4512 30.5111C45.8197 30.4391 45.2271 30.1696 44.7579 29.741C44.2887 29.3123 43.9668 28.7464 43.8382 28.1241L49.5782 26.0321C49.5702 25.3306 49.4117 24.6391 49.1134 24.0043C48.8151 23.3694 48.384 22.806 47.8492 22.3521V22.3441ZM45.8632 26.0241L43.5822 26.9181C43.5271 26.4892 43.4987 26.0574 43.4972 25.6251C43.4972 23.3331 44.7612 22.9341 45.1882 22.9341C45.5295 22.8903 45.8745 22.9804 46.1508 23.1855C46.4271 23.3906 46.6133 23.6947 46.6702 24.0341C46.9172 24.9281 46.8322 25.7271 45.8632 26.0221" fill="white"/>
<path d="M32.3418 51.944L34.2708 49.006L41.1318 53.494L39.2028 56.442L32.3418 51.944Z" fill="white"/>
<path d="M31.71 50.936L33.04 48.901L41.754 54.616L40.424 56.651L31.71 50.936Z" fill="#9C824A"/>
<path d="M46.9849 61.301L48.9139 58.353L55.7749 62.853L53.8459 65.801L46.9849 61.301Z" fill="white"/>
<path d="M46.3481 60.29L47.6781 58.255L56.3922 63.97L55.0621 65.996L46.3481 60.29Z" fill="#9C824A"/>
</svg>
