<svg width="19" height="20" viewBox="0 0 19 20" fill="none" xmlns="http://www.w3.org/2000/svg">
<path d="M18.736 9.72319V10.7449C18.712 10.7738 18.6726 10.7999 18.6667 10.8323C18.6468 10.9381 18.6466 11.0478 18.6249 11.1532C18.5551 11.4923 18.4792 11.8302 18.4056 12.1686C18.3509 12.1669 18.2963 12.1637 18.2417 12.1637C12.3436 12.1635 6.4456 12.1635 0.547619 12.1637C0.492972 12.1637 0.438374 12.167 0.383727 12.1686C0.375683 12.1597 0.362034 12.1517 0.360425 12.1417C0.26946 11.5714 0.18064 11.001 0.0871409 10.4315C0.0708756 10.3863 0.0470205 10.3442 0.0166017 10.3071L0.0166016 9.75969C0.0294387 9.74605 0.0422758 9.73242 0.0551129 9.71884C0.091528 9.72031 0.127943 9.72298 0.164358 9.72304C3.19866 9.72322 6.23298 9.72322 9.26731 9.72304C9.30972 9.72304 9.35213 9.71928 9.39459 9.71729C9.45514 9.71933 9.51568 9.72308 9.57628 9.72308C12.6295 9.72337 15.6828 9.72337 18.7361 9.72308" fill="white"/>
<path d="M18.7361 9.72342C15.6828 9.72342 12.6295 9.72342 9.57622 9.72342C9.51562 9.72342 9.45508 9.71967 9.39453 9.71762C9.39655 8.90614 9.39857 8.09467 9.40062 7.2832H18.4057C18.4789 7.61914 18.5576 7.95404 18.6241 8.29132C18.67 8.5238 18.6992 8.75961 18.7362 8.99388L18.7361 9.72342Z" fill="#D70228"/>
<path d="M15.1846 17.0271C14.9738 17.189 14.7719 17.3645 14.5509 17.5107C13.2519 18.3783 11.7535 18.9011 10.1967 19.0298C10.1708 19.0371 10.1464 19.049 10.1245 19.0647H8.62841C8.41114 19.0284 8.19421 18.9899 7.97655 18.956C6.40849 18.718 4.92785 18.0811 3.67664 17.1064C3.65025 17.0822 3.62611 17.0557 3.60449 17.0271C5.10595 17.0282 6.6074 17.0292 8.10885 17.0301C10.4675 17.0301 12.8261 17.0291 15.1846 17.0273" fill="#D70228"/>
<path d="M9.9778 0.345361C10.0131 0.369735 10.0476 0.413609 10.084 0.415071C11.1115 0.462991 12.088 0.727062 13.0333 1.11573C13.788 1.42597 14.4774 1.85169 15.1261 2.34405C15.1432 2.35706 15.1489 2.38514 15.1599 2.4062C15.0995 2.40947 15.0391 2.41566 14.9787 2.41566C13.1191 2.41608 11.2596 2.41616 9.40009 2.4159C9.39664 1.7385 9.39316 1.0611 9.38965 0.383726L9.43045 0.345215L9.9778 0.345361Z" fill="white"/>
<path d="M6.5046 5.29734L5.58272 5.08855L5.99064 5.94307L5.25527 6.53185L6.18398 6.74532V7.68392L6.91628 7.09928L7.65389 7.68836V6.74571L8.57792 6.53185L7.84031 5.9399C7.97549 5.65813 8.10482 5.3886 8.2475 5.09138L7.32679 5.29754L6.91535 4.44839L6.50489 5.29734" fill="#003472"/>
<path d="M18.4056 12.1688C18.1891 12.9936 17.8552 13.783 17.4142 14.5128C17.385 14.5497 17.3509 14.5825 17.313 14.6103C17.2467 14.6062 17.1803 14.5985 17.114 14.5985C11.9677 14.598 6.82153 14.598 1.67538 14.5985C1.60908 14.5985 1.54274 14.6062 1.47644 14.6103C1.43847 14.5825 1.40442 14.5497 1.37519 14.5128C0.933506 13.7833 0.599588 12.9939 0.383789 12.1689C0.438387 12.1671 0.493034 12.164 0.547681 12.164C6.44566 12.1638 12.3437 12.1638 18.2417 12.164C18.2963 12.164 18.351 12.1672 18.4056 12.1689" fill="#D70228"/>
<path d="M9.40039 7.28282C9.40039 6.47177 9.40039 5.66071 9.40039 4.84964C11.972 4.84944 14.5436 4.84901 17.1152 4.84837C17.1936 4.84837 17.2719 4.83891 17.3503 4.83374C17.825 5.59134 18.1809 6.41719 18.4056 7.28258H9.40044" fill="white"/>
<path d="M17.3502 4.83397C17.2719 4.83884 17.1935 4.84859 17.1152 4.84859C14.5435 4.84957 11.9719 4.85001 9.40039 4.84991C9.40039 4.03864 9.40039 3.2274 9.40039 2.41619C11.2599 2.41619 13.1194 2.41611 14.9789 2.41595C15.0394 2.41595 15.0998 2.40981 15.1602 2.40649C15.2088 2.42951 15.2555 2.45656 15.2996 2.48737C16.1113 3.1476 16.8048 3.94118 17.3502 4.83412" fill="#D70228"/>
<path d="M1.47578 14.61C1.54213 14.6059 1.60843 14.5983 1.67472 14.5983C6.821 14.5978 11.9672 14.5978 17.1134 14.5983C17.1797 14.5983 17.246 14.6059 17.3123 14.61C17.232 14.7566 17.1623 14.9103 17.0695 15.0487C16.6512 15.6727 16.1249 16.2022 15.5856 16.7187C15.4644 16.8347 15.3185 16.925 15.184 17.0272C12.8254 17.0282 10.4668 17.0291 8.10821 17.03C6.60675 17.03 5.1053 17.029 3.60385 17.027C3.17247 16.6203 2.72277 16.231 2.31596 15.801C2.03488 15.504 1.81083 15.1527 1.56689 14.8212C1.52845 14.7545 1.49781 14.6836 1.47559 14.61" fill="white"/>
<path d="M7.18631 3.94497C6.06909 3.4941 4.98857 3.91543 4.4114 4.69121C3.82032 5.48694 3.80313 6.57115 4.36869 7.3852C4.95445 8.21232 5.97403 8.56847 6.9274 8.2793C7.00419 8.25147 7.08609 8.24059 7.16748 8.24742C7.14637 8.27755 7.12194 8.30524 7.09465 8.32995C6.22352 8.96065 5.27541 9.09945 4.28538 8.68718C3.31728 8.28402 2.72177 7.53749 2.5726 6.49423C2.31146 4.66748 3.70201 3.15042 5.54553 3.23295C6.165 3.25174 6.75687 3.49349 7.21233 3.91377L7.18631 3.94483" fill="#FBC345"/>
<path d="M6.50519 5.29744L6.91565 4.44849L7.32709 5.29764L8.2478 5.09148C8.10511 5.38885 7.97578 5.65823 7.84061 5.93999L8.57831 6.53195L7.65428 6.7458V7.68846L6.91667 7.09938L6.18457 7.68402V6.74537L5.25586 6.53191L5.99123 5.94312L5.5833 5.08865L6.50539 5.29749" fill="#FBC345"/>
<path d="M7.21275 3.91382C7.21864 3.92596 7.2245 3.93819 7.23039 3.95029C7.21577 3.94843 7.20116 3.94658 7.18652 3.94482L7.21255 3.91382" fill="#FBD845"/>
</svg>
