<svg width="35" height="36" viewBox="0 0 35 36" fill="none" xmlns="http://www.w3.org/2000/svg">
<path d="M34.845 2.38472V26.3427C34.8441 27.1555 34.5203 27.9346 33.945 28.5087L27.426 35.0657C27.4139 35.0818 27.4002 35.0965 27.385 35.1097L27.321 35.1707C27.1498 35.3288 26.9479 35.4499 26.7279 35.5267C26.5079 35.6034 26.2744 35.6341 26.042 35.6169C25.8097 35.5996 25.5833 35.5348 25.3771 35.4264C25.1708 35.318 24.989 35.1683 24.843 34.9867C24.6109 34.6795 24.49 34.3026 24.5 33.9177L24.465 25.1397V25.1247C24.4656 24.7874 24.3481 24.4605 24.133 24.2007C24.1035 24.1561 24.07 24.1143 24.033 24.0757C19.654 19.6757 16.946 16.9507 12.718 12.6967C12.581 12.5596 12.4184 12.4508 12.2393 12.3766C12.0603 12.3024 11.8683 12.2642 11.6745 12.2642C11.4807 12.2642 11.2888 12.3024 11.1097 12.3766C10.9307 12.4508 10.768 12.5596 10.631 12.6967C7.52301 15.8247 5.22301 18.1227 2.48801 20.8687C2.28505 21.074 2.02556 21.2143 1.74262 21.2716C1.45967 21.3289 1.16607 21.3007 0.899222 21.1905C0.632372 21.0803 0.404352 20.8933 0.244211 20.6531C0.084071 20.4129 -0.000940244 20.1304 7.84451e-06 19.8417V11.6547C0.000146793 11.0633 0.235006 10.4961 0.653008 10.0777L9.16001 1.57072C9.57852 1.15291 10.1456 0.918083 10.737 0.917725H33.378C33.5707 0.917593 33.7615 0.955449 33.9396 1.02913C34.1176 1.1028 34.2794 1.21086 34.4156 1.34711C34.5519 1.48336 34.6599 1.64513 34.7336 1.82317C34.8073 2.00122 34.8451 2.19204 34.845 2.38472Z" fill="white"/>
</svg>
