<svg width="200" height="61" viewBox="0 0 200 61" fill="none" xmlns="http://www.w3.org/2000/svg">
<mask id="mask0_293_10713" style="mask-type:luminance" maskUnits="userSpaceOnUse" x="0" y="0" width="200" height="61">
<path d="M199.694 0.650055H0V60.0791H199.694V0.650055Z" fill="white"/>
</mask>
<g mask="url(#mask0_293_10713)">
<path d="M59.6691 3.16106V44.1881C59.6696 45.5787 59.1183 46.9127 58.1361 47.8971L46.9731 59.1251C46.9524 59.1524 46.9289 59.1776 46.9031 59.2001L46.7931 59.3001C46.5001 59.5711 46.1546 59.779 45.7778 59.9108C45.4011 60.0425 45.0013 60.0953 44.6033 60.0658C44.2052 60.0364 43.8176 59.9253 43.4643 59.7396C43.1111 59.5538 42.7999 59.2973 42.5501 58.9861C42.1514 58.4616 41.942 57.8177 41.9561 57.1591L41.9001 42.1321V42.1071C41.9009 41.5295 41.6996 40.9698 41.3311 40.5251C41.281 40.4484 41.2241 40.3765 41.1611 40.3101C33.6611 32.7711 29.0241 28.1101 21.7861 20.8241C21.5514 20.5891 21.2728 20.4027 20.9661 20.2755C20.6594 20.1483 20.3306 20.0829 19.9986 20.0829C19.6665 20.0829 19.3377 20.1483 19.031 20.2755C18.7243 20.4027 18.4457 20.5891 18.2111 20.8241C12.8891 26.1811 8.95005 30.1151 4.26705 34.8181C3.91938 35.1716 3.47412 35.4133 2.98826 35.5123C2.5024 35.6113 1.99805 35.563 1.53978 35.3737C1.08152 35.1843 0.690188 34.8625 0.415886 34.4495C0.141584 34.0364 -0.00320481 33.5509 5.38181e-05 33.0551V19.0371C0.000461073 18.0245 0.402537 17.0535 1.11805 16.3371L15.6861 1.76806C16.4029 1.05248 17.3742 0.650417 18.3871 0.650055H57.1571C57.4868 0.649924 57.8134 0.714783 58.1181 0.840926C58.4228 0.967069 58.6997 1.15202 58.9329 1.38522C59.1661 1.61841 59.351 1.89527 59.4772 2.19998C59.6033 2.50469 59.6692 2.83127 59.6691 3.16106Z" fill="white"/>
<path d="M103.931 25.315V21.115H99.2082V15.872H94.1362V21.115H90.1172V25.315H94.1362V34.371C94.1362 37.192 95.6492 38.739 98.4692 38.739H103.931V34.439H100.197C100.061 34.4566 99.9218 34.442 99.7918 34.3966C99.6618 34.3512 99.5441 34.2761 99.4482 34.1773C99.3522 34.0785 99.2805 33.9588 99.2389 33.8275C99.1972 33.6962 99.1867 33.5571 99.2082 33.421V25.315H103.931Z" fill="white"/>
<path d="M138.323 21.119L134.134 31.902L129.866 21.119H124.44L131.594 37.928L128.279 45.428H133.601L143.75 21.119H138.323Z" fill="white"/>
<path d="M118.159 21.148V23.605H117.95C117.691 23.2236 117.389 22.8733 117.05 22.561C116.514 22.0641 115.9 21.6587 115.233 21.361C114.308 20.9664 113.308 20.7806 112.303 20.817C111.06 20.7882 109.828 21.0552 108.708 21.596C107.708 22.095 106.831 22.8095 106.141 23.688C105.453 24.5641 104.932 25.5593 104.604 26.624C103.931 28.7846 103.931 31.0985 104.604 33.259C104.932 34.3237 105.453 35.3189 106.141 36.195C106.832 37.0735 107.708 37.7879 108.708 38.287C109.828 38.8279 111.06 39.0949 112.303 39.066C113.306 39.0991 114.305 38.9188 115.233 38.537C115.904 38.2466 116.519 37.8404 117.05 37.337C117.388 37.0183 117.69 36.6635 117.95 36.279H118.159V38.735H122.803V21.148H118.159ZM117.185 32.366C116.878 33.122 116.377 33.7833 115.732 34.283C115.035 34.8034 114.18 35.0694 113.311 35.037C112.437 35.0678 111.579 34.8021 110.875 34.283C110.22 33.7897 109.713 33.1268 109.407 32.366C109.087 31.5979 108.923 30.7741 108.923 29.942C108.923 29.11 109.087 28.2862 109.407 27.518C109.714 26.7567 110.221 26.0925 110.875 25.596C111.58 25.0806 112.438 24.8169 113.311 24.847C114.18 24.8154 115.033 25.0795 115.732 25.596C116.376 26.0988 116.877 26.7614 117.185 27.518C117.505 28.2862 117.669 29.11 117.669 29.942C117.669 30.7741 117.505 31.5979 117.185 32.366Z" fill="white"/>
<path d="M82.928 28.0281L81.271 27.7091C79.753 27.3941 79.189 26.8301 79.189 26.0161C79.189 24.9981 80.038 24.1161 81.655 24.1161C82.4115 24.0841 83.1502 24.3511 83.7116 24.8593C84.2729 25.3675 84.6118 26.0761 84.655 26.8321L89.308 26.1231C88.884 22.4941 85.818 20.5571 81.66 20.5571C77.26 20.5571 74.227 22.9571 74.227 26.4431C74.227 29.3691 76.484 31.0261 80.078 31.7651L81.735 32.1141C83.535 32.4691 84.202 33.0681 84.202 33.9461C84.202 34.9691 83.318 35.7461 81.661 35.7461C80.8444 35.8173 80.0294 35.5936 79.3636 35.1155C78.6978 34.6374 78.2254 33.9366 78.032 33.1401L73.314 33.8401C74.053 37.9291 77.752 39.3021 81.736 39.3021C85.93 39.3021 89.31 37.1551 89.31 33.8021C89.31 30.5621 87.128 28.8701 82.935 28.0261" fill="white"/>
<path d="M155.841 20.5851C154.699 20.611 153.587 20.9583 152.634 21.5871C151.68 22.2159 150.923 23.1007 150.449 24.1401L150.524 21.1251H145.382V39.0671H150.524V29.3071C150.524 26.7211 151.662 24.9291 153.874 24.9291C155.841 24.9291 156.979 26.2571 156.979 28.8381V39.0671H162.121V28.2671C162.121 23.3891 160.154 20.5891 155.841 20.5891" fill="white"/>
<path d="M181.497 29.4111C181.538 28.2524 181.343 27.0975 180.924 26.0164C180.505 24.9354 179.871 23.9506 179.06 23.122C178.249 22.2933 177.278 21.638 176.207 21.1957C175.135 20.7534 173.984 20.5334 172.825 20.5491C167.793 20.5491 163.725 24.6031 163.725 30.1291C163.725 35.6211 167.115 39.6391 172.791 39.6391C177.818 39.6391 180.491 36.8781 181.283 33.8281L176.5 32.9281C176.273 33.7407 175.781 34.4539 175.101 34.9543C174.422 35.4546 173.595 35.7133 172.751 35.6891C171.624 35.6329 170.563 35.1416 169.79 34.3184C169.018 33.4952 168.596 32.4045 168.612 31.2761H181.318C181.451 30.6628 181.511 30.0363 181.498 29.4091M168.791 28.1941C168.835 27.1729 169.271 26.208 170.009 25.5002C170.746 24.7924 171.728 24.3962 172.75 24.3941C173.25 24.3812 173.748 24.4711 174.212 24.6582C174.676 24.8453 175.097 25.1256 175.448 25.4818C175.799 25.838 176.074 26.2624 176.255 26.7289C176.436 27.1955 176.519 27.6941 176.499 28.1941H168.791Z" fill="white"/>
<path d="M199.693 21.1241H194.017L190.343 26.2911L186.743 21.1241H181.002L187.567 30.1651L181.002 39.0651H186.708L190.348 33.9331L194.022 39.0651H199.698L193.133 30.1651L199.693 21.1241Z" fill="white"/>
</g>
</svg>
