<svg width="117" height="35" viewBox="0 0 117 35" fill="none" xmlns="http://www.w3.org/2000/svg">
<mask id="mask0_5_1839" style="mask-type:luminance" maskUnits="userSpaceOnUse" x="0" y="0" width="117" height="35">
<path d="M116.615 0H0V34.705H116.615V0Z" fill="white"/>
</mask>
<g mask="url(#mask0_5_1839)">
<path d="M34.845 1.467V25.425C34.8441 26.2378 34.5203 27.0169 33.945 27.591L27.426 34.148C27.4139 34.1641 27.4002 34.1788 27.385 34.192L27.321 34.253C27.1498 34.411 26.9479 34.5322 26.7279 34.609C26.5079 34.6857 26.2744 34.7164 26.042 34.6992C25.8097 34.6819 25.5833 34.6171 25.3771 34.5087C25.1708 34.4003 24.989 34.2506 24.843 34.069C24.6109 33.7618 24.49 33.3849 24.5 33L24.465 24.222V24.207C24.4656 23.8697 24.3481 23.5428 24.133 23.283C24.1035 23.2384 24.07 23.1966 24.033 23.158C19.654 18.758 16.946 16.033 12.718 11.779C12.581 11.6419 12.4184 11.5331 12.2393 11.4589C12.0603 11.3847 11.8683 11.3465 11.6745 11.3465C11.4807 11.3465 11.2888 11.3847 11.1097 11.4589C10.9307 11.5331 10.768 11.6419 10.631 11.779C7.52301 14.907 5.22301 17.205 2.48801 19.951C2.28505 20.1563 2.02556 20.2965 1.74262 20.3538C1.45967 20.4111 1.16607 20.3829 0.899222 20.2728C0.632372 20.1626 0.404352 19.9755 0.244211 19.7353C0.084071 19.4951 -0.000940244 19.2127 7.84451e-06 18.924V10.737C0.000146793 10.1456 0.235006 9.57839 0.653008 9.16L9.16001 0.653C9.57852 0.235185 10.1456 0.000358343 10.737 3.41328e-07H33.378C33.5707 -0.00013114 33.7615 0.0377242 33.9396 0.111401C34.1176 0.185078 34.2794 0.293132 34.4156 0.429381C34.5519 0.565631 34.6599 0.727404 34.7336 0.905448C34.8073 1.08349 34.8451 1.27431 34.845 1.467Z" fill="#0E0E0B"/>
<path d="M60.693 14.402V11.953H57.933V8.88904H54.973V11.953H52.626V14.402H54.973V19.691C54.9302 20.0345 54.966 20.3832 55.0778 20.7108C55.1895 21.0384 55.3743 21.3364 55.6181 21.5821C55.8619 21.8278 56.1583 22.0149 56.485 22.1292C56.8117 22.2435 57.1602 22.2821 57.504 22.242H60.693V19.732H58.512C58.4322 19.7422 58.3512 19.7336 58.2753 19.707C58.1994 19.6804 58.1307 19.6365 58.0747 19.5788C58.0187 19.5211 57.977 19.4511 57.9527 19.3744C57.9284 19.2977 57.9224 19.2165 57.935 19.137V14.402H60.693Z" fill="#0E0E0B"/>
<path d="M80.776 11.953L78.327 18.2531L75.837 11.953H72.668L76.846 21.7691L74.91 26.151H78.018L83.945 11.951L80.776 11.953Z" fill="#0E0E0B"/>
<path d="M68.9972 11.97V13.405H68.8752C68.7233 13.1823 68.5461 12.978 68.3472 12.796C68.0343 12.5061 67.6759 12.2696 67.2862 12.096C66.7462 11.8654 66.162 11.7568 65.5752 11.778C64.8491 11.7611 64.1293 11.917 63.4752 12.233C62.8911 12.524 62.3788 12.9411 61.9752 13.454C61.5725 13.9652 61.2675 14.5462 61.0752 15.168C60.6826 16.4295 60.6826 17.7805 61.0752 19.042C61.2675 19.6637 61.5725 20.2448 61.9752 20.756C62.3789 21.2688 62.8911 21.6858 63.4752 21.977C64.1293 22.293 64.8491 22.4489 65.5752 22.432C66.161 22.4513 66.7442 22.3459 67.2862 22.123C67.6782 21.9536 68.0373 21.7167 68.3472 21.423C68.5453 21.2369 68.7224 21.0297 68.8752 20.805H68.9972V22.239H71.7082V11.97H68.9972ZM68.4282 18.521C68.2493 18.9626 67.9568 19.349 67.5802 19.641C67.1729 19.9447 66.674 20.1 66.1662 20.081C65.6558 20.0992 65.1543 19.9441 64.7432 19.641C64.3609 19.3526 64.0646 18.9654 63.8862 18.521C63.6995 18.0724 63.6033 17.5914 63.6033 17.1055C63.6033 16.6196 63.6995 16.1385 63.8862 15.69C64.0655 15.2455 64.3616 14.8579 64.7432 14.568C65.1552 14.2671 65.6563 14.1132 66.1662 14.131C66.6735 14.1123 67.172 14.2664 67.5802 14.568C67.956 14.8615 68.2484 15.2483 68.4282 15.69C68.615 16.1385 68.7111 16.6196 68.7111 17.1055C68.7111 17.5914 68.615 18.0724 68.4282 18.521Z" fill="#0E0E0B"/>
<path d="M48.428 15.988L47.4601 15.801C46.5741 15.617 46.244 15.288 46.244 14.813C46.244 14.218 46.7441 13.702 47.6841 13.702C48.1253 13.6843 48.5559 13.8405 48.8831 14.1372C49.2102 14.4339 49.4077 14.8471 49.433 15.288L52.1501 14.874C51.9021 12.755 50.1121 11.623 47.6841 11.623C45.1131 11.623 43.343 13.023 43.343 15.06C43.343 16.768 44.661 17.736 46.76 18.168L47.7281 18.368C48.7781 18.575 49.1681 18.925 49.1681 19.438C49.1681 20.038 48.6521 20.488 47.6841 20.488C47.2072 20.53 46.7311 20.3994 46.3422 20.1201C45.9534 19.8408 45.6776 19.4314 45.5651 18.966L42.8101 19.377C43.2421 21.765 45.4021 22.566 47.7281 22.566C50.1771 22.566 52.1511 21.312 52.1511 19.356C52.1511 17.464 50.877 16.476 48.428 15.983" fill="#0E0E0B"/>
<path d="M91.0069 11.641C90.3399 11.6561 89.6907 11.8589 89.1338 12.226C88.5768 12.5932 88.1346 13.11 87.8579 13.717L87.9018 11.956H84.9019V22.434H87.9018V16.734C87.9018 15.224 88.5669 14.177 89.8579 14.177C91.0069 14.177 91.6709 14.952 91.6709 16.46V22.434H94.6709V16.125C94.6709 13.277 93.5218 11.641 91.0028 11.641" fill="#0E0E0B"/>
<path d="M105.989 16.7961C106.013 16.1195 105.899 15.4451 105.654 14.8138C105.41 14.1825 105.039 13.6075 104.566 13.1236C104.092 12.6397 103.525 12.257 102.9 11.9987C102.274 11.7405 101.602 11.612 100.925 11.6211C100.205 11.6282 99.4943 11.7799 98.8343 12.0672C98.1742 12.3544 97.5787 12.7714 97.0829 13.2932C96.5872 13.8151 96.2013 14.4313 95.9483 15.1051C95.6953 15.779 95.5803 16.4969 95.6101 17.2161C95.6101 20.4231 97.589 22.7701 100.904 22.7701C103.84 22.7701 105.404 21.1581 105.863 19.3771L103.07 18.8521C102.937 19.3264 102.65 19.7428 102.253 20.0349C101.856 20.327 101.373 20.478 100.881 20.4641C100.223 20.4312 99.6031 20.1443 99.1522 19.6636C98.7014 19.1829 98.4547 18.546 98.4641 17.8871H105.884C105.96 17.5289 105.993 17.163 105.984 16.7971M98.564 16.0861C98.5896 15.4887 98.8448 14.9243 99.2766 14.5106C99.7083 14.0969 100.283 13.866 100.881 13.8661C101.173 13.8586 101.464 13.9112 101.735 14.0206C102.006 14.1301 102.252 14.294 102.457 14.5023C102.663 14.7106 102.823 14.9589 102.928 15.2316C103.034 15.5044 103.082 15.7959 103.07 16.0881L98.564 16.0861Z" fill="#0E0E0B"/>
<path d="M116.615 11.9561H113.3L111.154 14.9731L109.049 11.9561H105.696L109.53 17.2361L105.696 22.4361H109.028L111.153 19.4361L113.299 22.4361H116.614L112.78 17.2361L116.615 11.9561Z" fill="#0E0E0B"/>
</g>
</svg>
