<svg width="9" height="11" viewBox="0 0 9 11" fill="none" xmlns="http://www.w3.org/2000/svg">
<path d="M0.384766 6.3145V5.45943C0.384766 4.44275 0.729074 3.55462 1.41798 2.79446C2.10688 2.0343 2.94998 1.60221 3.94756 1.4976V0.229248H4.80263V1.4976C5.80021 1.60221 6.64331 2.0343 7.33221 2.79446C8.02111 3.55462 8.36542 4.44275 8.36542 5.45943V6.3145H0.384766ZM6.96881 10.4901C6.8548 10.4901 6.75504 10.4473 6.66953 10.3618C6.58403 10.2763 6.54127 10.1766 6.54127 10.0626C6.54127 9.94855 6.58403 9.84879 6.66953 9.76328C6.75504 9.67778 6.8548 9.63502 6.96881 9.63502C7.08282 9.63502 7.18258 9.67778 7.26808 9.76328C7.35359 9.84879 7.39634 9.94855 7.39634 10.0626C7.39634 10.1766 7.35359 10.2763 7.26808 10.3618C7.18258 10.4473 7.08282 10.4901 6.96881 10.4901Z" fill="black"/>
<path d="M1.78138 8.45218C1.66737 8.45218 1.56761 8.40942 1.48211 8.32391C1.3966 8.23841 1.35385 8.13865 1.35385 8.02464C1.35385 7.91063 1.3966 7.81087 1.48211 7.72536C1.56761 7.63986 1.66737 7.5971 1.78138 7.5971C1.89539 7.5971 1.99515 7.63986 2.08066 7.72536C2.16616 7.81087 2.20892 7.91063 2.20892 8.02464C2.20892 8.13865 2.16616 8.23841 2.08066 8.32391C1.99515 8.40942 1.89539 8.45218 1.78138 8.45218Z" fill="black"/>
<path d="M4.37509 8.45218C4.26108 8.45218 4.16133 8.40942 4.07582 8.32391C3.99031 8.23841 3.94756 8.13865 3.94756 8.02464C3.94756 7.91063 3.99031 7.81087 4.07582 7.72536C4.16133 7.63986 4.26108 7.5971 4.37509 7.5971C4.4891 7.5971 4.58886 7.63986 4.67437 7.72536C4.75988 7.81087 4.80263 7.91063 4.80263 8.02464C4.80263 8.13865 4.75988 8.23841 4.67437 8.32391C4.58886 8.40942 4.4891 8.45218 4.37509 8.45218Z" fill="black"/>
<path d="M6.96881 8.45218C6.8548 8.45218 6.75504 8.40942 6.66953 8.32391C6.58403 8.23841 6.54127 8.13865 6.54127 8.02464C6.54127 7.91063 6.58403 7.81087 6.66953 7.72536C6.75504 7.63986 6.8548 7.5971 6.96881 7.5971C7.08282 7.5971 7.18258 7.63986 7.26808 7.72536C7.35359 7.81087 7.39634 7.91063 7.39634 8.02464C7.39634 8.13865 7.35359 8.23841 7.26808 8.32391C7.18258 8.40942 7.08282 8.45218 6.96881 8.45218Z" fill="black"/>
<path d="M4.37509 10.4901C4.26108 10.4901 4.16133 10.4473 4.07582 10.3618C3.99031 10.2763 3.94756 10.1766 3.94756 10.0626C3.94756 9.94855 3.99031 9.84879 4.07582 9.76328C4.16133 9.67778 4.26108 9.63502 4.37509 9.63502C4.4891 9.63502 4.58886 9.67778 4.67437 9.76328C4.75988 9.84879 4.80263 9.94855 4.80263 10.0626C4.80263 10.1766 4.75988 10.2763 4.67437 10.3618C4.58886 10.4473 4.4891 10.4901 4.37509 10.4901Z" fill="black"/>
<path d="M1.78138 10.4901C1.66737 10.4901 1.56761 10.4473 1.48211 10.3618C1.3966 10.2763 1.35385 10.1766 1.35385 10.0626C1.35385 9.94855 1.3966 9.84879 1.48211 9.76328C1.56761 9.67778 1.66737 9.63502 1.78138 9.63502C1.89539 9.63502 1.99515 9.67778 2.08066 9.76328C2.16616 9.84879 2.20892 9.94855 2.20892 10.0626C2.20892 10.1766 2.16616 10.2763 2.08066 10.3618C1.99515 10.4473 1.89539 10.4901 1.78138 10.4901Z" fill="black"/>
</svg>
