<svg width="14" height="10" viewBox="0 0 14 10" fill="none" xmlns="http://www.w3.org/2000/svg">
<path d="M0.5625 9.73792V0.967163H1.46206V6.87431H6.7545V2.24155H11.5822C12.1819 2.24155 12.6941 2.45395 13.1189 2.87874C13.5437 3.30353 13.7561 3.81579 13.7561 4.41549V9.73792H12.8565V7.77387H1.46206V9.73792H0.5625ZM4.01083 6.00473C3.56105 6.00473 3.18373 5.8523 2.87888 5.54745C2.57402 5.2426 2.4216 4.86528 2.4216 4.41549C2.4216 3.96571 2.57402 3.58839 2.87888 3.28354C3.18373 2.97869 3.56105 2.82626 4.01083 2.82626C4.46061 2.82626 4.83793 2.97869 5.14278 3.28354C5.44763 3.58839 5.60006 3.96571 5.60006 4.41549C5.60006 4.86528 5.44763 5.2426 5.14278 5.54745C4.83793 5.8523 4.46061 6.00473 4.01083 6.00473ZM7.65406 6.87431H12.8565V4.41549C12.8565 4.06566 12.7316 3.76581 12.4817 3.51593C12.2318 3.26605 11.932 3.14111 11.5822 3.14111H7.65406V6.87431ZM4.01083 5.10516C4.20074 5.10516 4.36316 5.03769 4.49809 4.90276C4.63303 4.76783 4.70049 4.6054 4.70049 4.41549C4.70049 4.22559 4.63303 4.06317 4.49809 3.92823C4.36316 3.7933 4.20074 3.72583 4.01083 3.72583C3.82092 3.72583 3.6585 3.7933 3.52356 3.92823C3.38863 4.06317 3.32116 4.22559 3.32116 4.41549C3.32116 4.6054 3.38863 4.76783 3.52356 4.90276C3.6585 5.03769 3.82092 5.10516 4.01083 5.10516ZM4.01083 5.10516C3.82092 5.10516 3.6585 5.03769 3.52356 4.90276C3.38863 4.76783 3.32116 4.6054 3.32116 4.41549C3.32116 4.22559 3.38863 4.06317 3.52356 3.92823C3.6585 3.7933 3.82092 3.72583 4.01083 3.72583C4.20074 3.72583 4.36316 3.7933 4.49809 3.92823C4.63303 4.06317 4.70049 4.22559 4.70049 4.41549C4.70049 4.6054 4.63303 4.76783 4.49809 4.90276C4.36316 5.03769 4.20074 5.10516 4.01083 5.10516ZM7.65406 3.14111H11.5822C11.932 3.14111 12.2318 3.26605 12.4817 3.51593C12.7316 3.76581 12.8565 4.06566 12.8565 4.41549V6.87431H7.65406V3.14111Z" fill="black"/>
</svg>
