<svg width="11" height="12" viewBox="0 0 11 12" fill="none" xmlns="http://www.w3.org/2000/svg">
<path d="M1.74622 11.1163C1.41533 11.1163 1.13206 10.9985 0.896424 10.7629C0.660787 10.5272 0.542969 10.244 0.542969 9.91306V1.80614C0.542969 1.43514 0.715936 1.17944 1.06187 1.03907C1.40781 0.898685 1.71614 0.963862 1.98687 1.23459L2.6637 1.91142L2.03199 2.54313L2.43809 2.94923L3.0698 2.31752L4.82956 4.07728L4.19785 4.70899L4.60395 5.11509L5.23566 4.48338L7.01046 6.25818L6.37875 6.88989L6.78485 7.29598L7.41655 6.66428L9.17631 8.42403L8.5446 9.05574L8.9507 9.46184L9.58241 8.83013L10.2592 9.50696C10.5601 9.80777 10.6353 10.1512 10.4849 10.5372C10.3344 10.9233 10.0587 11.1163 9.65761 11.1163H1.74622ZM1.74622 9.91306H8.71005L1.74622 2.94923V9.91306Z" fill="black"/>
</svg>
