<svg width="16" height="12" viewBox="0 0 16 12" fill="none" xmlns="http://www.w3.org/2000/svg">
<path d="M13.2064 1.64726C12.2354 1.20711 11.1972 0.887224 10.1118 0.705078C9.97851 0.938582 9.82277 1.25265 9.7154 1.50249C8.56156 1.33437 7.41834 1.33437 6.28572 1.50249C6.17837 1.25265 6.0191 0.938582 5.8846 0.705078C4.798 0.887224 3.7586 1.20828 2.78762 1.64959C0.829152 4.51697 0.298243 7.31312 0.563698 10.0696C1.86266 11.0094 3.12151 11.5803 4.35911 11.9539C4.66468 11.5465 4.93721 11.1133 5.17199 10.6568C4.72485 10.4922 4.29658 10.2891 3.89192 10.0532C3.99928 9.97618 4.10429 9.89562 4.20574 9.81272C6.67387 10.9312 9.35556 10.9312 11.7942 9.81272C11.8969 9.89562 12.0018 9.97618 12.108 10.0532C11.7022 10.2902 11.2727 10.4934 10.8256 10.658C11.0604 11.1133 11.3317 11.5476 11.6385 11.9551C12.8773 11.5815 14.1373 11.0106 15.4362 10.0696C15.7477 6.87414 14.9042 4.10367 13.2064 1.64726ZM5.50823 8.37438C4.76733 8.37438 4.15972 7.70423 4.15972 6.88815C4.15972 6.07207 4.75435 5.40076 5.50823 5.40076C6.26214 5.40076 6.86972 6.07089 6.85675 6.88815C6.85792 7.70423 6.26214 8.37438 5.50823 8.37438ZM10.4917 8.37438C9.7508 8.37438 9.1432 7.70423 9.1432 6.88815C9.1432 6.07207 9.73781 5.40076 10.4917 5.40076C11.2456 5.40076 11.8532 6.07089 11.8402 6.88815C11.8402 7.70423 11.2456 8.37438 10.4917 8.37438Z" fill="#F7F6F5"/>
</svg>
