<svg width="14" height="15" viewBox="0 0 14 15" fill="none" xmlns="http://www.w3.org/2000/svg">
<path d="M13.0093 0.955078H0.994839C0.583384 0.955078 0.25 1.28836 0.25 1.69969V13.7105C0.25 14.1218 0.583384 14.4551 0.994839 14.4551H7.46207V9.23437H5.70864V7.19039H7.46207V5.68641C7.46207 3.94195 8.52764 2.99274 10.0827 2.99274C10.8276 2.99274 11.469 3.04758 11.6547 3.07289V4.89539H10.5807C9.73457 4.89539 9.56999 5.29828 9.56999 5.88891V7.19039H11.5935L11.3298 9.23437H9.57V14.4551H13.0051C13.4166 14.4551 13.75 14.1218 13.75 13.7105V1.69969C13.7542 1.28836 13.4208 0.955078 13.0093 0.955078Z" fill="#F7F6F5"/>
</svg>
