<svg width="18" height="11" viewBox="0 0 18 11" fill="none" xmlns="http://www.w3.org/2000/svg">
<mask id="mask0_1400_7576" style="mask-type:luminance" maskUnits="userSpaceOnUse" x="0" y="0" width="18" height="11">
<path d="M18.0003 0.415039H0.43457V10.9583H18.0003V0.415039Z" fill="white"/>
</mask>
<g mask="url(#mask0_1400_7576)">
<path d="M16.8476 1.22019H15.4617C15.4617 1.19919 15.4638 1.17824 15.4681 1.15768C15.5465 0.934119 15.627 0.71268 15.7054 0.489122C15.7224 0.444622 15.7435 0.416015 15.7976 0.416015C16.511 0.416015 17.2244 0.416015 17.9378 0.416015C17.9571 0.417846 17.9762 0.421032 17.995 0.425551C17.9749 0.487003 17.9579 0.544217 17.9378 0.599311L16.4545 4.70918L14.9796 8.77773L14.221 10.8735C14.1903 10.9582 14.1892 10.9582 14.079 10.9582H0.43457C0.448344 10.9116 0.45682 10.8777 0.469534 10.8449L2.09801 6.42772L3.58134 2.40155C3.81514 1.76584 4.04859 1.13013 4.28168 0.494419C4.30499 0.429789 4.33783 0.401182 4.40564 0.409658C4.42386 0.412915 4.44226 0.415038 4.46074 0.416015H13.4868C13.485 0.43495 13.4819 0.453724 13.4772 0.472169C13.3988 0.695728 13.3183 0.917167 13.242 1.14178C13.223 1.199 13.1933 1.22443 13.1361 1.21807C13.1061 1.2164 13.076 1.2164 13.046 1.21807H5.05725C5.02725 1.2196 4.99719 1.2196 4.96719 1.21807C4.90786 1.21171 4.87819 1.2382 4.86124 1.29436C4.67264 1.80716 4.48193 2.32315 4.29228 2.83278L3.1374 5.96365L2.02385 8.99811L1.62441 10.0576C1.61487 10.0852 1.60746 10.1127 1.59474 10.1562H13.4952C13.616 10.1562 13.615 10.1562 13.6563 10.0428C14.0843 8.86249 14.5124 7.68184 14.9404 6.50083C15.2901 5.53596 15.639 4.57074 15.9872 3.60516L16.8137 1.32084C16.8243 1.29012 16.8327 1.25939 16.8465 1.21489" fill="#F7F6F5"/>
<path d="M10.4739 2.19727C10.7451 2.20346 11.0144 2.24514 11.2749 2.32123C11.4045 2.36319 11.5271 2.42464 11.6383 2.50347C11.7215 2.56848 11.7891 2.65136 11.836 2.74598C11.883 2.84061 11.9081 2.94456 11.9095 3.05018C11.9195 3.29409 11.8794 3.53747 11.7919 3.76535C11.6942 4.06697 11.5482 4.35073 11.3596 4.60555C11.0589 5.00369 10.618 5.27261 10.1263 5.35781C9.85791 5.41133 9.58377 5.43056 9.31051 5.41502C9.03315 5.40987 8.75967 5.34898 8.50633 5.23596C8.37678 5.17564 8.267 5.07981 8.18973 4.95959C8.11246 4.83938 8.07088 4.69971 8.06981 4.55681C8.06496 4.34959 8.09763 4.14319 8.16622 3.94759C8.26081 3.61677 8.41405 3.30563 8.61864 3.02899C8.91088 2.63718 9.34044 2.37035 9.82119 2.28203C10.0331 2.23965 10.2556 2.22481 10.4739 2.19727ZM9.75022 4.55046C9.89015 4.55385 10.0284 4.51967 10.1507 4.45147C10.2729 4.38326 10.3746 4.28354 10.4452 4.16267C10.5747 3.96 10.6596 3.73211 10.6942 3.49412C10.7041 3.45249 10.7051 3.40926 10.6972 3.36721C10.6893 3.32516 10.6727 3.28523 10.6485 3.24999C10.6242 3.21476 10.5929 3.18499 10.5564 3.16262C10.5199 3.14025 10.4792 3.12577 10.4368 3.12011C10.4109 3.114 10.3847 3.1094 10.3584 3.10633C10.2019 3.07517 10.0397 3.09281 9.89358 3.15686C9.74748 3.2209 9.62457 3.32828 9.54148 3.46445C9.4377 3.63152 9.36084 3.81386 9.31369 4.0048C9.29667 4.07916 9.28848 4.15527 9.28931 4.23154C9.28608 4.29215 9.30412 4.35199 9.34029 4.40073C9.37646 4.44948 9.42851 4.48407 9.48745 4.49854C9.5741 4.52003 9.66181 4.53807 9.75022 4.55046Z" fill="#F7F6F5"/>
<path d="M9.17472 5.93831C9.5009 5.94262 9.82374 6.00468 10.1283 6.12161C10.2575 6.17356 10.3697 6.26062 10.4521 6.37296C10.5344 6.48529 10.5838 6.61843 10.5945 6.75732C10.6118 6.92339 10.5978 7.09123 10.5531 7.25211C10.4577 7.66581 10.2733 8.05376 10.0128 8.38898C9.71624 8.76017 9.29489 9.01095 8.82719 9.09461C8.5625 9.14931 8.29186 9.16962 8.02197 9.15501C7.7518 9.14793 7.48498 9.09341 7.23368 8.99396C7.07417 8.92613 6.94133 8.80781 6.85558 8.65717C6.76983 8.50653 6.73591 8.3319 6.75902 8.16012C6.81217 7.64292 7.01011 7.15122 7.3301 6.74143C7.62484 6.35526 8.05631 6.09667 8.53583 6.01883C8.74774 5.98175 8.95963 5.96374 9.17789 5.93726M8.43623 8.28727C8.57733 8.29239 8.71716 8.259 8.84072 8.19069C8.96429 8.12237 9.06693 8.02169 9.13763 7.89947C9.25052 7.71843 9.32983 7.51852 9.37178 7.30933C9.38124 7.26719 9.38692 7.22428 9.38874 7.18113C9.39709 7.11203 9.37917 7.04231 9.33855 6.9858C9.29793 6.92928 9.23757 6.8901 9.16941 6.87599C9.06328 6.84849 8.95369 6.83671 8.84414 6.84102C8.73029 6.84153 8.61829 6.86965 8.51771 6.92299C8.41713 6.97632 8.33099 7.05327 8.2667 7.14722C8.14877 7.31704 8.06196 7.50646 8.01031 7.70665C7.98842 7.78654 7.97561 7.86864 7.97215 7.9514C7.96526 8.02051 7.98483 8.08965 8.02691 8.1449C8.06899 8.20015 8.13044 8.23739 8.1989 8.24912C8.2766 8.26584 8.3551 8.27858 8.43411 8.28727" fill="#F7F6F5"/>
<path d="M8.18375 2.3265L7.88497 3.14551C7.81822 3.1222 7.76312 3.09888 7.70591 3.08405C7.40641 2.98834 7.08937 2.96047 6.77777 3.00247C6.70895 3.0135 6.64194 3.03381 6.57858 3.06286C6.55191 3.0738 6.52943 3.09294 6.51438 3.11751C6.49933 3.14209 6.4925 3.17082 6.49488 3.19954C6.50124 3.25781 6.55209 3.279 6.60083 3.29384C6.71844 3.32986 6.83816 3.35953 6.95471 3.39979C7.08923 3.43771 7.22064 3.48588 7.34779 3.54388C7.47505 3.58918 7.57911 3.68314 7.63712 3.80513C7.69513 3.92711 7.70234 4.06713 7.65717 4.19443C7.61699 4.42401 7.51881 4.63951 7.37195 4.82049C7.22509 5.00147 7.03442 5.14192 6.81803 5.22852C6.55146 5.34307 6.26657 5.40908 5.97678 5.42347C5.70756 5.44389 5.43693 5.43572 5.16943 5.3991C4.96256 5.37232 4.76205 5.30919 4.57715 5.21263L4.87594 4.39786C4.94587 4.42752 5.00732 4.45295 5.06665 4.47944C5.29845 4.58336 5.5481 4.64164 5.80196 4.65108C5.95143 4.65067 6.1005 4.63541 6.24695 4.60552C6.2987 4.59358 6.34561 4.56625 6.38151 4.52712C6.40098 4.51199 6.41575 4.49164 6.42412 4.46845C6.43248 4.44525 6.4341 4.42016 6.42877 4.39608C6.42345 4.37201 6.4114 4.34993 6.39403 4.33243C6.37666 4.31493 6.35469 4.30271 6.33066 4.2972C6.20669 4.24846 6.07955 4.20926 5.95452 4.16158C5.8295 4.11391 5.69071 4.06517 5.56674 4.00371C5.44764 3.95776 5.35107 3.86728 5.29748 3.7514C5.2439 3.63553 5.23749 3.50335 5.27961 3.38284C5.33003 3.1188 5.45662 2.87528 5.64376 2.68231C5.83089 2.48933 6.07041 2.35533 6.33278 2.29683C6.5576 2.23392 6.78918 2.19834 7.02252 2.19088C7.35896 2.1843 7.69519 2.21235 8.02588 2.27458C8.05843 2.28054 8.09062 2.28833 8.1223 2.29789C8.1432 2.30532 8.16371 2.31381 8.18375 2.32332" fill="#F7F6F5"/>
<path d="M7.02867 6.12363C6.90153 6.29315 6.78075 6.45208 6.66314 6.61207C6.6197 6.6714 6.58368 6.73497 6.54447 6.79749C6.48832 6.88754 6.48832 6.88118 6.38449 6.86741C6.19483 6.83269 6.00291 6.8118 5.81023 6.80491C5.54866 6.79554 5.29199 6.87755 5.08433 7.03687C4.87667 7.19619 4.73099 7.42286 4.67231 7.67794C4.64487 7.74097 4.63412 7.81002 4.6411 7.87841C4.64807 7.9468 4.67253 8.01225 4.71213 8.06845C4.75172 8.12465 4.80512 8.16971 4.86718 8.19929C4.92923 8.22888 4.99786 8.24198 5.06645 8.23736C5.44667 8.28799 5.83303 8.21362 6.16728 8.02546C6.19192 8.01336 6.21742 8.0031 6.24357 7.99475C6.24357 8.06785 6.24357 8.1293 6.24357 8.19075C6.24357 8.39736 6.23191 8.60397 6.22767 8.80951C6.22767 8.91017 6.22768 8.91546 6.13232 8.94195C5.84226 9.04165 5.54001 9.10153 5.23385 9.11995C4.92156 9.14005 4.60798 9.12405 4.29935 9.07227C4.17487 9.04864 4.05385 9.00949 3.93912 8.95573C3.77785 8.8868 3.64426 8.76593 3.55959 8.61234C3.47493 8.45875 3.44405 8.28127 3.47187 8.10811C3.50419 7.74107 3.62253 7.38681 3.81728 7.07402C3.99472 6.78419 4.23406 6.5372 4.51816 6.35073C4.80227 6.16426 5.12409 6.04292 5.46058 5.99543C5.96245 5.9142 6.47622 5.94827 6.96298 6.09503C6.98523 6.10139 7.00642 6.11092 7.02973 6.11939" fill="#F7F6F5"/>
<path d="M10.498 8.99297C10.5108 8.95059 10.5171 8.92198 10.5277 8.89443L11.5385 6.09414C11.5713 6.00302 11.6042 5.91295 11.6349 5.82077C11.6387 5.80132 11.6496 5.78398 11.6655 5.77206C11.6813 5.76013 11.701 5.75447 11.7207 5.75615C12.0142 5.75615 12.3077 5.75615 12.6001 5.75615C12.6185 5.75887 12.6365 5.76312 12.6542 5.76886L11.8171 8.09979C11.8934 8.12913 11.976 8.13754 12.0566 8.12416L13.1458 8.13053C13.1572 8.13282 13.1683 8.13674 13.1786 8.14218C13.176 8.16436 13.1717 8.18631 13.1659 8.20787C13.0854 8.43743 13.0045 8.66664 12.9233 8.8955C12.8883 8.99297 12.8873 8.99298 12.7898 8.99404H10.5902C10.5637 8.99404 10.5383 8.99403 10.498 8.98873" fill="#F7F6F5"/>
<path d="M14.757 3.42305C14.7453 3.46013 14.7358 3.49191 14.7252 3.52158C14.6521 3.725 14.5769 3.92843 14.508 4.13292C14.5056 4.14663 14.5005 4.15972 14.493 4.17145C14.4855 4.18319 14.4758 4.19333 14.4643 4.2013C14.4529 4.20927 14.44 4.21491 14.4264 4.2179C14.4129 4.22089 14.3988 4.22118 14.3851 4.21874C13.7059 4.21874 13.0258 4.21874 12.3466 4.21874C12.3169 4.21874 12.2883 4.21874 12.248 4.21238C12.2576 4.17636 12.2618 4.14775 12.2714 4.12126C12.3455 3.90936 12.4229 3.70911 12.4949 3.50145C12.5 3.47583 12.5144 3.453 12.5354 3.43735C12.5563 3.42171 12.5823 3.41435 12.6083 3.41668C13.3012 3.41668 13.9941 3.41668 14.6871 3.41668C14.7061 3.41668 14.7263 3.41669 14.757 3.42305Z" fill="#F7F6F5"/>
</g>
</svg>
