<svg width="16" height="13" viewBox="0 0 16 13" fill="none" xmlns="http://www.w3.org/2000/svg">
<path d="M13.9644 3.69245C13.9735 3.82264 13.9735 3.95283 13.9735 4.08422C13.9735 8.08777 10.8778 12.7051 5.21725 12.7051V12.7027C3.54509 12.7051 1.90768 12.2335 0.5 11.3444C0.743144 11.3732 0.987508 11.3876 1.23248 11.3882C2.61822 11.3894 3.96435 10.9316 5.05454 10.0886C3.73766 10.064 2.58288 9.2187 2.17946 7.98458C2.64077 8.07217 3.11609 8.05417 3.56886 7.93238C2.13315 7.6468 1.10024 6.40488 1.10024 4.96257V4.92417C1.52803 5.15875 2.00701 5.28895 2.49695 5.30335C1.14473 4.4136 0.727911 2.64251 1.54449 1.2578C3.10695 3.15068 5.41225 4.30141 7.88696 4.4232C7.63894 3.37087 7.97776 2.26814 8.77727 1.52838C10.0168 0.381256 11.9662 0.440052 13.1313 1.65978C13.8205 1.52598 14.4811 1.277 15.0856 0.924222C14.8559 1.62558 14.3751 2.22134 13.7328 2.59992C14.3428 2.52912 14.9388 2.36833 15.5 2.12295C15.0868 2.73251 14.5664 3.26347 13.9644 3.69245Z" fill="#F7F6F5"/>
</svg>
