<svg width="18" height="19" viewBox="0 0 18 19" fill="none" xmlns="http://www.w3.org/2000/svg">
<g opacity="0.7">
<mask id="mask0_1400_7568" style="mask-type:alpha" maskUnits="userSpaceOnUse" x="0" y="0" width="18" height="19">
<rect y="0.705078" width="18" height="18" fill="#D9D9D9"/>
</mask>
<g mask="url(#mask0_1400_7568)">
<path d="M15.4672 6.73137C15.311 6.13479 14.8551 5.66448 14.2767 5.50337C13.2214 5.20508 8.99577 5.20508 8.99577 5.20508C8.99577 5.20508 4.77228 5.20508 3.71482 5.49248C3.14704 5.65361 2.68058 6.13479 2.52439 6.73137C2.25 7.82003 2.25 10.0801 2.25 10.0801C2.25 10.0801 2.25 12.351 2.52861 13.4288C2.6848 14.0254 3.14071 14.4957 3.71904 14.6568C4.78705 14.9551 8.99999 14.9551 8.99999 14.9551C8.99999 14.9551 13.2235 14.9551 14.2809 14.6677C14.8593 14.5065 15.3152 14.0363 15.4714 13.4397C15.75 12.351 15.75 10.091 15.75 10.091C15.75 10.091 15.7563 7.82003 15.4672 6.73137ZM7.65126 12.1659V7.99203L11.1656 10.0801L7.65126 12.1659Z" fill="#F7F6F5"/>
</g>
</g>
</svg>
