<svg width="140" height="30" viewBox="0 0 140 30" fill="none" xmlns="http://www.w3.org/2000/svg">
<path d="M110.344 15.4088H112.531L111.431 12.3942L110.344 15.4088ZM52.1609 12.5927C51.7858 12.3278 51.3483 12.196 50.9054 12.2144C50.4601 12.1968 50.0203 12.3285 49.642 12.5927C49.3131 12.8307 49.0497 13.1665 48.8809 13.5627C48.7155 13.944 48.6296 14.3625 48.6296 14.7865C48.6296 15.2106 48.7155 15.6291 48.8809 16.0104C49.0489 16.4066 49.3126 16.742 49.642 16.9784C50.0197 17.2444 50.4598 17.3769 50.9054 17.3586C51.3486 17.3777 51.7864 17.2451 52.1609 16.9784C52.4857 16.7383 52.7463 16.4037 52.9149 16.0104C53.0802 15.6291 53.1661 15.2106 53.1661 14.7865C53.1661 14.3625 53.0802 13.944 52.9149 13.5627C52.7458 13.1692 52.4853 12.8342 52.1609 12.5927ZM103.543 12.2559H102.212V14.4872H103.543C104.149 14.4872 104.798 14.1909 104.798 13.3652C104.798 12.5394 104.122 12.2549 103.543 12.2549M138.697 -0.000110751H9.53564C9.02393 -0.0053451 8.52742 0.195055 8.13582 0.564883L0.57981 7.91771C0.400867 8.08496 0.256363 8.29378 0.156264 8.52979C0.0561643 8.7658 0.00285092 9.02338 0 9.28476L0 16.362C0.0329481 16.6313 0.131045 16.8853 0.283621 17.0964C0.436197 17.3075 0.63741 17.4676 0.865375 17.5592C1.09334 17.6509 1.33933 17.6706 1.57658 17.6163C1.81383 17.5619 2.03327 17.4356 2.21102 17.251C4.64024 14.8804 6.68322 12.891 9.44325 10.1866C9.70415 9.94483 10.0319 9.8126 10.3702 9.8126C10.7084 9.8126 11.0362 9.94483 11.2971 10.1866C15.0513 13.863 17.4559 16.2168 21.3465 20.0226C21.3787 20.0558 21.4082 20.0921 21.4345 20.1313C21.6217 20.3445 21.7277 20.631 21.7301 20.9304V20.9402L21.7609 28.5281C21.7561 28.8683 21.8661 29.1979 22.0689 29.4507C22.2213 29.6278 22.4046 29.768 22.6072 29.8624C22.8098 29.9569 23.0276 30.0037 23.247 29.9999C23.6033 29.9999 81.257 29.8794 94.9112 29.6799C95.8051 29.667 132.012 29.6631 132.304 29.6512C132.94 29.6331 133.551 29.3717 134.036 28.9104L139.205 23.8511C139.449 23.621 139.647 23.3341 139.784 23.0102C139.92 22.6862 139.993 22.3329 139.996 21.9744V1.26717C139.972 0.906501 139.822 0.571225 139.578 0.334009C139.335 0.0967931 139.019 -0.0232523 138.697 -0.000110751ZM34.2871 13.6595L35.1467 13.8205C37.3217 14.2462 38.4531 15.1046 38.4531 16.7364C38.4531 18.4274 36.7005 19.511 34.5255 19.511C32.4588 19.511 30.5408 18.8195 30.1572 16.7541L32.604 16.3985C32.7378 16.8262 32.9976 17.1897 33.3405 17.429C33.6833 17.6682 34.0887 17.7689 34.4895 17.7142C35.3491 17.7142 35.8092 17.3191 35.8092 16.8075C35.8092 16.364 35.4626 16.0617 34.5299 15.8829L33.6703 15.7061C31.806 15.3328 30.6358 14.4961 30.6358 13.0194C30.6358 11.2583 32.2072 10.0483 34.4912 10.0483C36.6477 10.0483 38.2384 11.0262 38.4584 12.8584L36.045 13.216C35.9922 12.8069 35.8012 12.4363 35.5116 12.1811C35.222 11.9258 34.856 11.8055 34.4895 11.845C33.6501 11.845 33.2102 12.2915 33.2102 12.8051C33.2102 13.216 33.5032 13.4965 34.2898 13.6595M46.0399 12.4456H43.5905V16.5378C43.5905 16.8756 43.7559 17.0524 44.1034 17.0524H46.039V19.2255H43.2077C41.7446 19.2255 40.9598 18.4442 40.9598 17.0208V12.4456H38.8754V10.3328H40.9598V7.68361H43.5905V10.3328H46.0399V12.4456ZM55.8272 19.2225H53.42V17.9859H53.3109C53.1728 18.1831 53.0155 18.3623 52.8419 18.5202C52.5596 18.7786 52.2412 18.9828 51.8996 19.1247C51.4119 19.3185 50.8964 19.409 50.3793 19.3914C49.7401 19.4067 49.1051 19.2721 48.5149 18.9963C48.0093 18.7548 47.5554 18.3948 47.1837 17.9404C46.8331 17.5106 46.5618 17.0071 46.3857 16.4588C46.0368 15.3767 46.0368 14.1915 46.3857 13.1093C46.5618 12.561 46.833 12.0574 47.1837 11.6277C47.5554 11.1733 48.0093 10.8133 48.5149 10.5718C49.1051 10.2961 49.7401 10.1615 50.3793 10.1767C50.8971 10.1576 51.4133 10.2508 51.8996 10.4513C52.2395 10.5973 52.5573 10.8012 52.8419 11.0558C53.016 11.2101 53.1734 11.3868 53.3109 11.5823H53.42V10.3476H55.8281L55.8272 19.2225ZM61.4282 22.6026H58.6682L60.3874 18.8146L56.6771 10.3288H59.4926L61.7036 15.7723L63.8759 10.3328H66.6914L61.4282 22.6026ZM76.2209 19.3895H73.5541V14.2285C73.5541 12.9256 72.9637 12.253 71.9431 12.253C70.7993 12.253 70.2054 13.1577 70.2054 14.4635V19.3904H67.5395V10.3328H70.2063L70.1676 11.8529C70.4497 11.302 70.8575 10.8453 71.3489 10.5299C71.8403 10.2145 72.3977 10.0517 72.9637 10.0582C75.2011 10.0582 76.2191 11.4716 76.2191 13.9341L76.2209 19.3895ZM81.7541 19.6789C78.8102 19.6789 77.0523 17.65 77.0523 14.8774C77.0709 14.2086 77.2087 13.5508 77.4577 12.9429C77.7067 12.335 78.0617 11.7892 78.5018 11.338C78.9418 10.8868 79.458 10.5392 80.0199 10.3158C80.5816 10.0924 81.1777 9.99775 81.7726 10.0374C84.2713 10.0374 86.2703 11.8845 86.2703 14.511C86.2768 14.8283 86.2455 15.1452 86.1771 15.4533H79.5871C79.6186 16.0643 79.8599 16.6377 80.2603 17.0531C80.6607 17.4685 81.1889 17.6934 81.7339 17.6806C82.1483 17.7134 82.5611 17.5955 82.9113 17.3445C83.2614 17.0935 83.5304 16.7227 83.6783 16.2869L86.1586 16.7403C85.7495 18.2802 84.362 19.6739 81.7541 19.6739M95.7083 19.3845H92.7644L90.8586 16.7936L88.9714 19.3845H86.0117L89.4166 14.8912L86.0117 10.3268H88.989L90.8586 12.9355L92.7644 10.3268H95.7083L92.3033 14.8912L95.7083 19.3845ZM103.627 16.4311H102.219V19.4132H99.8585V10.3061H103.626C105.781 10.3061 107.228 11.5358 107.228 13.3681C107.228 15.2004 105.78 16.441 103.626 16.441M113.786 19.423L113.049 17.3932H109.831L109.094 19.423H106.57L110.142 10.3071H112.726L116.311 19.423H113.786ZM119.841 13.6546L120.643 13.8403C122.612 14.3055 123.568 15.2646 123.568 16.7709C123.568 18.4501 122.073 19.6216 119.927 19.6216C117.82 19.6216 116.449 18.7 116.164 17.0949L116.127 16.8875L118.394 16.3353L118.45 16.5556C118.54 16.9097 118.736 17.218 119.005 17.4279C119.275 17.6379 119.601 17.7367 119.927 17.7073C120.534 17.7073 121.144 17.4446 121.144 16.8578C121.144 16.4282 120.71 16.1309 120.279 16.0262L119.476 15.8286C117.337 15.3051 116.465 14.4596 116.465 12.9108C116.465 11.2879 117.921 10.1095 119.928 10.1095C121.864 10.1095 123.199 10.9926 123.6 12.5335L123.658 12.7537L121.393 13.3079L121.332 13.0955C121.242 12.7591 121.053 12.4671 120.796 12.2676C120.538 12.0681 120.228 11.973 119.916 11.9981C119.327 11.9981 118.865 12.3656 118.865 12.8357C118.865 13.2032 119.028 13.4689 119.842 13.6546M127.891 13.6546L128.692 13.8403C130.661 14.3055 131.618 15.2636 131.618 16.7709C131.618 18.4501 130.122 19.6216 127.977 19.6216C125.865 19.6216 124.498 18.7 124.212 17.0949L124.175 16.8875L126.443 16.3353L126.499 16.5556C126.589 16.9099 126.785 17.2183 127.055 17.4283C127.324 17.6383 127.65 17.7369 127.977 17.7073C128.582 17.7073 129.193 17.4446 129.193 16.8578C129.193 16.4282 128.758 16.1309 128.327 16.0262L127.525 15.8286C125.387 15.3051 124.514 14.4596 124.514 12.9108C124.514 11.2879 125.97 10.1095 127.977 10.1095C129.913 10.1095 131.247 10.9926 131.649 12.5335L131.706 12.7537L129.442 13.3079L129.38 13.0955C129.291 12.7591 129.102 12.4671 128.844 12.2676C128.587 12.0681 128.277 11.973 127.965 11.9981C127.375 11.9981 126.913 12.3656 126.913 12.8357C126.913 13.2032 127.077 13.4689 127.891 13.6546ZM81.7365 11.9833C81.241 11.9507 80.7531 12.131 80.3717 12.4877C79.9903 12.8443 79.7441 13.3505 79.683 13.9035H83.681C83.6722 13.6315 83.6141 13.3645 83.5102 13.1186C83.4063 12.8727 83.2589 12.6532 83.0769 12.4735C82.8949 12.2938 82.6822 12.1576 82.4517 12.0733C82.2213 11.989 81.9779 11.9584 81.7365 11.9833Z" fill="#E55735"/>
</svg>
