<svg width="40" height="40" viewBox="0 0 40 40" fill="none" xmlns="http://www.w3.org/2000/svg">
<path d="M0 40V13.3333L20 0L40 13.3333V40H0ZM7.5 33.3333H10V30H30V33.3333H32.5V24.4444C32.4918 21.9929 30.258 20.0073 27.5 20L18.75 20V27.7778H10V17.7778H7.5V33.3333ZM14.375 26.6667C15.8486 26.6538 17.1077 25.7191 17.3845 24.4325C17.6614 23.1459 16.8792 21.8642 15.5149 21.3688C14.1506 20.8735 12.5827 21.3019 11.767 22.3929C10.9513 23.4839 11.1141 24.9349 12.1562 25.8611C12.739 26.3904 13.542 26.6819 14.375 26.6667V26.6667Z" fill="#E55735"/>
</svg>
