<svg width="40" height="40" viewBox="0 0 40 40" fill="none" xmlns="http://www.w3.org/2000/svg">
<path d="M27.2998 17.3504C28.0257 17.3674 28.7248 17.0768 29.2248 16.5504C30.281 15.4942 30.281 13.7817 29.2248 12.7254C28.1686 11.6692 26.4561 11.6692 25.3999 12.7254C24.6308 13.4995 24.4004 14.6591 24.815 15.6684C25.2297 16.6778 26.2087 17.3405 27.2998 17.3504H27.2998ZM12.7001 17.3504C13.426 17.3674 14.1251 17.0768 14.6251 16.5504C15.6813 15.4942 15.6813 13.7817 14.6251 12.7254C13.5689 11.6692 11.8564 11.6692 10.8002 12.7254C10.0311 13.4995 9.80069 14.6591 10.2153 15.6684C10.63 16.6778 11.609 17.3405 12.7001 17.3504ZM20 30.9504C22.1547 30.9636 24.2662 30.3466 26.0749 29.1754C27.8918 28.0318 29.3005 26.343 30.0998 24.3504L9.90021 24.3504C10.7256 26.3347 12.139 28.0185 13.9501 29.1754C15.7486 30.3485 17.8528 30.9659 20 30.9504H20ZM20 40.0004C17.3194 40.0178 14.664 39.4817 12.2002 38.4254C7.41036 36.4021 3.59862 32.5903 1.57538 27.8004C0.519162 25.3365 -0.0170191 22.6811 0.000411752 20.0004C-0.0170191 17.3197 0.51916 14.6643 1.57537 12.2004C3.59861 7.4105 7.41035 3.59869 12.2002 1.57541C14.664 0.519169 17.3194 -0.0170213 20 0.000411849C22.6806 -0.0170194 25.336 0.519171 27.7998 1.57541C32.5896 3.59869 36.4014 7.4105 38.4246 12.2004C39.4808 14.6643 40.017 17.3197 39.9996 20.0004C40.017 22.6811 39.4808 25.3365 38.4246 27.8004C36.4014 32.5903 32.5896 36.4021 27.7998 38.4254C25.336 39.4817 22.6806 40.0178 20 40.0004L20 40.0004Z" fill="#E55735"/>
</svg>
