<svg width="40" height="40" viewBox="0 0 40 40" fill="none" xmlns="http://www.w3.org/2000/svg">
<path d="M23.8911 39.1011C22.6924 40.2996 20.7507 40.2996 19.5521 39.1011L0.849448 20.3753C0.544038 20.085 0.313072 19.7253 0.176155 19.3266C0.0589741 18.9551 8.75848e-05 18.5677 0.00159629 18.1781L0.00159676 2.99767C-0.0244769 2.19533 0.282414 1.41799 0.849352 0.850346C1.41629 0.282703 2.19267 -0.0245684 2.99401 0.00153764H18.1556C18.5609 0.00244199 18.9639 0.061295 19.3526 0.176313C19.7697 0.30384 20.1473 0.535877 20.4498 0.850442L39.0526 19.4764C39.6578 20.0568 40.0001 20.8595 40.0001 21.6986C40.0001 22.5376 39.6578 23.3403 39.0526 23.9207L23.8911 39.1011ZM8.23074 10.7876C9.28039 10.7954 10.2297 10.1644 10.6299 9.19282C11.0301 8.22123 10.8011 7.10365 10.0511 6.36833C9.04578 5.36164 7.41571 5.36164 6.41031 6.36828C5.40492 7.37493 5.40492 9.00702 6.41031 10.0137C6.88464 10.5119 7.54333 10.7919 8.23074 10.7876L8.23074 10.7876Z" fill="#E55735"/>
</svg>
