<svg width="40" height="40" viewBox="0 0 40 40" fill="none" xmlns="http://www.w3.org/2000/svg">
<path d="M35.8555 40.0011H31.143C30.7882 40.0002 30.4482 39.8238 30.1974 39.5106C29.9466 39.1973 29.8055 38.7728 29.805 38.33V34.2455L26.1668 29.7069L23.42 33.1708C23.2339 33.4064 22.9958 33.5676 22.7361 33.634C22.4763 33.7003 22.2066 33.6688 21.9613 33.5434C21.7159 33.418 21.506 33.2044 21.3581 32.9298C21.2103 32.6551 21.1312 32.3318 21.1309 32.0009V27.3957C21.1303 27.1762 21.1647 26.9587 21.232 26.7559C21.2994 26.553 21.3984 26.369 21.5233 26.2143L24.2719 22.7837C24.523 22.4711 24.8629 22.295 25.2175 22.2939H38.5141C38.8679 22.2945 39.2071 22.4697 39.4577 22.7813C39.7084 23.0929 39.8502 23.5155 39.8521 23.9571L39.9036 34.9383C39.9047 35.3837 39.7654 35.8117 39.5158 36.13L36.803 39.5148C36.5512 39.8269 36.2112 40.0028 35.8564 40.0046M31.6439 37.7106H35.6497L38.0656 34.6963L38.0169 24.5914H25.4271L22.9688 27.6538V30.4777L25.2139 27.6423C25.3378 27.4852 25.4856 27.3603 25.6486 27.2751C25.8115 27.1898 25.9864 27.1458 26.1631 27.1457C26.339 27.1453 26.5132 27.1884 26.6756 27.2725C26.8381 27.3565 26.9856 27.4799 27.1097 27.6355L31.245 32.7969C31.4951 33.1105 31.6358 33.5347 31.6365 33.9771L31.6439 37.7106Z" fill="#E55735"/>
<path d="M21.0325 11.5847V6.27757C21.0325 6.13645 21.0775 6.00112 21.1575 5.90136L24.2608 2.02684C24.3407 1.92702 24.4492 1.87091 24.5622 1.87085H39.5157C39.6283 1.87085 39.7364 1.92645 39.8163 2.02551C39.8961 2.12457 39.9414 2.25906 39.9421 2.39961L40 14.779C40 14.9212 39.9551 15.0576 39.875 15.1587L36.8139 18.9781C36.7337 19.0772 36.6254 19.1329 36.5125 19.133H31.1751C31.1192 19.1331 31.0638 19.1195 31.012 19.0929C30.9603 19.0663 30.9133 19.0272 30.8737 18.9779C30.8341 18.9285 30.8027 18.8699 30.7812 18.8054C30.7598 18.7409 30.7487 18.6718 30.7487 18.6019V13.6596C30.7487 13.5184 30.7037 13.3831 30.6238 13.2834L25.9444 7.44291C25.9047 7.39318 25.8576 7.35371 25.8057 7.32678C25.7539 7.29986 25.6982 7.28599 25.642 7.28599C25.5858 7.28599 25.5302 7.29986 25.4783 7.32678C25.4264 7.35371 25.3793 7.39318 25.3397 7.44291L21.7612 11.9563C21.7019 12.0315 21.626 12.083 21.5432 12.1041C21.4604 12.1252 21.3744 12.1151 21.2962 12.075C21.218 12.0349 21.1511 11.9666 21.1042 11.8788C21.0572 11.7911 21.0322 11.6879 21.0325 11.5824" fill="#E55735"/>
<path d="M12.8655 38.9975C11.17 39.0375 9.48601 38.6433 7.91732 37.8394C6.34863 37.0356 4.92856 35.839 3.74473 34.3236C2.53057 32.846 1.57188 31.0736 0.927805 29.1157C0.283732 27.1578 -0.0320538 25.0559 -6.73924e-05 22.9397C-0.054096 20.7711 0.278565 18.6146 0.973873 16.626C1.66918 14.6374 2.70977 12.8665 4.02043 11.4412C5.21537 10.0341 6.62954 8.949 8.17495 8.25343C9.72035 7.55786 11.3639 7.2667 13.0034 7.39806L9.05179 2.46602L11.0276 0L18.3793 9.17589L11.0276 18.3518L9.05179 15.8858L13.1412 10.7817C11.7968 10.7 10.4528 10.9519 9.1869 11.5228C7.92102 12.0938 6.75845 12.9724 5.76647 14.1079C4.78226 15.2201 4.00338 16.586 3.48374 18.1109C2.96409 19.6358 2.71607 21.2834 2.75684 22.9397C2.73675 24.6 2.98935 26.2478 3.49906 27.7815C4.00878 29.3153 4.7648 30.7025 5.72052 31.8575C6.64597 33.0504 7.75739 33.994 8.98623 34.6302C10.2151 35.2664 11.5353 35.5816 12.8655 35.5566H18.3793V38.9975H12.8655Z" fill="#E55735"/>
</svg>
