<svg width="17" height="17" viewBox="0 0 17 17" fill="none" xmlns="http://www.w3.org/2000/svg">
<path d="M8.01078 14.2923V11.8309L6.10107 13.7406C5.92949 13.9122 5.65187 13.9137 5.4785 13.7442L5.47165 13.7376C5.29531 13.5651 5.29352 13.2822 5.46808 13.1076L8.01078 10.5649V9.22443H6.67032L4.1726 11.7222C4.004 11.8908 3.73203 11.8955 3.55747 11.7329L3.55062 11.7266C3.36713 11.5556 3.36206 11.2667 3.5393 11.0895L5.40433 9.22443H2.94295C2.69839 9.22443 2.5 9.02604 2.5 8.78148V8.77374C2.5 8.52888 2.69839 8.33079 2.94295 8.33079H5.40433L3.4833 6.40976C3.31053 6.23699 3.31053 5.95639 3.4833 5.78332L3.49671 5.77021C3.67007 5.59685 3.95097 5.59714 4.12374 5.7711L6.67032 8.33079H8.01078V6.97543L5.51663 4.48128C5.34654 4.31119 5.34327 4.03625 5.50948 3.86229L5.52229 3.84889C5.69417 3.66867 5.98103 3.66599 6.15678 3.84263L8.01078 5.70944V3.26295C8.01078 3.0181 8.20917 2.82001 8.45373 2.82001H8.46147C8.70603 2.82001 8.90442 3.0181 8.90442 3.26295V5.70944L10.8216 3.79229C10.9961 3.61773 11.2794 3.61952 11.4516 3.79586L11.4581 3.80271C11.6276 3.97608 11.6262 4.2537 11.4546 4.42528L8.90442 6.97543V8.33079H10.2598L12.7652 5.82532C12.9368 5.65374 13.2144 5.65225 13.3878 5.82174L13.3947 5.8283C13.571 6.00047 13.5728 6.28376 13.3982 6.45831L11.5258 8.33079H13.9723C14.2168 8.33079 14.4152 8.52888 14.4152 8.77374V8.78148C14.4152 9.02604 14.2168 9.22443 13.9723 9.22443H11.5258L13.4262 11.1377C13.5954 11.3081 13.5981 11.5819 13.4328 11.7555L13.4325 11.7558C13.2609 11.9357 12.9747 11.9393 12.7986 11.7633L10.2598 9.22443H8.90442V10.5649L11.4599 13.1335C11.6291 13.3039 11.6321 13.5779 11.4665 13.7516C11.2949 13.9315 11.0086 13.9351 10.8326 13.7591L8.90442 11.8309V14.2923C8.90442 14.5368 8.70603 14.7352 8.46147 14.7352H8.45373C8.20917 14.7352 8.01078 14.5368 8.01078 14.2923Z" fill="#101014"/>
</svg>
