<svg width="203" height="31" viewBox="0 0 203 31" fill="none" xmlns="http://www.w3.org/2000/svg">
<g clip-path="url(#clip0_1797_3250)">
<mask id="mask0_1797_3250" style="mask-type:luminance" maskUnits="userSpaceOnUse" x="62" y="0" width="141" height="31">
<path d="M202.967 0.578369H62.9668V30.5784H202.967V0.578369Z" fill="white"/>
</mask>
<g mask="url(#mask0_1797_3250)">
<path d="M173.311 15.9872H175.498L174.398 12.9726L173.311 15.9872ZM115.128 13.1711C114.753 12.9062 114.315 12.7743 113.872 12.7928C113.427 12.7752 112.987 12.9069 112.609 13.1711C112.28 13.409 112.016 13.7449 111.848 14.1411C111.682 14.5223 111.596 14.9408 111.596 15.3649C111.596 15.789 111.682 16.2075 111.848 16.5887C112.016 16.985 112.279 17.3204 112.609 17.5567C112.986 17.8227 113.427 17.9552 113.872 17.937C114.315 17.9561 114.753 17.8235 115.128 17.5567C115.453 17.3167 115.713 16.9821 115.882 16.5887C116.047 16.2074 116.133 15.7889 116.133 15.3649C116.133 14.9409 116.047 14.5224 115.882 14.1411C115.713 13.7476 115.452 13.4126 115.128 13.1711ZM166.51 12.8343H165.179V15.0656H166.51C167.116 15.0656 167.765 14.7693 167.765 13.9435C167.765 13.1178 167.089 12.8333 166.51 12.8333M201.664 0.578258H72.5024C71.9907 0.573024 71.4942 0.773424 71.1026 1.14325L63.5466 8.49608C63.3677 8.66332 63.2232 8.87215 63.1231 9.10816C63.023 9.34417 62.9696 9.60175 62.9668 9.86313V16.9404C62.9997 17.2097 63.0978 17.4637 63.2504 17.6748C63.403 17.8859 63.6042 18.046 63.8322 18.1376C64.0601 18.2293 64.3061 18.249 64.5434 18.1946C64.7806 18.1403 65.0001 18.0139 65.1778 17.8293C67.607 15.4587 69.65 13.4694 72.41 10.7649C72.6709 10.5232 72.9987 10.391 73.337 10.391C73.6752 10.391 74.003 10.5232 74.2639 10.7649C78.0181 14.4414 80.4227 16.7952 84.3133 20.601C84.3455 20.6341 84.3749 20.6705 84.4013 20.7096C84.5885 20.9228 84.6945 21.2094 84.6969 21.5087V21.5186L84.7277 29.1065C84.7229 29.4467 84.8329 29.7763 85.0357 30.0291C85.1881 30.2062 85.3713 30.3463 85.574 30.4408C85.7766 30.5353 85.9944 30.582 86.2138 30.5783C86.5701 30.5783 144.224 30.4578 157.878 30.2582C158.772 30.2454 194.979 30.2414 195.271 30.2296C195.907 30.2115 196.518 29.9501 197.003 29.4888L202.171 24.4295C202.416 24.1994 202.614 23.9125 202.75 23.5885C202.887 23.2646 202.96 22.9112 202.963 22.5528V1.84554C202.939 1.48487 202.789 1.14959 202.545 0.912378C202.302 0.675162 201.985 0.555117 201.664 0.578258ZM97.2539 14.2379L98.1135 14.3989C100.288 14.8246 101.42 15.683 101.42 17.3147C101.42 19.0058 99.6673 20.0893 97.4923 20.0893C95.4256 20.0893 93.5076 19.3979 93.124 17.3325L95.5708 16.9769C95.7046 17.4045 95.9644 17.7681 96.3073 18.0073C96.6501 18.2466 97.0555 18.3472 97.4563 18.2926C98.3159 18.2926 98.776 17.8975 98.776 17.3858C98.776 16.9423 98.4294 16.6401 97.4967 16.4613L96.6371 16.2845C94.7728 15.9111 93.6026 15.0745 93.6026 13.5978C93.6026 11.8367 95.174 10.6267 97.458 10.6267C99.6145 10.6267 101.205 11.6045 101.425 13.4368L99.0118 13.7944C98.959 13.3853 98.768 13.0147 98.4784 12.7594C98.1888 12.5042 97.8228 12.3838 97.4563 12.4234C96.6169 12.4234 96.177 12.8698 96.177 13.3835C96.177 13.7944 96.47 14.0749 97.2565 14.2379M109.007 13.0239H106.557V17.1162C106.557 17.454 106.723 17.6308 107.07 17.6308H109.006V19.8039H106.175C104.711 19.8039 103.927 19.0225 103.927 17.5992V13.0239H101.842V10.9111H103.927V8.26198H106.557V10.9111H109.007V13.0239ZM118.794 19.8009H116.387V18.5642H116.278C116.14 18.7614 115.982 18.9407 115.809 19.0986C115.526 19.3569 115.208 19.5612 114.866 19.7031C114.379 19.8969 113.863 19.9873 113.346 19.9698C112.707 19.9851 112.072 19.8505 111.482 19.5747C110.976 19.3331 110.522 18.9731 110.151 18.5188C109.8 18.089 109.529 17.5854 109.353 17.0372C109.004 15.955 109.004 14.7698 109.353 13.6877C109.529 13.1394 109.8 12.6358 110.151 12.2061C110.522 11.7517 110.976 11.3917 111.482 11.1502C112.072 10.8744 112.707 10.7399 113.346 10.7551C113.864 10.736 114.38 10.8292 114.866 11.0297C115.206 11.1757 115.524 11.3796 115.809 11.6342C115.983 11.7885 116.14 11.9652 116.278 12.1606H116.387V10.9259H118.795L118.794 19.8009ZM124.395 23.181H121.635L123.354 19.393L119.644 10.9072H122.459L124.67 16.3507L126.843 10.9111H129.658L124.395 23.181ZM139.188 19.9678H136.521V14.8068C136.521 13.504 135.931 12.8313 134.91 12.8313C133.766 12.8313 133.172 13.7361 133.172 15.0419V19.9688H130.506V10.9111H133.173L133.134 12.4313C133.417 11.8803 133.824 11.4237 134.316 11.1083C134.807 10.7929 135.364 10.63 135.931 10.6365C138.168 10.6365 139.186 12.05 139.186 14.5125L139.188 19.9678ZM144.721 20.2572C141.777 20.2572 140.019 18.2284 140.019 15.4558C140.038 14.787 140.176 14.1292 140.425 13.5213C140.673 12.9133 141.028 12.3676 141.469 11.9164C141.909 11.4651 142.425 11.1175 142.987 10.8942C143.548 10.6708 144.144 10.5761 144.739 10.6158C147.238 10.6158 149.237 12.4629 149.237 15.0893C149.244 15.4067 149.212 15.7236 149.144 16.0316H142.554C142.585 16.6426 142.827 17.2161 143.227 17.6315C143.627 18.0469 144.156 18.2718 144.701 18.259C145.115 18.2917 145.528 18.1739 145.878 17.9229C146.228 17.6719 146.497 17.3011 146.645 16.8653L149.125 17.3187C148.716 18.8586 147.329 20.2523 144.721 20.2523M158.675 19.9629H155.731L153.825 17.372L151.938 19.9629H148.978L152.383 15.4696L148.978 10.9052H151.956L153.825 13.5139L155.731 10.9052H158.675L155.27 15.4696L158.675 19.9629ZM166.594 17.0095H165.186V19.9915H162.825V10.8845H166.593C168.747 10.8845 170.195 12.1142 170.195 13.9465C170.195 15.7788 168.747 17.0194 166.593 17.0194M176.753 20.0014L176.016 17.9716H172.798L172.061 20.0014H169.537L173.109 10.8854H175.693L179.278 20.0014H176.753ZM182.808 14.2329L183.61 14.4186C185.579 14.8839 186.535 15.843 186.535 17.3493C186.535 19.0285 185.039 20.1999 182.894 20.1999C180.787 20.1999 179.415 19.2784 179.13 17.6733L179.093 17.4659L181.361 16.9137L181.417 17.134C181.507 17.4881 181.703 17.7963 181.972 18.0063C182.242 18.2163 182.567 18.315 182.894 18.2857C183.5 18.2857 184.111 18.0229 184.111 17.4362C184.111 17.0065 183.676 16.7092 183.245 16.6045L182.443 16.407C180.304 15.8835 179.432 15.038 179.432 13.4892C179.432 11.8663 180.888 10.6879 182.895 10.6879C184.831 10.6879 186.165 11.5709 186.567 13.1118L186.625 13.3321L184.36 13.8862L184.298 13.6739C184.209 13.3375 184.02 13.0455 183.762 12.846C183.505 12.6465 183.195 12.5514 182.883 12.5765C182.293 12.5765 181.831 12.9439 181.831 13.4141C181.831 13.7815 181.995 14.0472 182.809 14.2329M190.858 14.2329L191.659 14.4186C193.628 14.8839 194.585 15.842 194.585 17.3493C194.585 19.0285 193.089 20.1999 190.944 20.1999C188.832 20.1999 187.465 19.2784 187.179 17.6733L187.142 17.4659L189.409 16.9137L189.466 17.134C189.555 17.4882 189.752 17.7966 190.021 18.0066C190.291 18.2166 190.617 18.3153 190.944 18.2857C191.549 18.2857 192.16 18.0229 192.16 17.4362C192.16 17.0065 191.725 16.7092 191.294 16.6045L190.492 16.407C188.354 15.8835 187.481 15.038 187.481 13.4892C187.481 11.8663 188.937 10.6879 190.944 10.6879C192.879 10.6879 194.213 11.5709 194.615 13.1118L194.673 13.3321L192.409 13.8862L192.347 13.6739C192.258 13.3375 192.068 13.0455 191.811 12.846C191.554 12.6465 191.243 12.5514 190.932 12.5765C190.342 12.5765 189.88 12.9439 189.88 13.4141C189.88 13.7815 190.044 14.0472 190.858 14.2329ZM144.703 12.5617C144.208 12.5291 143.72 12.7094 143.338 13.066C142.957 13.4227 142.711 13.9289 142.65 14.4819H146.648C146.639 14.2099 146.581 13.9428 146.477 13.697C146.373 13.4511 146.226 13.2316 146.044 13.0519C145.862 12.8721 145.649 12.736 145.419 12.6517C145.188 12.5674 144.945 12.5368 144.703 12.5617Z" fill="#FDFDFD"/>
</g>
</g>
<path d="M3.89074 21.9983V19.8983H8.11174C8.85374 19.8983 9.42774 19.6673 9.83374 19.2053C10.2397 18.7433 10.4427 18.2113 10.4427 17.6093C10.4427 17.2033 10.3517 16.8253 10.1697 16.4753C9.98774 16.1253 9.72174 15.8453 9.37174 15.6353C9.02174 15.4253 8.60174 15.3203 8.11174 15.3203H3.89074V13.2203H7.75474C8.38474 13.2203 8.88874 13.0593 9.26674 12.7373C9.64474 12.4153 9.83374 11.9393 9.83374 11.3093C9.83374 10.6793 9.64474 10.2033 9.26674 9.88129C8.88874 9.55929 8.38474 9.39829 7.75474 9.39829H3.89074V7.29829H7.81774C8.81174 7.29829 9.63774 7.48029 10.2957 7.84429C10.9537 8.20829 11.4437 8.67729 11.7657 9.25129C12.0877 9.82529 12.2487 10.4413 12.2487 11.0993C12.2487 11.8693 12.0317 12.5483 11.5977 13.1363C11.1777 13.7243 10.5547 14.2003 9.72874 14.5643L9.91774 13.8083C10.8417 14.1863 11.5627 14.7183 12.0807 15.4043C12.5987 16.0903 12.8577 16.8953 12.8577 17.8193C12.8577 18.5753 12.6687 19.2683 12.2907 19.8983C11.9267 20.5283 11.3807 21.0393 10.6527 21.4313C9.93874 21.8093 9.05674 21.9983 8.00674 21.9983H3.89074ZM2.23174 21.9983V7.29829H4.64674V21.9983H2.23174ZM19.1172 22.2083C18.2632 22.2083 17.5002 22.0193 16.8282 21.6413C16.1702 21.2633 15.6522 20.7453 15.2742 20.0873C14.9102 19.4153 14.7282 18.6453 14.7282 17.7773V11.9183H17.0382V17.6723C17.0382 18.1623 17.1152 18.5823 17.2692 18.9323C17.4372 19.2683 17.6752 19.5273 17.9832 19.7093C18.3052 19.8913 18.6832 19.9823 19.1172 19.9823C19.7892 19.9823 20.3002 19.7863 20.6502 19.3943C21.0142 18.9883 21.1962 18.4143 21.1962 17.6723V11.9183H23.5062V17.7773C23.5062 18.6593 23.3172 19.4363 22.9392 20.1083C22.5752 20.7663 22.0642 21.2843 21.4062 21.6623C20.7482 22.0263 19.9852 22.2083 19.1172 22.2083ZM29.0839 22.1033L24.7789 11.9183H27.3199L30.2599 19.3943H29.5249L32.6329 11.9183H35.1949L30.5119 22.1033H29.0839ZM26.0809 26.1983L29.2099 19.7513L30.5119 22.1033L28.6429 26.1983H26.0809Z" fill="white"/>
<defs>
<clipPath id="clip0_1797_3250">
<rect width="140" height="30" fill="white" transform="translate(62.9668 0.578369)"/>
</clipPath>
</defs>
</svg>
