<svg width="17" height="17" viewBox="0 0 17 17" fill="none" xmlns="http://www.w3.org/2000/svg">
<mask id="mask0_293_10628" style="mask-type:alpha" maskUnits="userSpaceOnUse" x="0" y="0" width="17" height="17">
<rect x="0.5" y="0.820007" width="16" height="16" fill="#D9D9D9"/>
</mask>
<g mask="url(#mask0_293_10628)">
<path d="M3.5 8.73667C3.07778 8.73667 2.72222 8.59223 2.43333 8.30334C2.14444 8.01445 2 7.6589 2 7.23667C2 6.81445 2.14444 6.4589 2.43333 6.17001C2.72222 5.88112 3.07778 5.73667 3.5 5.73667C3.92222 5.73667 4.27778 5.88112 4.56667 6.17001C4.85556 6.4589 5 6.81445 5 7.23667C5 7.6589 4.85556 8.01445 4.56667 8.30334C4.27778 8.59223 3.92222 8.73667 3.5 8.73667ZM6.5 6.07001C6.07778 6.07001 5.72222 5.92556 5.43333 5.63667C5.14444 5.34778 5 4.99223 5 4.57001C5 4.14779 5.14444 3.79223 5.43333 3.50334C5.72222 3.21445 6.07778 3.07001 6.5 3.07001C6.92222 3.07001 7.27778 3.21445 7.56667 3.50334C7.85556 3.79223 8 4.14779 8 4.57001C8 4.99223 7.85556 5.34778 7.56667 5.63667C7.27778 5.92556 6.92222 6.07001 6.5 6.07001ZM10.5 6.07001C10.0778 6.07001 9.72222 5.92556 9.43333 5.63667C9.14444 5.34778 9 4.99223 9 4.57001C9 4.14779 9.14444 3.79223 9.43333 3.50334C9.72222 3.21445 10.0778 3.07001 10.5 3.07001C10.9222 3.07001 11.2778 3.21445 11.5667 3.50334C11.8556 3.79223 12 4.14779 12 4.57001C12 4.99223 11.8556 5.34778 11.5667 5.63667C11.2778 5.92556 10.9222 6.07001 10.5 6.07001ZM13.5 8.73667C13.0778 8.73667 12.7222 8.59223 12.4333 8.30334C12.1444 8.01445 12 7.6589 12 7.23667C12 6.81445 12.1444 6.4589 12.4333 6.17001C12.7222 5.88112 13.0778 5.73667 13.5 5.73667C13.9222 5.73667 14.2778 5.88112 14.5667 6.17001C14.8556 6.4589 15 6.81445 15 7.23667C15 7.6589 14.8556 8.01445 14.5667 8.30334C14.2778 8.59223 13.9222 8.73667 13.5 8.73667ZM4.93333 15.4033C4.47778 15.4033 4.09733 15.2282 3.792 14.878C3.48622 14.5282 3.33333 14.1145 3.33333 13.6367C3.33333 13.0811 3.52778 12.5978 3.91667 12.1867C4.30556 11.7756 4.68889 11.3645 5.06667 10.9533C5.38889 10.6089 5.66667 10.2338 5.9 9.82801C6.13333 9.42267 6.41111 9.04223 6.73333 8.68667C6.96667 8.42001 7.23067 8.1949 7.52533 8.01134C7.81956 7.82823 8.14444 7.73667 8.5 7.73667C8.85556 7.73667 9.18622 7.82267 9.492 7.99467C9.79733 8.16712 10.0611 8.39223 10.2833 8.67001C10.5944 9.02556 10.8693 9.40601 11.108 9.81134C11.3471 10.2171 11.6222 10.5978 11.9333 10.9533C12.3111 11.3645 12.6944 11.7756 13.0833 12.1867C13.4722 12.5978 13.6667 13.0811 13.6667 13.6367C13.6667 14.1145 13.5138 14.5282 13.208 14.878C12.9027 15.2282 12.5222 15.4033 12.0667 15.4033C11.4667 15.4033 10.8722 15.3533 10.2833 15.2533C9.69444 15.1533 9.1 15.1033 8.5 15.1033C7.9 15.1033 7.30556 15.1533 6.71667 15.2533C6.12778 15.3533 5.53333 15.4033 4.93333 15.4033Z" fill="#101014"/>
</g>
</svg>
