<svg width="24" height="24" viewBox="0 0 24 24" fill="none" xmlns="http://www.w3.org/2000/svg">
<mask id="mask0_5_6138" style="mask-type:alpha" maskUnits="userSpaceOnUse" x="0" y="0" width="24" height="24">
<rect width="24" height="24" fill="#D9D9D9"/>
</mask>
<g mask="url(#mask0_5_6138)">
<mask id="mask1_5_6138" style="mask-type:luminance" maskUnits="userSpaceOnUse" x="0" y="4" width="24" height="16">
<path d="M24.0001 4.94666H0.579102V19.0043H24.0001V4.94666Z" fill="white"/>
</mask>
<g mask="url(#mask1_5_6138)">
<path d="M22.4631 6.02039H20.6153C20.6152 5.99239 20.6181 5.96446 20.6238 5.93704C20.7283 5.63897 20.8357 5.34371 20.9402 5.04564C20.9628 4.9863 20.9911 4.94816 21.0631 4.94816C22.0143 4.94816 22.9655 4.94816 23.9168 4.94816C23.9424 4.9506 23.9679 4.95485 23.993 4.96087C23.9662 5.04281 23.9436 5.1191 23.9168 5.19256L21.939 10.6724L19.9725 16.0971L18.961 18.8914C18.9201 19.0044 18.9187 19.0044 18.7717 19.0044H0.579102C0.597467 18.9423 0.608768 18.8971 0.62572 18.8533L2.79703 12.9638L4.77479 7.59554C5.08653 6.74793 5.39779 5.90031 5.70858 5.0527C5.73966 4.96652 5.78345 4.92838 5.87387 4.93968C5.89815 4.94403 5.92269 4.94686 5.94733 4.94816H17.982C17.9797 4.97341 17.9755 4.99844 17.9693 5.02303C17.8648 5.32111 17.7574 5.61636 17.6557 5.91585C17.6303 5.99214 17.5907 6.02604 17.5144 6.01757C17.4744 6.01534 17.4344 6.01534 17.3944 6.01757H6.74267C6.70267 6.0196 6.66259 6.0196 6.62259 6.01757C6.54348 6.00909 6.50393 6.04441 6.48132 6.11928C6.22986 6.80302 5.97558 7.491 5.72271 8.17051L4.18288 12.345L2.69814 16.391L2.16555 17.8036C2.15284 17.8404 2.14295 17.8771 2.126 17.935H17.9933C18.1544 17.935 18.153 17.935 18.2081 17.7839C18.7788 16.2101 19.3495 14.6359 19.9202 13.0612C20.3864 11.7748 20.8517 10.4878 21.316 9.20036L22.4179 6.1546C22.432 6.11363 22.4433 6.07266 22.4617 6.01333" fill="#101014"/>
<path d="M13.9643 7.32275C14.326 7.33102 14.6851 7.38659 15.0323 7.48804C15.2052 7.54398 15.3686 7.62592 15.5169 7.73102C15.6279 7.81771 15.718 7.92822 15.7806 8.05438C15.8432 8.18054 15.8767 8.31915 15.8785 8.45997C15.8918 8.78519 15.8384 9.10969 15.7217 9.41354C15.5915 9.81569 15.3968 10.194 15.1453 10.5338C14.7443 11.0647 14.1565 11.4232 13.501 11.5368C13.1431 11.6082 12.7776 11.6338 12.4132 11.6131C12.0434 11.6062 11.6787 11.525 11.341 11.3744C11.1682 11.2939 11.0219 11.1661 10.9188 11.0059C10.8158 10.8456 10.7604 10.6594 10.7589 10.4688C10.7525 10.1925 10.796 9.91732 10.8875 9.65652C11.0136 9.21543 11.2179 8.80057 11.4907 8.43172C11.8804 7.9093 12.4531 7.55353 13.0941 7.43577C13.3766 7.37926 13.6733 7.35948 13.9643 7.32275ZM12.9995 10.4603C13.1861 10.4649 13.3704 10.4193 13.5334 10.3284C13.6964 10.2374 13.832 10.1044 13.9262 9.94329C14.0988 9.67307 14.212 9.36921 14.2582 9.05189C14.2713 8.99638 14.2727 8.93874 14.2622 8.88268C14.2516 8.82661 14.2295 8.77337 14.1972 8.72639C14.1648 8.67941 14.123 8.63972 14.0744 8.60989C14.0258 8.58006 13.9714 8.56076 13.9149 8.55321C13.8804 8.54507 13.8455 8.53893 13.8103 8.53484C13.6017 8.4933 13.3854 8.51681 13.1906 8.60221C12.9958 8.68761 12.832 8.83077 12.7212 9.01234C12.5828 9.23509 12.4803 9.47821 12.4174 9.73281C12.3947 9.83195 12.3838 9.93342 12.3849 10.0351C12.3806 10.1159 12.4047 10.1957 12.4529 10.2607C12.5011 10.3257 12.5705 10.3718 12.6491 10.3911C12.7647 10.4198 12.8816 10.4438 12.9995 10.4603Z" fill="#101014"/>
<path d="M12.2323 12.3111C12.6672 12.3168 13.0977 12.3996 13.5037 12.5555C13.6761 12.6248 13.8256 12.7408 13.9354 12.8906C14.0453 13.0404 14.111 13.2179 14.1253 13.4031C14.1484 13.6245 14.1297 13.8483 14.0702 14.0628C13.943 14.6144 13.6971 15.1317 13.3497 15.5787C12.9543 16.0736 12.3925 16.408 11.7689 16.5195C11.416 16.5924 11.0552 16.6195 10.6953 16.6C10.3351 16.5906 9.97932 16.5179 9.64426 16.3853C9.43158 16.2949 9.25446 16.1371 9.14013 15.9362C9.02579 15.7354 8.98057 15.5026 9.01137 15.2735C9.08225 14.5839 9.34616 13.9283 9.77282 13.3819C10.1658 12.867 10.7411 12.5222 11.3805 12.4185C11.663 12.369 11.9455 12.345 12.2365 12.3097M11.2477 15.443C11.4358 15.4499 11.6222 15.4054 11.787 15.3143C11.9517 15.2232 12.0886 15.0889 12.1829 14.926C12.3334 14.6846 12.4391 14.418 12.4951 14.1391C12.5077 14.0829 12.5152 14.0257 12.5177 13.9682C12.5288 13.8761 12.5049 13.7831 12.4508 13.7077C12.3966 13.6324 12.3161 13.5801 12.2252 13.5613C12.0837 13.5247 11.9376 13.509 11.7915 13.5147C11.6397 13.5154 11.4904 13.5529 11.3563 13.624C11.2222 13.6951 11.1073 13.7977 11.0216 13.923C10.8644 14.1494 10.7486 14.402 10.6798 14.6689C10.6506 14.7754 10.6335 14.8849 10.6289 14.9952C10.6197 15.0874 10.6458 15.1796 10.7019 15.2532C10.758 15.3269 10.8399 15.3765 10.9312 15.3922C11.0348 15.4145 11.1395 15.4315 11.2448 15.443" fill="#101014"/>
<path d="M10.9118 7.49519L10.5134 8.5872C10.4245 8.55612 10.351 8.52503 10.2747 8.50526C9.87538 8.37764 9.45266 8.34048 9.03719 8.39648C8.94543 8.41118 8.85608 8.43827 8.7716 8.47701C8.73605 8.49159 8.70607 8.51711 8.686 8.54987C8.66593 8.58264 8.65683 8.62095 8.66 8.65924C8.66848 8.73694 8.73629 8.76519 8.80127 8.78497C8.95808 8.833 9.11771 8.87256 9.27311 8.92624C9.45246 8.9768 9.62768 9.04103 9.79722 9.11837C9.96689 9.17876 10.1056 9.30405 10.183 9.46669C10.2603 9.62933 10.27 9.81603 10.2097 9.98576C10.1561 10.2919 10.0252 10.5792 9.82943 10.8205C9.63361 11.0618 9.37939 11.2491 9.09088 11.3645C8.73544 11.5173 8.35559 11.6053 7.9692 11.6245C7.61024 11.6517 7.2494 11.6408 6.89273 11.592C6.61691 11.5563 6.34956 11.4721 6.10303 11.3434L6.50141 10.257C6.59465 10.2966 6.67659 10.3305 6.7557 10.3658C7.06476 10.5043 7.39764 10.582 7.73611 10.5946C7.93541 10.5941 8.13416 10.5737 8.32943 10.5339C8.39843 10.518 8.46098 10.4815 8.50884 10.4293C8.5348 10.4092 8.5545 10.382 8.56565 10.3511C8.57681 10.3202 8.57896 10.2867 8.57186 10.2546C8.56476 10.2225 8.5487 10.1931 8.52554 10.1698C8.50238 10.1464 8.47308 10.1301 8.44104 10.1228C8.27575 10.0578 8.10623 10.0055 7.93953 9.94197C7.77283 9.8784 7.58777 9.81341 7.42249 9.73147C7.26368 9.6702 7.13492 9.54956 7.06347 9.39506C6.99202 9.24056 6.98348 9.06433 7.03964 8.90364C7.10687 8.55158 7.27565 8.2269 7.52517 7.9696C7.77469 7.7123 8.09404 7.53363 8.44386 7.45563C8.74362 7.37174 9.05241 7.32431 9.36353 7.31436C9.81211 7.30559 10.2604 7.34298 10.7013 7.42596C10.7447 7.43391 10.7877 7.44429 10.8299 7.45705C10.8578 7.46695 10.8851 7.47827 10.9118 7.49095" fill="#101014"/>
<path d="M9.3714 12.5582C9.20188 12.7842 9.04083 12.9961 8.88402 13.2094C8.8261 13.2885 8.77807 13.3733 8.7258 13.4566C8.65093 13.5767 8.65093 13.5682 8.51248 13.5499C8.25961 13.5036 8.00371 13.4757 7.74681 13.4665C7.39805 13.454 7.05582 13.5634 6.77894 13.7758C6.50206 13.9882 6.30782 14.2905 6.22958 14.6306C6.193 14.7146 6.17867 14.8067 6.18797 14.8979C6.19727 14.989 6.22988 15.0763 6.28267 15.1512C6.33547 15.2262 6.40666 15.2863 6.4894 15.3257C6.57215 15.3651 6.66365 15.3826 6.7551 15.3765C7.26206 15.444 7.77721 15.3448 8.22288 15.0939C8.25573 15.0778 8.28974 15.0641 8.3246 15.053C8.3246 15.1504 8.3246 15.2324 8.3246 15.3143C8.3246 15.5898 8.30905 15.8653 8.3034 16.1393C8.3034 16.2735 8.30341 16.2806 8.17627 16.3159C7.78952 16.4488 7.38652 16.5287 6.9783 16.5532C6.56191 16.58 6.14381 16.5587 5.73231 16.4897C5.56633 16.4582 5.40497 16.406 5.252 16.3343C5.03697 16.2424 4.85885 16.0812 4.74596 15.8764C4.63307 15.6716 4.5919 15.435 4.629 15.2041C4.67209 14.7147 4.82987 14.2424 5.08954 13.8253C5.32613 13.4389 5.64525 13.1096 6.02405 12.8609C6.40286 12.6123 6.83195 12.4505 7.28062 12.3872C7.94977 12.2789 8.6348 12.3243 9.28381 12.52C9.31348 12.5285 9.34174 12.5412 9.37281 12.5525" fill="#101014"/>
<path d="M13.9971 16.3839C14.014 16.3274 14.0225 16.2892 14.0366 16.2525L15.3843 12.5188C15.4281 12.3973 15.4719 12.2772 15.5129 12.1543C15.518 12.1284 15.5325 12.1052 15.5536 12.0893C15.5747 12.0734 15.601 12.0659 15.6273 12.0681C16.0186 12.0681 16.4099 12.0681 16.7998 12.0681C16.8243 12.0718 16.8484 12.0774 16.8719 12.0851L15.7559 15.193C15.8575 15.2321 15.9677 15.2433 16.0751 15.2255L17.5274 15.234C17.5426 15.237 17.5574 15.2423 17.5712 15.2495C17.5676 15.2791 17.562 15.3083 17.5542 15.3371C17.4468 15.6432 17.339 15.9488 17.2307 16.2539C17.1841 16.3839 17.1827 16.3839 17.0527 16.3853H14.12C14.0846 16.3853 14.0508 16.3853 13.9971 16.3782" fill="#101014"/>
<path d="M19.6758 8.95729C19.6603 9.00673 19.6476 9.04911 19.6335 9.08866C19.536 9.3599 19.4357 9.63114 19.3438 9.90379C19.3406 9.92207 19.3338 9.93953 19.3238 9.95517C19.3138 9.97081 19.3008 9.98433 19.2856 9.99496C19.2704 10.0056 19.2532 10.0131 19.2351 10.0171C19.217 10.0211 19.1982 10.0215 19.18 10.0182C18.2744 10.0182 17.3675 10.0182 16.462 10.0182C16.4224 10.0182 16.3842 10.0182 16.3306 10.0097C16.3433 9.96171 16.3489 9.92357 16.3617 9.88825C16.4605 9.60571 16.5637 9.33871 16.6597 9.06183C16.6666 9.02767 16.6858 8.99723 16.7137 8.97637C16.7416 8.95551 16.7762 8.94569 16.8109 8.94881C17.7348 8.94881 18.6587 8.94881 19.5826 8.94881C19.608 8.94881 19.6349 8.94881 19.6758 8.95729Z" fill="#101014"/>
</g>
</g>
</svg>
