<svg width="17" height="17" viewBox="0 0 17 17" fill="none" xmlns="http://www.w3.org/2000/svg">
<mask id="mask0_293_10629" style="mask-type:alpha" maskUnits="userSpaceOnUse" x="0" y="0" width="17" height="17">
<rect x="0.5" y="0.820007" width="16" height="16" fill="#D9D9D9"/>
</mask>
<g mask="url(#mask0_293_10629)">
<path d="M6.16699 14.4867V13.4867H7.50033V12.1533H3.36699C3.03366 12.1533 2.75033 12.0367 2.51699 11.8033C2.28366 11.57 2.16699 11.2867 2.16699 10.9533V4.35332C2.16699 4.01999 2.28366 3.73665 2.51699 3.50332C2.75033 3.26999 3.03366 3.15332 3.36699 3.15332H13.6337C13.967 3.15332 14.2503 3.26999 14.4837 3.50332C14.717 3.73665 14.8337 4.01999 14.8337 4.35332V10.9533C14.8337 11.2867 14.717 11.57 14.4837 11.8033C14.2503 12.0367 13.967 12.1533 13.6337 12.1533H9.50033V13.4867H10.8337V14.4867H6.16699ZM3.36699 11.1533H13.6337C13.6781 11.1533 13.7225 11.1311 13.767 11.0867C13.8114 11.0422 13.8337 10.9978 13.8337 10.9533V4.35332C13.8337 4.30888 13.8114 4.26443 13.767 4.21999C13.7225 4.17554 13.6781 4.15332 13.6337 4.15332H3.36699C3.32255 4.15332 3.2781 4.17554 3.23366 4.21999C3.18921 4.26443 3.16699 4.30888 3.16699 4.35332V10.9533C3.16699 10.9978 3.18921 11.0422 3.23366 11.0867C3.2781 11.1311 3.32255 11.1533 3.36699 11.1533Z" fill="#101014"/>
</g>
</svg>
