<svg width="17" height="17" viewBox="0 0 17 17" fill="none" xmlns="http://www.w3.org/2000/svg">
<mask id="mask0_293_10631" style="mask-type:alpha" maskUnits="userSpaceOnUse" x="0" y="0" width="17" height="17">
<rect x="0.5" y="0.820007" width="16" height="16" fill="#D9D9D9"/>
</mask>
<g mask="url(#mask0_293_10631)">
<path d="M4.7 15.1534C4.36667 15.1534 4.08333 15.0367 3.85 14.8034C3.61667 14.57 3.5 14.2867 3.5 13.9534V3.68669C3.5 3.35336 3.61667 3.07003 3.85 2.83669C4.08333 2.60336 4.36667 2.48669 4.7 2.48669H12.3C12.6333 2.48669 12.9167 2.60336 13.15 2.83669C13.3833 3.07003 13.5 3.35336 13.5 3.68669V13.9534C13.5 14.2867 13.3833 14.57 13.15 14.8034C12.9167 15.0367 12.6333 15.1534 12.3 15.1534H4.7ZM4.7 14.1534H12.3C12.3444 14.1534 12.3889 14.1311 12.4333 14.0867C12.4778 14.0422 12.5 13.9978 12.5 13.9534V3.68669C12.5 3.64225 12.4778 3.59781 12.4333 3.55336C12.3889 3.50892 12.3444 3.48669 12.3 3.48669H4.7C4.65556 3.48669 4.61111 3.50892 4.56667 3.55336C4.52222 3.59781 4.5 3.64225 4.5 3.68669V13.9534C4.5 13.9978 4.52222 14.0422 4.56667 14.0867C4.61111 14.1311 4.65556 14.1534 4.7 14.1534ZM8.5 13.2367C9.34444 13.2367 10.0693 12.9338 10.6747 12.328C11.2804 11.7227 11.5833 10.9978 11.5833 10.1534C11.5833 9.30892 11.2804 8.58403 10.6747 7.97869C10.0693 7.37292 9.34444 7.07003 8.5 7.07003C7.65556 7.07003 6.93067 7.37292 6.32533 7.97869C5.71956 8.58403 5.41667 9.30892 5.41667 10.1534C5.41667 10.9978 5.71956 11.7227 6.32533 12.328C6.93067 12.9338 7.65556 13.2367 8.5 13.2367ZM8.5 12.3534C8.21111 12.3534 7.93067 12.3005 7.65867 12.1947C7.38622 12.0894 7.15 11.9311 6.95 11.72L10.0667 8.60336C10.2778 8.80336 10.436 9.03958 10.5413 9.31203C10.6471 9.58403 10.7 9.86447 10.7 10.1534C10.7 10.7645 10.4862 11.2838 10.0587 11.7114C9.63067 12.1394 9.11111 12.3534 8.5 12.3534ZM5.83333 5.48669C6.02222 5.48669 6.18067 5.42292 6.30867 5.29536C6.43622 5.16736 6.5 5.00892 6.5 4.82003C6.5 4.63114 6.43622 4.47269 6.30867 4.34469C6.18067 4.21714 6.02222 4.15336 5.83333 4.15336C5.64444 4.15336 5.486 4.21714 5.358 4.34469C5.23044 4.47269 5.16667 4.63114 5.16667 4.82003C5.16667 5.00892 5.23044 5.16736 5.358 5.29536C5.486 5.42292 5.64444 5.48669 5.83333 5.48669ZM7.83333 5.48669C8.02222 5.48669 8.18067 5.42292 8.30867 5.29536C8.43622 5.16736 8.5 5.00892 8.5 4.82003C8.5 4.63114 8.43622 4.47269 8.30867 4.34469C8.18067 4.21714 8.02222 4.15336 7.83333 4.15336C7.64444 4.15336 7.48622 4.21714 7.35867 4.34469C7.23067 4.47269 7.16667 4.63114 7.16667 4.82003C7.16667 5.00892 7.23067 5.16736 7.35867 5.29536C7.48622 5.42292 7.64444 5.48669 7.83333 5.48669Z" fill="#101014"/>
</g>
</svg>
