<svg width="17" height="17" viewBox="0 0 17 17" fill="none" xmlns="http://www.w3.org/2000/svg">
<mask id="mask0_293_10632" style="mask-type:alpha" maskUnits="userSpaceOnUse" x="0" y="0" width="17" height="17">
<rect x="0.5" y="0.820007" width="16" height="16" fill="#D9D9D9"/>
</mask>
<g mask="url(#mask0_293_10632)">
<path d="M4.73346 11.0534L4.05013 10.37C4.62791 9.79224 5.29457 9.33935 6.05013 9.01135C6.80569 8.6838 7.62235 8.52002 8.50013 8.52002C9.37791 8.52002 10.1946 8.6838 10.9501 9.01135C11.7057 9.33935 12.3724 9.79224 12.9501 10.37L12.2668 11.0534C11.7779 10.5645 11.2112 10.1811 10.5668 9.90335C9.92235 9.62558 9.23346 9.48669 8.50013 9.48669C7.7668 9.48669 7.07791 9.62558 6.43346 9.90335C5.78902 10.1811 5.22235 10.5645 4.73346 11.0534ZM1.90013 8.22002L1.2168 7.53669C2.15013 6.60335 3.23635 5.86713 4.47546 5.32802C5.71413 4.78935 7.05569 4.52002 8.50013 4.52002C9.94458 4.52002 11.2864 4.78935 12.5255 5.32802C13.7641 5.86713 14.8501 6.60335 15.7835 7.53669L15.1001 8.22002C14.2446 7.36446 13.253 6.69491 12.1255 6.21135C10.9975 5.72824 9.78902 5.48669 8.50013 5.48669C7.21124 5.48669 6.0028 5.72824 4.8748 6.21135C3.74724 6.69491 2.75569 7.36446 1.90013 8.22002ZM8.50013 14.82L10.1335 13.1867C9.92235 12.9756 9.67791 12.8116 9.40013 12.6947C9.12235 12.5782 8.82235 12.52 8.50013 12.52C8.17791 12.52 7.87791 12.5782 7.60013 12.6947C7.32235 12.8116 7.07791 12.9756 6.8668 13.1867L8.50013 14.82Z" fill="#101014"/>
</g>
</svg>
