<svg width="48" height="47" viewBox="0 0 48 47" fill="none" xmlns="http://www.w3.org/2000/svg">
<path d="M23.9565 46.782C20.7995 46.782 17.8226 46.1774 15.0211 44.9728C12.2195 43.7682 9.76877 42.1251 7.67338 40.0436C5.578 37.9666 3.92569 35.5251 2.71646 32.7236C1.51184 29.922 0.907227 26.9266 0.907227 23.7328C0.907227 20.5389 1.51184 17.5436 2.71646 14.742C3.92107 11.9405 5.57338 9.49894 7.67338 7.42202C9.77338 5.3451 12.2195 3.69279 15.0211 2.4651C17.8226 1.2374 20.818 0.628174 24.0118 0.628174C27.2057 0.628174 30.1918 1.24202 32.9749 2.4651C35.758 3.68817 38.1903 5.34048 40.2672 7.42202C42.3442 9.49894 43.9965 11.9405 45.2241 14.742C46.4472 17.5436 47.0611 20.5436 47.0611 23.7328C47.0611 26.922 46.4565 29.922 45.2518 32.7236C44.0472 35.5251 42.3949 37.9666 40.2949 40.0436C38.1995 42.1205 35.7488 43.7636 32.9472 44.9728C30.1457 46.1774 27.1503 46.782 23.9565 46.782ZM21.6165 42.3282V37.7636C20.3195 37.7636 19.2303 37.2882 18.358 36.342C17.4857 35.3959 17.0518 34.2928 17.0518 33.0282V30.582L5.86415 19.3897C5.67953 20.1328 5.5503 20.8482 5.47646 21.5313C5.40261 22.2189 5.36569 22.9343 5.36569 23.6728C5.36569 28.422 6.90723 32.5805 9.98569 36.1436C13.0641 39.7066 16.9411 41.7697 21.6165 42.3282ZM37.7657 36.4251C38.5457 35.5343 39.2334 34.5974 39.8242 33.6143C40.4195 32.6313 40.9272 31.5928 41.3565 30.4943C41.7811 29.4005 42.0995 28.2882 42.3026 27.1528C42.5057 26.022 42.6072 24.8589 42.6072 23.6728C42.6072 19.8143 41.5503 16.3066 39.4318 13.1497C37.3134 9.99279 34.4934 7.69433 30.9672 6.2451V7.19125C30.9672 8.45125 30.5195 9.55894 29.6288 10.5051C28.738 11.4513 27.6441 11.9266 26.3426 11.9266H21.6165V16.7128C21.6165 17.3451 21.3672 17.862 20.8642 18.2728C20.3611 18.6789 19.798 18.8866 19.1657 18.8866H14.6565V23.6728H28.798C29.4303 23.6728 29.9472 23.9128 30.358 24.3974C30.7641 24.882 30.9718 25.4359 30.9718 26.0682V33.0282H33.3118C34.3503 33.0282 35.278 33.342 36.0949 33.9743C36.9118 34.6066 37.4657 35.4236 37.7657 36.4251Z" fill="black"/>
</svg>
