<svg width="24" height="16" viewBox="0 0 24 16" fill="none" xmlns="http://www.w3.org/2000/svg">
<path d="M0 15.7713V0.165283H1.6V10.6753H11.016V2.43228H19.606C20.1151 2.42424 20.6205 2.52063 21.0909 2.7155C21.5613 2.91037 21.9867 3.19958 22.341 3.56528C22.7067 3.91939 22.996 4.34467 23.191 4.81488C23.3861 5.2851 23.4827 5.79028 23.475 6.29928V15.7693H21.875V12.2763H1.6V15.7713H0ZM6.136 9.12928C5.76279 9.13592 5.39207 9.06731 5.04596 8.92754C4.69985 8.78777 4.38545 8.57971 4.12151 8.31577C3.85757 8.05183 3.64951 7.73743 3.50974 7.39132C3.36997 7.04521 3.30136 6.67449 3.308 6.30128C3.30136 5.92808 3.36997 5.55736 3.50974 5.21125C3.64951 4.86514 3.85757 4.55073 4.12151 4.28679C4.38545 4.02286 4.69985 3.81479 5.04596 3.67502C5.39207 3.53525 5.76279 3.46664 6.136 3.47328C6.50912 3.46678 6.87973 3.53549 7.22573 3.67532C7.57172 3.81515 7.886 4.02323 8.14984 4.28716C8.41367 4.55108 8.62164 4.86544 8.76135 5.21148C8.90106 5.55753 8.96964 5.92816 8.963 6.30128C8.96964 6.6744 8.90106 7.04504 8.76135 7.39108C8.62164 7.73712 8.41367 8.05148 8.14984 8.31541C7.886 8.57933 7.57172 8.78742 7.22573 8.92725C6.87973 9.06708 6.50912 9.13579 6.136 9.12928ZM12.618 10.6763H21.874V6.30128C21.8714 5.70085 21.6317 5.12575 21.2071 4.70118C20.7825 4.2766 20.2074 4.03691 19.607 4.03428H12.618V10.6763ZM6.136 7.52828C6.37846 7.52792 6.61536 7.45568 6.81676 7.32069C7.01816 7.1857 7.17502 6.99403 7.2675 6.7699C7.35997 6.54577 7.38392 6.29926 7.3363 6.06152C7.28869 5.82379 7.17166 5.60551 7 5.43428C6.88642 5.31993 6.75134 5.22918 6.60255 5.16725C6.45375 5.10532 6.29417 5.07344 6.133 5.07344C5.97183 5.07344 5.81225 5.10532 5.66345 5.16725C5.51466 5.22918 5.37958 5.31993 5.266 5.43428C5.1523 5.54801 5.06216 5.68305 5.00076 5.83168C4.93935 5.98031 4.90789 6.13959 4.90817 6.30041C4.90844 6.46122 4.94046 6.62039 5.00238 6.76881C5.0643 6.91722 5.15491 7.05196 5.269 7.16528C5.38123 7.28137 5.51607 7.37321 5.66519 7.43513C5.81432 7.49705 5.97455 7.52773 6.136 7.52528M6.136 7.52528C5.81117 7.52476 5.49973 7.39576 5.26966 7.16644C5.0396 6.93713 4.90975 6.62524 4.90817 6.30041C4.90896 5.97496 5.03842 5.66395 5.26855 5.43383C5.49867 5.20371 5.81056 5.07408 6.136 5.07328C6.37783 5.07451 6.61391 5.14717 6.81458 5.28214C7.01524 5.41711 7.17155 5.60837 7.26387 5.83189C7.35618 6.05541 7.38039 6.30123 7.33344 6.53846C7.28649 6.7757 7.17049 6.99377 7 7.16528C6.88766 7.28123 6.7528 7.37297 6.6037 7.43488C6.45461 7.49679 6.29442 7.52756 6.133 7.52528M12.615 4.03028H19.604C20.2044 4.03291 20.7795 4.2726 21.2041 4.69718C21.6287 5.12176 21.8684 5.69685 21.871 6.29728V10.6753L12.618 10.6763L12.615 4.03028Z" fill="#E55735"/>
</svg>
