<svg width="24" height="25" viewBox="0 0 24 25" fill="none" xmlns="http://www.w3.org/2000/svg">
<path d="M5.8664 17.5715L9.9336 13.5051L12.6 16.1715L17.6664 11.1387V13.7051H19.6664V7.70508H13.6664V9.70508H16.2336L12.6 13.3387L9.9336 10.6715L4.4664 16.1715L5.8664 17.5715ZM2 24.7051C1.4664 24.7051 1 24.5051 0.6 24.1051C0.2 23.7051 0 23.2387 0 22.7051V2.70508C0 2.17148 0.2 1.70508 0.6 1.30508C1 0.905078 1.4664 0.705078 2 0.705078H22C22.5336 0.705078 23 0.905078 23.4 1.30508C23.8 1.70508 24 2.17148 24 2.70508V22.7051C24 23.2387 23.8 23.7051 23.4 24.1051C23 24.5051 22.5336 24.7051 22 24.7051H2Z" fill="#E55735"/>
</svg>
