<svg width="24" height="25" viewBox="0 0 24 25" fill="none" xmlns="http://www.w3.org/2000/svg">
<path d="M19.5 11.5801H24V13.8301H19.5V11.5801ZM21 24.7051L17.37 21.3301L18.45 19.5301L22.08 22.9051L21 24.7051ZM18.54 5.84258L17.46 4.04258L21 0.705078L22.08 2.50508L18.54 5.84258ZM3.9 23.2051V17.2051H1.8C1.3 17.2051 0.874667 16.9859 0.525333 16.5484C0.174667 16.1109 0 15.5801 0 14.9551V10.4551C0 9.83008 0.174667 9.29841 0.525333 8.86091C0.874667 8.42341 1.3 8.20508 1.8 8.20508H7.2L13.2 3.70508V21.7051L7.2 17.2051H5.7V23.2051H3.9ZM14.4 17.7301V7.68008C14.94 8.28008 15.3747 9.01091 15.7047 9.87341C16.0347 10.7359 16.2 11.6801 16.2 12.7051C16.2 13.7301 16.0347 14.6734 15.7047 15.5359C15.3747 16.3984 14.94 17.1301 14.4 17.7301Z" fill="#E55735"/>
</svg>
