<svg width="19" height="20" viewBox="0 0 19 20" fill="none" xmlns="http://www.w3.org/2000/svg">
<path d="M9.61562 19.5123C8.28876 19.3691 6.99505 19.0058 5.78762 18.4373C4.58491 17.8746 3.50159 17.086 2.59662 16.1143C1.65915 15.0971 0.917407 13.9157 0.408616 12.6293C-0.156996 11.1843 -0.443391 9.64508 -0.435383 8.09332C1.00239 8.08624 2.42884 8.34772 3.77062 8.86432C4.97556 9.33751 6.05518 10.0821 6.92562 11.0403C7.83413 12.072 8.51341 13.2847 8.91862 14.5983C9.40983 16.1891 9.64609 17.8476 9.61862 19.5123M9.32462 11.9813C8.92096 11.2608 8.43723 10.5882 7.88262 9.97632C7.27264 9.35787 6.59 8.81559 5.84962 8.36132C5.91916 7.61386 6.05299 6.87379 6.24962 6.14932C6.45463 5.38621 6.7119 4.63811 7.01962 3.91032C7.32835 3.18115 7.68066 2.4712 8.07462 1.78432C8.43853 1.13936 8.85565 0.525893 9.32162 -0.0496826C9.7871 0.524683 10.208 1.13379 10.5806 1.77232C10.9884 2.46401 11.3479 3.18306 11.6566 3.92432C11.9712 4.67169 12.2328 5.44025 12.4396 6.22432C12.6365 6.9657 12.7703 7.72239 12.8396 8.48632C12.0944 8.83458 11.4237 9.32393 10.8646 9.92732C10.2725 10.5492 9.75557 11.2386 9.32462 11.9813ZM11.0826 19.1503C11.0363 18.135 10.9381 17.1227 10.7886 16.1173C10.6699 15.249 10.4566 14.3963 10.1526 13.5743C10.9046 11.9353 12.1217 10.5533 13.6526 9.60032C15.2762 8.53411 17.1881 7.99234 19.1296 8.04832C19.1144 10.6266 18.312 13.1387 16.8296 15.2483C15.3901 17.1398 13.3721 18.5093 11.0826 19.1483" fill="#E55735"/>
</svg>
