<svg width="24" height="18" viewBox="0 0 24 18" fill="none" xmlns="http://www.w3.org/2000/svg">
<path d="M0.000234408 17.1652V12.8482C-0.00375665 12.5996 0.0432544 12.3527 0.138366 12.123C0.233478 11.8932 0.374672 11.6853 0.553234 11.5122C0.726328 11.3337 0.934179 11.1925 1.16396 11.0974C1.39374 11.0022 1.64058 10.9552 1.88923 10.9592H5.68923C5.99632 10.9595 6.29822 11.0383 6.56623 11.1882C6.84852 11.3441 7.09272 11.5606 7.28123 11.8222C7.78982 12.5658 8.4777 13.169 9.28123 13.5762C10.4918 14.1982 11.8858 14.3632 13.2081 14.0411C14.5304 13.7189 15.6924 12.9312 16.4812 11.8222C16.6667 11.5634 16.9053 11.3472 17.1812 11.1882C17.4438 11.0375 17.7415 10.9585 18.0442 10.9592H21.8442C22.3452 10.9592 22.8257 11.1582 23.18 11.5125C23.5342 11.8668 23.7332 12.3472 23.7332 12.8482V17.1652H16.7302V13.9542C16.0801 14.5492 15.3236 15.016 14.5002 15.3302C13.6611 15.6546 12.7688 15.8195 11.8692 15.8162C10.9741 15.8202 10.0862 15.6553 9.25223 15.3302C8.42922 15.0093 7.67052 14.5433 7.01223 13.9542V17.1652H0.000234408ZM11.8732 12.5782C11.2394 12.5772 10.6151 12.4247 10.0522 12.1332C9.48361 11.8504 8.99606 11.4279 8.63523 10.9052C8.36134 10.504 8.00764 10.1636 7.59623 9.90523C7.19509 9.65616 6.75126 9.48358 6.28723 9.39623C6.97796 8.76673 7.82695 8.33705 8.74323 8.15323C9.76425 7.87817 10.8159 7.73302 11.8732 7.72123C12.9352 7.73349 13.9914 7.87862 15.0172 8.15323C15.9376 8.33557 16.7908 8.76531 17.4852 9.39623C17.0209 9.48481 16.5771 9.65876 16.1762 9.90923C15.7648 10.1676 15.4111 10.508 15.1372 10.9092C14.7764 11.4319 14.2889 11.8544 13.7202 12.1372C13.1485 12.4308 12.5149 12.5834 11.8722 12.5822M3.23823 9.07023C2.8485 9.07499 2.46191 8.99991 2.1023 8.84959C1.74268 8.69928 1.41765 8.47693 1.14723 8.19623C0.865622 7.92572 0.642495 7.60032 0.491649 7.24015C0.340802 6.87997 0.265444 6.49268 0.270234 6.10223C0.263899 5.71066 0.338529 5.32201 0.489443 4.96065C0.640357 4.59928 0.864301 4.27299 1.14723 4.00223C1.41934 3.72451 1.74493 3.50485 2.10432 3.35652C2.46372 3.20818 2.84946 3.13427 3.23823 3.13923C3.62861 3.13234 4.01627 3.20534 4.3774 3.35375C4.73853 3.50215 5.06551 3.72283 5.33823 4.00223C5.61763 4.27495 5.83831 4.60193 5.98672 4.96306C6.13512 5.32419 6.20813 5.71185 6.20123 6.10223C6.20725 6.49114 6.13432 6.87724 5.98684 7.23716C5.83937 7.59708 5.62042 7.92335 5.34323 8.19623C5.07248 8.47916 4.74618 8.7031 4.38482 8.85402C4.02345 9.00493 3.6348 9.07956 3.24323 9.07323M20.5122 9.07323C20.1214 9.07829 19.7338 9.00307 19.3732 8.85221C19.0127 8.70136 18.687 8.47809 18.4162 8.19623C18.135 7.92607 17.9121 7.60115 17.7612 7.24153C17.6104 6.8819 17.5349 6.49518 17.5392 6.10523C17.5329 5.71366 17.6075 5.32501 17.7584 4.96365C17.9094 4.60228 18.1333 4.27599 18.4162 4.00523C18.8305 3.58928 19.359 3.30585 19.9347 3.19095C20.5104 3.07606 21.1073 3.13488 21.6495 3.35994C22.1916 3.585 22.6547 3.96615 22.9798 4.45496C23.3049 4.94377 23.4773 5.51819 23.4752 6.10523C23.4802 6.494 23.4063 6.87974 23.2579 7.23914C23.1096 7.59853 22.89 7.92412 22.6122 8.19623C22.3415 8.47916 22.0152 8.7031 21.6538 8.85402C21.2924 9.00493 20.9038 9.07956 20.5122 9.07323ZM11.8732 5.83223C11.4833 5.83661 11.0966 5.76105 10.7369 5.61021C10.3773 5.45938 10.0524 5.23647 9.78223 4.95523C9.50009 4.6855 9.27625 4.36078 9.12455 4.00113C8.97284 3.64148 8.8965 3.25454 8.90023 2.86423C8.8939 2.47266 8.96853 2.08401 9.11944 1.72265C9.27036 1.36128 9.4943 1.03499 9.77724 0.764228C10.3355 0.209747 11.0904 -0.10144 11.8772 -0.10144C12.6641 -0.10144 13.419 0.209747 13.9772 0.764228C14.2566 1.03695 14.4773 1.36393 14.6257 1.72506C14.7741 2.08619 14.8471 2.47385 14.8402 2.86423C14.8452 3.253 14.7713 3.63874 14.6229 3.99814C14.4746 4.35753 14.255 4.68312 13.9772 4.95523C13.7065 5.23816 13.3802 5.4621 13.0188 5.61302C12.6574 5.76393 12.2688 5.83856 11.8772 5.83223" fill="#E55735"/>
</svg>
