<svg width="56" height="42" viewBox="0 0 56 42" fill="none" xmlns="http://www.w3.org/2000/svg">
<path d="M22.2952 6.82148L19.22 5.04394L18.3924 4.56431L17.9128 3.73684L16.1354 0.661621L14.358 3.73684L13.8784 4.56431L13.0508 5.04394L9.97559 6.82148L13.0508 8.59879L13.8784 9.07842L14.358 9.90612L16.1354 12.9813L17.9128 9.90612L18.3924 9.07842L19.22 8.59879L22.2952 6.82148Z" fill="#101014"/>
<path d="M10.5213 19.0282L7.92569 17.5235L7.22976 17.1286L6.82539 16.4326L5.32069 13.8276L3.816 16.4326L3.41162 17.1286L2.7157 17.5329L0.120117 19.0282L2.72511 20.533L3.42102 20.9373L3.82541 21.6332L5.33009 24.2383L6.83478 21.6332L7.23916 20.9373L7.93509 20.533L10.5213 19.0282Z" fill="#101014"/>
<path d="M36.3174 14.8151L33.7124 13.3103L33.0165 12.906L32.6121 12.2101L31.1074 9.6051L29.6028 12.2101L29.1984 12.906L28.5024 13.3103L25.8975 14.8151L28.5024 16.3197L29.1984 16.7242L29.6028 17.4201L31.1074 20.0251L32.6121 17.4201L33.0165 16.7242L33.7124 16.3197L36.3174 14.8151Z" fill="#101014"/>
<path d="M13.004 41.5986L10.4648 39.0218L27.0916 22.5926L35.8847 30.859L52.5303 12.6145L55.2011 15.0409L36.0822 36.0031L27.1575 27.6143L13.004 41.5986Z" fill="#101014"/>
</svg>
