<svg width="100" height="226" viewBox="0 0 100 226" fill="none" xmlns="http://www.w3.org/2000/svg">
<rect y="0.5979" width="100" height="100" rx="50" fill="#E3E3E2"/>
<path d="M50.2499 84.2313C45.5499 84.2313 41.1332 83.3313 37.0165 81.5479C32.8999 79.7479 29.3165 77.3313 26.2499 74.2646C23.1832 71.1979 20.7665 67.6146 18.9665 63.4979C17.1665 59.3813 16.2832 54.9646 16.2832 50.2646C16.2832 42.0313 18.9165 34.7646 24.1832 28.5146C29.4499 22.2479 36.1332 18.3646 44.2499 16.8646C43.3332 22.3479 43.6665 27.7313 45.2332 33.0146C46.8165 38.2979 49.5832 42.9146 53.5499 46.8813C57.4999 50.8313 62.1165 53.6146 67.3999 55.2146C72.6832 56.8146 78.0999 57.1813 83.6165 56.3313C82.1665 64.4313 78.2999 71.0979 72.0165 76.3479C65.7499 81.5979 58.4832 84.2313 50.2499 84.2313ZM71.9165 39.7479L68.2332 31.5146L60.0332 27.8479L68.2332 24.1646L71.9165 15.9646L75.5665 24.1646L83.7832 27.8479L75.5665 31.5146L71.9165 39.7479Z" fill="black"/>
<path d="M42.3962 154.14C41.7191 154.14 41.1462 153.879 40.6774 153.41C40.2087 152.942 39.9482 152.369 39.9482 151.692V136.067C39.9482 135.39 40.2087 134.817 40.6774 134.296C41.1462 133.827 41.7191 133.567 42.3962 133.567H43.8545V132.004H45.9899V133.567H53.9587V132.004H56.0941V133.567H57.5524C58.2295 133.567 58.8024 133.827 59.3232 134.296C59.792 134.765 60.0524 135.337 60.0524 136.067V151.744C60.0524 152.421 59.792 152.994 59.3232 153.462C58.8545 153.931 58.2816 154.192 57.5524 154.192C57.5524 154.14 42.3962 154.14 42.3962 154.14ZM42.3962 151.692H57.5524V140.754H42.3962V151.692Z" fill="#F26B43"/>
<path d="M29.7819 194.948C28.1485 194.948 26.6669 194.656 25.3369 194.073C24.0302 193.466 22.9219 192.591 22.0119 191.448L24.7419 188.718C25.2319 189.465 25.9202 190.06 26.8069 190.503C27.6935 190.946 28.6619 191.168 29.7119 191.168C30.7152 191.168 31.5785 190.981 32.3019 190.608C33.0252 190.235 33.5852 189.71 33.9819 189.033C34.4019 188.356 34.6119 187.575 34.6119 186.688C34.6119 185.755 34.4019 184.961 33.9819 184.308C33.5852 183.655 33.0019 183.153 32.2319 182.803C31.4852 182.43 30.5752 182.243 29.5019 182.243C29.0819 182.243 28.6502 182.278 28.2069 182.348C27.7635 182.395 27.3669 182.476 27.0169 182.593L28.8019 180.283C29.2919 180.096 29.8052 179.945 30.3419 179.828C30.9019 179.688 31.4385 179.618 31.9519 179.618C33.2119 179.618 34.3435 179.921 35.3469 180.528C36.3735 181.135 37.1785 181.986 37.7619 183.083C38.3685 184.156 38.6719 185.428 38.6719 186.898C38.6719 188.485 38.2985 189.885 37.5519 191.098C36.8052 192.311 35.7669 193.256 34.4369 193.933C33.1069 194.61 31.5552 194.948 29.7819 194.948ZM27.0169 182.593V180.213L33.5619 172.583L38.3919 172.478L31.5669 180.318L27.0169 182.593ZM23.2369 173.703V170.098H38.3919V172.478L34.9269 173.703H23.2369ZM49.9082 194.948C48.2749 194.948 46.8049 194.575 45.4982 193.828C44.1916 193.058 43.1532 192.031 42.3832 190.748C41.6366 189.465 41.2632 188.041 41.2632 186.478C41.2632 184.238 42.0449 181.975 43.6082 179.688L50.2932 170.098H54.9482L47.8082 180.143L46.3382 181.018C46.5716 180.481 46.8632 180.026 47.2132 179.653C47.5866 179.256 48.0649 178.953 48.6482 178.743C49.2549 178.533 50.0016 178.428 50.8882 178.428C52.3116 178.428 53.5949 178.766 54.7382 179.443C55.9049 180.096 56.8382 181.018 57.5382 182.208C58.2382 183.375 58.5882 184.751 58.5882 186.338C58.5882 187.925 58.2032 189.371 57.4332 190.678C56.6632 191.985 55.6132 193.023 54.2832 193.793C52.9766 194.563 51.5182 194.948 49.9082 194.948ZM49.9082 191.168C50.7949 191.168 51.5882 190.958 52.2882 190.538C52.9882 190.118 53.5366 189.546 53.9332 188.823C54.3532 188.076 54.5632 187.248 54.5632 186.338C54.5632 185.428 54.3532 184.611 53.9332 183.888C53.5366 183.165 52.9882 182.605 52.2882 182.208C51.5882 181.788 50.7949 181.578 49.9082 181.578C49.0216 181.578 48.2282 181.788 47.5282 182.208C46.8282 182.628 46.2799 183.2 45.8832 183.923C45.4866 184.623 45.2882 185.428 45.2882 186.338C45.2882 187.248 45.4866 188.076 45.8832 188.823C46.2799 189.546 46.8282 190.118 47.5282 190.538C48.2282 190.958 49.0216 191.168 49.9082 191.168ZM68.3716 194.948C66.6682 194.948 65.1516 194.656 63.8216 194.073C62.4916 193.466 61.3716 192.591 60.4616 191.448L63.1916 188.718C63.6816 189.465 64.3699 190.06 65.2566 190.503C66.1666 190.946 67.1816 191.168 68.3016 191.168C69.3282 191.168 70.2266 190.981 70.9966 190.608C71.7666 190.235 72.3732 189.698 72.8166 188.998C73.2599 188.298 73.4816 187.47 73.4816 186.513C73.4816 185.51 73.2599 184.681 72.8166 184.028C72.3966 183.351 71.8249 182.85 71.1016 182.523C70.4016 182.173 69.6432 181.998 68.8266 181.998C67.8932 181.998 67.0532 182.103 66.3066 182.313C65.5832 182.523 64.8716 182.896 64.1716 183.433L64.2766 180.913C64.6499 180.423 65.0816 180.026 65.5716 179.723C66.0616 179.396 66.6332 179.151 67.2866 178.988C67.9399 178.825 68.7099 178.743 69.5966 178.743C71.3232 178.743 72.7699 179.105 73.9366 179.828C75.1266 180.551 76.0249 181.52 76.6316 182.733C77.2382 183.923 77.5416 185.253 77.5416 186.723C77.5416 188.31 77.1449 189.721 76.3516 190.958C75.5816 192.195 74.5082 193.175 73.1316 193.898C71.7549 194.598 70.1682 194.948 68.3716 194.948ZM64.1716 183.433L61.9666 181.228L63.0516 170.098H66.7266L65.4666 181.683L64.1716 183.433ZM63.7516 173.703L63.0516 170.098H76.1766V173.703H63.7516Z" fill="#333333"/>
<path d="M6.05763 219.598V211.458H7.42163L11.1616 216.98V211.458H12.6466V219.598H11.2826L7.54263 214.175V219.598H6.05763ZM15.0024 212.866C14.7458 212.866 14.5331 212.782 14.3644 212.613C14.2031 212.444 14.1224 212.243 14.1224 212.008C14.1224 211.773 14.2031 211.572 14.3644 211.403C14.5331 211.234 14.7458 211.15 15.0024 211.15C15.2591 211.15 15.4718 211.234 15.6404 211.403C15.8091 211.572 15.8934 211.773 15.8934 212.008C15.8934 212.243 15.8091 212.444 15.6404 212.613C15.4718 212.782 15.2591 212.866 15.0024 212.866ZM14.2764 219.598V213.768H15.7394V219.598H14.2764ZM20.1851 221.93C19.6645 221.93 19.2318 221.86 18.8871 221.721C18.5498 221.589 18.2821 221.424 18.0841 221.226C17.8861 221.035 17.7395 220.841 17.6441 220.643C17.5488 220.445 17.4865 220.28 17.4571 220.148C17.4278 220.016 17.4131 219.95 17.4131 219.95H18.8431C18.8431 219.95 18.8578 219.99 18.8871 220.071C18.9165 220.152 18.9751 220.243 19.0631 220.346C19.1585 220.456 19.2941 220.551 19.4701 220.632C19.6461 220.713 19.8808 220.753 20.1741 220.753C20.6875 220.753 21.0578 220.606 21.2851 220.313C21.5125 220.02 21.6261 219.664 21.6261 219.246V218.597H21.5601C21.4795 218.722 21.3621 218.857 21.2081 219.004C21.0615 219.151 20.8671 219.275 20.6251 219.378C20.3905 219.481 20.1045 219.532 19.7671 219.532C19.3345 219.532 18.9568 219.448 18.6341 219.279C18.3115 219.11 18.0401 218.887 17.8201 218.608C17.6001 218.329 17.4351 218.018 17.3251 217.673C17.2225 217.321 17.1711 216.962 17.1711 216.595C17.1711 216.228 17.2225 215.873 17.3251 215.528C17.4351 215.176 17.6001 214.861 17.8201 214.582C18.0401 214.296 18.3115 214.072 18.6341 213.911C18.9568 213.742 19.3345 213.658 19.7671 213.658C20.1045 213.658 20.3905 213.709 20.6251 213.812C20.8671 213.915 21.0615 214.039 21.2081 214.186C21.3621 214.325 21.4795 214.457 21.5601 214.582H21.6261V213.768H23.0891V219.235C23.0891 219.741 22.9828 220.196 22.7701 220.599C22.5575 221.01 22.2348 221.332 21.8021 221.567C21.3768 221.809 20.8378 221.93 20.1851 221.93ZM20.1521 218.355C20.4821 218.355 20.7571 218.271 20.9771 218.102C21.1971 217.926 21.3621 217.706 21.4721 217.442C21.5821 217.171 21.6371 216.888 21.6371 216.595C21.6371 216.294 21.5821 216.012 21.4721 215.748C21.3621 215.477 21.1971 215.257 20.9771 215.088C20.7571 214.919 20.4821 214.835 20.1521 214.835C19.8148 214.835 19.5325 214.919 19.3051 215.088C19.0851 215.257 18.9201 215.477 18.8101 215.748C18.7001 216.012 18.6451 216.294 18.6451 216.595C18.6451 216.888 18.7001 217.171 18.8101 217.442C18.9201 217.706 19.0851 217.926 19.3051 218.102C19.5325 218.271 19.8148 218.355 20.1521 218.355ZM24.5664 219.598V211.238H26.0294V214.604H26.0954C26.1541 214.501 26.2457 214.377 26.3704 214.23C26.4951 214.076 26.6674 213.944 26.8874 213.834C27.1074 213.717 27.3861 213.658 27.7234 213.658C28.1707 213.658 28.5374 213.761 28.8234 213.966C29.1167 214.164 29.3331 214.428 29.4724 214.758C29.6191 215.088 29.6924 215.444 29.6924 215.825V219.598H28.2294V216.023C28.2294 215.708 28.1414 215.436 27.9654 215.209C27.7894 214.982 27.5254 214.868 27.1734 214.868C26.9021 214.868 26.6821 214.938 26.5134 215.077C26.3447 215.209 26.2201 215.381 26.1394 215.594C26.0661 215.807 26.0294 216.03 26.0294 216.265V219.598H24.5664ZM33.5522 219.708C33.1562 219.708 32.8299 219.649 32.5732 219.532C32.3165 219.415 32.1149 219.261 31.9682 219.07C31.8289 218.879 31.7299 218.67 31.6712 218.443C31.6125 218.216 31.5832 217.992 31.5832 217.772V214.945H30.5822V213.768H31.5832V212.316H33.0462V213.768H34.3552V214.945H33.0462V217.739C33.0462 218.26 33.3395 218.52 33.9262 218.52C34.0655 218.52 34.1939 218.513 34.3112 218.498C34.4359 218.476 34.4982 218.465 34.4982 218.465V219.609C34.4982 219.609 34.4029 219.624 34.2122 219.653C34.0289 219.69 33.8089 219.708 33.5522 219.708ZM38.0467 219.708C37.5701 219.708 37.1777 219.646 36.8697 219.521C36.5617 219.389 36.3161 219.228 36.1327 219.037C35.9567 218.839 35.8247 218.645 35.7367 218.454C35.6487 218.263 35.5901 218.106 35.5607 217.981C35.5387 217.849 35.5277 217.783 35.5277 217.783H36.9137C36.9137 217.783 36.9247 217.823 36.9467 217.904C36.9761 217.985 37.0274 218.08 37.1007 218.19C37.1814 218.293 37.3024 218.384 37.4637 218.465C37.6251 218.546 37.8377 218.586 38.1017 218.586C38.4171 218.586 38.6444 218.52 38.7837 218.388C38.9231 218.249 38.9927 218.095 38.9927 217.926C38.9927 217.765 38.9304 217.636 38.8057 217.541C38.6884 217.438 38.5124 217.361 38.2777 217.31L37.4747 217.145C37.1521 217.079 36.8514 216.984 36.5727 216.859C36.2941 216.727 36.0667 216.551 35.8907 216.331C35.7147 216.104 35.6267 215.814 35.6267 215.462C35.6267 214.941 35.8247 214.512 36.2207 214.175C36.6167 213.83 37.1557 213.658 37.8377 213.658C38.2704 213.658 38.6261 213.717 38.9047 213.834C39.1907 213.951 39.4181 214.098 39.5867 214.274C39.7627 214.45 39.8911 214.626 39.9717 214.802C40.0597 214.978 40.1147 215.128 40.1367 215.253C40.1661 215.37 40.1807 215.429 40.1807 215.429H38.8387C38.8387 215.429 38.8277 215.396 38.8057 215.33C38.7837 215.257 38.7361 215.176 38.6627 215.088C38.5967 215 38.4941 214.923 38.3547 214.857C38.2227 214.784 38.0431 214.747 37.8157 214.747C37.5077 214.747 37.2877 214.813 37.1557 214.945C37.0311 215.077 36.9687 215.216 36.9687 215.363C36.9687 215.524 37.0384 215.649 37.1777 215.737C37.3171 215.825 37.4967 215.891 37.7167 215.935L38.4757 216.1C39.0184 216.21 39.4621 216.401 39.8067 216.672C40.1587 216.943 40.3347 217.336 40.3347 217.849C40.3347 218.194 40.2431 218.509 40.0597 218.795C39.8837 219.074 39.6234 219.297 39.2787 219.466C38.9414 219.627 38.5307 219.708 38.0467 219.708ZM43.7317 219.598L46.5367 211.458H48.4837L51.2997 219.598H49.7377L49.1547 217.882H45.8767L45.2937 219.598H43.7317ZM46.3057 216.584H48.7257L47.5157 212.987L46.3057 216.584ZM53.4913 219.598L51.3243 213.768H52.8093L54.2723 217.926L55.7133 213.768H57.1983L55.0203 219.598H53.4913ZM60.4046 213.658C60.7786 213.658 61.0866 213.72 61.3286 213.845C61.5706 213.962 61.7613 214.094 61.9006 214.241C62.0399 214.38 62.1353 214.494 62.1866 214.582H62.2526V213.768H63.7156V219.598H62.2526V218.784H62.1866C62.1353 218.872 62.0399 218.989 61.9006 219.136C61.7613 219.283 61.5706 219.415 61.3286 219.532C61.0866 219.649 60.7786 219.708 60.4046 219.708C59.9719 219.708 59.5943 219.624 59.2716 219.455C58.9489 219.279 58.6776 219.048 58.4576 218.762C58.2449 218.469 58.0836 218.142 57.9736 217.783C57.8709 217.424 57.8196 217.057 57.8196 216.683C57.8196 216.309 57.8709 215.942 57.9736 215.583C58.0836 215.224 58.2449 214.901 58.4576 214.615C58.6776 214.322 58.9489 214.091 59.2716 213.922C59.5943 213.746 59.9719 213.658 60.4046 213.658ZM60.7896 214.857C60.4596 214.857 60.1809 214.949 59.9536 215.132C59.7336 215.308 59.5686 215.535 59.4586 215.814C59.3486 216.093 59.2936 216.382 59.2936 216.683C59.2936 216.984 59.3486 217.273 59.4586 217.552C59.5686 217.831 59.7336 218.062 59.9536 218.245C60.1809 218.421 60.4596 218.509 60.7896 218.509C61.1196 218.509 61.3946 218.421 61.6146 218.245C61.8346 218.062 61.9996 217.831 62.1096 217.552C62.2196 217.273 62.2746 216.984 62.2746 216.683C62.2746 216.382 62.2196 216.093 62.1096 215.814C61.9996 215.535 61.8346 215.308 61.6146 215.132C61.3946 214.949 61.1196 214.857 60.7896 214.857ZM65.9849 212.866C65.7282 212.866 65.5155 212.782 65.3469 212.613C65.1855 212.444 65.1049 212.243 65.1049 212.008C65.1049 211.773 65.1855 211.572 65.3469 211.403C65.5155 211.234 65.7282 211.15 65.9849 211.15C66.2415 211.15 66.4542 211.234 66.6229 211.403C66.7915 211.572 66.8759 211.773 66.8759 212.008C66.8759 212.243 66.7915 212.444 66.6229 212.613C66.4542 212.782 66.2415 212.866 65.9849 212.866ZM65.2589 219.598V213.768H66.7219V219.598H65.2589ZM68.3516 219.598L68.3626 211.238H69.8146V219.598H68.3516ZM73.7464 213.658C74.1204 213.658 74.4284 213.72 74.6704 213.845C74.9124 213.962 75.103 214.094 75.2424 214.241C75.3817 214.38 75.477 214.494 75.5284 214.582H75.5944V213.768H77.0574V219.598H75.5944V218.784H75.5284C75.477 218.872 75.3817 218.989 75.2424 219.136C75.103 219.283 74.9124 219.415 74.6704 219.532C74.4284 219.649 74.1204 219.708 73.7464 219.708C73.3137 219.708 72.936 219.624 72.6134 219.455C72.2907 219.279 72.0194 219.048 71.7994 218.762C71.5867 218.469 71.4254 218.142 71.3154 217.783C71.2127 217.424 71.1614 217.057 71.1614 216.683C71.1614 216.309 71.2127 215.942 71.3154 215.583C71.4254 215.224 71.5867 214.901 71.7994 214.615C72.0194 214.322 72.2907 214.091 72.6134 213.922C72.936 213.746 73.3137 213.658 73.7464 213.658ZM74.1314 214.857C73.8014 214.857 73.5227 214.949 73.2954 215.132C73.0754 215.308 72.9104 215.535 72.8004 215.814C72.6904 216.093 72.6354 216.382 72.6354 216.683C72.6354 216.984 72.6904 217.273 72.8004 217.552C72.9104 217.831 73.0754 218.062 73.2954 218.245C73.5227 218.421 73.8014 218.509 74.1314 218.509C74.4614 218.509 74.7364 218.421 74.9564 218.245C75.1764 218.062 75.3414 217.831 75.4514 217.552C75.5614 217.273 75.6164 216.984 75.6164 216.683C75.6164 216.382 75.5614 216.093 75.4514 215.814C75.3414 215.535 75.1764 215.308 74.9564 215.132C74.7364 214.949 74.4614 214.857 74.1314 214.857ZM81.8676 219.708C81.4936 219.708 81.1856 219.649 80.9436 219.532C80.7016 219.407 80.511 219.272 80.3716 219.125C80.2396 218.978 80.148 218.865 80.0966 218.784H80.0196V219.598H78.5566V211.238H80.0196V214.582H80.0966C80.148 214.494 80.2396 214.377 80.3716 214.23C80.511 214.083 80.7016 213.951 80.9436 213.834C81.1856 213.717 81.4936 213.658 81.8676 213.658C82.3076 213.658 82.689 213.746 83.0116 213.922C83.3343 214.091 83.602 214.322 83.8146 214.615C84.0273 214.901 84.185 215.224 84.2876 215.583C84.3976 215.942 84.4526 216.309 84.4526 216.683C84.4526 217.057 84.3976 217.424 84.2876 217.783C84.185 218.142 84.0273 218.469 83.8146 218.762C83.602 219.048 83.3343 219.279 83.0116 219.455C82.689 219.624 82.3076 219.708 81.8676 219.708ZM81.4826 218.509C81.82 218.509 82.0986 218.421 82.3186 218.245C82.5386 218.062 82.7036 217.831 82.8136 217.552C82.9236 217.273 82.9786 216.984 82.9786 216.683C82.9786 216.382 82.9236 216.093 82.8136 215.814C82.7036 215.535 82.5386 215.308 82.3186 215.132C82.0986 214.949 81.82 214.857 81.4826 214.857C81.1526 214.857 80.8776 214.949 80.6576 215.132C80.4376 215.308 80.2726 215.535 80.1626 215.814C80.0526 216.093 79.9976 216.382 79.9976 216.683C79.9976 216.984 80.0526 217.273 80.1626 217.552C80.2726 217.831 80.4376 218.062 80.6576 218.245C80.8776 218.421 81.1526 218.509 81.4826 218.509ZM85.7969 219.598L85.8079 211.238H87.2599V219.598H85.7969ZM91.5107 219.708C91.012 219.708 90.5794 219.624 90.2127 219.455C89.8534 219.279 89.5527 219.048 89.3107 218.762C89.076 218.469 88.9 218.142 88.7827 217.783C88.6654 217.424 88.6067 217.057 88.6067 216.683C88.6067 216.309 88.6617 215.946 88.7717 215.594C88.889 215.235 89.0614 214.908 89.2887 214.615C89.5234 214.322 89.8204 214.091 90.1797 213.922C90.539 213.746 90.9644 213.658 91.4557 213.658C91.9837 213.658 92.4494 213.775 92.8527 214.01C93.256 214.245 93.5714 214.589 93.7987 215.044C94.026 215.491 94.1397 216.049 94.1397 216.716V217.09H90.0807C90.1027 217.486 90.2384 217.831 90.4877 218.124C90.737 218.41 91.078 218.553 91.5107 218.553C91.76 218.553 91.9654 218.513 92.1267 218.432C92.288 218.351 92.4127 218.26 92.5007 218.157C92.5887 218.047 92.651 217.955 92.6877 217.882C92.7244 217.801 92.7427 217.761 92.7427 217.761H94.0957C94.0957 217.761 94.0774 217.827 94.0407 217.959C94.004 218.084 93.9344 218.245 93.8317 218.443C93.7364 218.634 93.5934 218.828 93.4027 219.026C93.212 219.217 92.9627 219.378 92.6547 219.51C92.3467 219.642 91.9654 219.708 91.5107 219.708ZM90.0807 216.133H92.7317C92.7097 215.678 92.574 215.341 92.3247 215.121C92.0754 214.901 91.782 214.791 91.4447 214.791C91.0707 214.791 90.759 214.912 90.5097 215.154C90.2604 215.389 90.1174 215.715 90.0807 216.133Z" fill="#101014"/>
</svg>
