<svg width="100" height="226" viewBox="0 0 100 226" fill="none" xmlns="http://www.w3.org/2000/svg">
<rect y="0.5979" width="100" height="100" rx="50" fill="#E3E3E2"/>
<path d="M50.1377 69.0962C47.5527 69.0962 45.1236 68.6012 42.8594 67.6204C40.5952 66.6304 38.6244 65.3012 36.9377 63.6146C35.2511 61.9279 33.9219 59.9571 32.9319 57.6929C31.9419 55.4287 31.4561 52.9996 31.4561 50.4146C31.4561 45.8862 32.9044 41.8896 35.8011 38.4521C38.6977 35.0054 42.3736 32.8696 46.8377 32.0446C46.3336 35.0604 46.5169 38.0212 47.3786 40.9271C48.2494 43.8329 49.7711 46.3721 51.9527 48.5537C54.1252 50.7262 56.6644 52.2571 59.5702 53.1371C62.4761 54.0171 65.4552 54.2187 68.4894 53.7512C67.6919 58.2062 65.5652 61.8729 62.1094 64.7604C58.6627 67.6479 54.6661 69.0962 50.1377 69.0962ZM62.0544 44.6304L60.0286 40.1021L55.5186 38.0854L60.0286 36.0596L62.0544 31.5496L64.0619 36.0596L68.5811 38.0854L64.0619 40.1021L62.0544 44.6304Z" fill="black"/>
<path d="M41.667 152.473V139.973L50.0003 133.723L58.3337 139.973V152.473H52.0837V145.181H47.917V152.473H41.667Z" fill="#F26B43"/>
<path d="M39.61 194.948C37.9767 194.948 36.495 194.656 35.165 194.073C33.8583 193.466 32.75 192.591 31.84 191.448L34.57 188.718C35.06 189.465 35.7483 190.06 36.635 190.503C37.5217 190.946 38.49 191.168 39.54 191.168C40.5433 191.168 41.4067 190.981 42.13 190.608C42.8533 190.235 43.4133 189.71 43.81 189.033C44.23 188.356 44.44 187.575 44.44 186.688C44.44 185.755 44.23 184.961 43.81 184.308C43.4133 183.655 42.83 183.153 42.06 182.803C41.3133 182.43 40.4033 182.243 39.33 182.243C38.91 182.243 38.4783 182.278 38.035 182.348C37.5917 182.395 37.195 182.476 36.845 182.593L38.63 180.283C39.12 180.096 39.6333 179.945 40.17 179.828C40.73 179.688 41.2667 179.618 41.78 179.618C43.04 179.618 44.1717 179.921 45.175 180.528C46.2017 181.135 47.0067 181.986 47.59 183.083C48.1967 184.156 48.5 185.428 48.5 186.898C48.5 188.485 48.1267 189.885 47.38 191.098C46.6333 192.311 45.595 193.256 44.265 193.933C42.935 194.61 41.3833 194.948 39.61 194.948ZM36.845 182.593V180.213L43.39 172.583L48.22 172.478L41.395 180.318L36.845 182.593ZM33.065 173.703V170.098H48.22V172.478L44.755 173.703H33.065ZM58.5464 194.948C56.843 194.948 55.3264 194.656 53.9964 194.073C52.6664 193.466 51.5464 192.591 50.6364 191.448L53.3664 188.718C53.8564 189.465 54.5447 190.06 55.4314 190.503C56.3414 190.946 57.3564 191.168 58.4764 191.168C59.503 191.168 60.4014 190.981 61.1714 190.608C61.9414 190.235 62.548 189.698 62.9914 188.998C63.4347 188.298 63.6564 187.47 63.6564 186.513C63.6564 185.51 63.4347 184.681 62.9914 184.028C62.5714 183.351 61.9997 182.85 61.2764 182.523C60.5764 182.173 59.818 181.998 59.0014 181.998C58.068 181.998 57.228 182.103 56.4814 182.313C55.758 182.523 55.0464 182.896 54.3464 183.433L54.4514 180.913C54.8247 180.423 55.2564 180.026 55.7464 179.723C56.2364 179.396 56.808 179.151 57.4614 178.988C58.1147 178.825 58.8847 178.743 59.7714 178.743C61.498 178.743 62.9447 179.105 64.1114 179.828C65.3014 180.551 66.1997 181.52 66.8064 182.733C67.413 183.923 67.7164 185.253 67.7164 186.723C67.7164 188.31 67.3197 189.721 66.5264 190.958C65.7564 192.195 64.683 193.175 63.3064 193.898C61.9297 194.598 60.343 194.948 58.5464 194.948ZM54.3464 183.433L52.1414 181.228L53.2264 170.098H56.9014L55.6414 181.683L54.3464 183.433ZM53.9264 173.703L53.2264 170.098H66.3514V173.703H53.9264Z" fill="#333333"/>
<path d="M4.77638 219.598V211.458H6.14038L9.88038 216.98V211.458H11.3654V219.598H10.0014L6.26138 214.175V219.598H4.77638ZM13.7212 212.866C13.4645 212.866 13.2518 212.782 13.0832 212.613C12.9218 212.444 12.8412 212.243 12.8412 212.008C12.8412 211.773 12.9218 211.572 13.0832 211.403C13.2518 211.234 13.4645 211.15 13.7212 211.15C13.9778 211.15 14.1905 211.234 14.3592 211.403C14.5278 211.572 14.6122 211.773 14.6122 212.008C14.6122 212.243 14.5278 212.444 14.3592 212.613C14.1905 212.782 13.9778 212.866 13.7212 212.866ZM12.9952 219.598V213.768H14.4582V219.598H12.9952ZM18.9039 221.93C18.3832 221.93 17.9506 221.86 17.6059 221.721C17.2686 221.589 17.0009 221.424 16.8029 221.226C16.6049 221.035 16.4582 220.841 16.3629 220.643C16.2676 220.445 16.2052 220.28 16.1759 220.148C16.1466 220.016 16.1319 219.95 16.1319 219.95H17.5619C17.5619 219.95 17.5766 219.99 17.6059 220.071C17.6352 220.152 17.6939 220.243 17.7819 220.346C17.8772 220.456 18.0129 220.551 18.1889 220.632C18.3649 220.713 18.5996 220.753 18.8929 220.753C19.4062 220.753 19.7766 220.606 20.0039 220.313C20.2312 220.02 20.3449 219.664 20.3449 219.246V218.597H20.2789C20.1982 218.722 20.0809 218.857 19.9269 219.004C19.7802 219.151 19.5859 219.275 19.3439 219.378C19.1092 219.481 18.8232 219.532 18.4859 219.532C18.0532 219.532 17.6756 219.448 17.3529 219.279C17.0302 219.11 16.7589 218.887 16.5389 218.608C16.3189 218.329 16.1539 218.018 16.0439 217.673C15.9412 217.321 15.8899 216.962 15.8899 216.595C15.8899 216.228 15.9412 215.873 16.0439 215.528C16.1539 215.176 16.3189 214.861 16.5389 214.582C16.7589 214.296 17.0302 214.072 17.3529 213.911C17.6756 213.742 18.0532 213.658 18.4859 213.658C18.8232 213.658 19.1092 213.709 19.3439 213.812C19.5859 213.915 19.7802 214.039 19.9269 214.186C20.0809 214.325 20.1982 214.457 20.2789 214.582H20.3449V213.768H21.8079V219.235C21.8079 219.741 21.7016 220.196 21.4889 220.599C21.2762 221.01 20.9536 221.332 20.5209 221.567C20.0956 221.809 19.5566 221.93 18.9039 221.93ZM18.8709 218.355C19.2009 218.355 19.4759 218.271 19.6959 218.102C19.9159 217.926 20.0809 217.706 20.1909 217.442C20.3009 217.171 20.3559 216.888 20.3559 216.595C20.3559 216.294 20.3009 216.012 20.1909 215.748C20.0809 215.477 19.9159 215.257 19.6959 215.088C19.4759 214.919 19.2009 214.835 18.8709 214.835C18.5336 214.835 18.2512 214.919 18.0239 215.088C17.8039 215.257 17.6389 215.477 17.5289 215.748C17.4189 216.012 17.3639 216.294 17.3639 216.595C17.3639 216.888 17.4189 217.171 17.5289 217.442C17.6389 217.706 17.8039 217.926 18.0239 218.102C18.2512 218.271 18.5336 218.355 18.8709 218.355ZM23.2852 219.598V211.238H24.7482V214.604H24.8142C24.8728 214.501 24.9645 214.377 25.0892 214.23C25.2138 214.076 25.3862 213.944 25.6062 213.834C25.8262 213.717 26.1048 213.658 26.4422 213.658C26.8895 213.658 27.2562 213.761 27.5422 213.966C27.8355 214.164 28.0518 214.428 28.1912 214.758C28.3378 215.088 28.4112 215.444 28.4112 215.825V219.598H26.9482V216.023C26.9482 215.708 26.8602 215.436 26.6842 215.209C26.5082 214.982 26.2442 214.868 25.8922 214.868C25.6208 214.868 25.4008 214.938 25.2322 215.077C25.0635 215.209 24.9388 215.381 24.8582 215.594C24.7848 215.807 24.7482 216.03 24.7482 216.265V219.598H23.2852ZM32.271 219.708C31.875 219.708 31.5486 219.649 31.292 219.532C31.0353 219.415 30.8336 219.261 30.687 219.07C30.5476 218.879 30.4486 218.67 30.39 218.443C30.3313 218.216 30.302 217.992 30.302 217.772V214.945H29.301V213.768H30.302V212.316H31.765V213.768H33.074V214.945H31.765V217.739C31.765 218.26 32.0583 218.52 32.645 218.52C32.7843 218.52 32.9126 218.513 33.03 218.498C33.1546 218.476 33.217 218.465 33.217 218.465V219.609C33.217 219.609 33.1216 219.624 32.931 219.653C32.7476 219.69 32.5276 219.708 32.271 219.708ZM36.7655 219.708C36.2888 219.708 35.8965 219.646 35.5885 219.521C35.2805 219.389 35.0348 219.228 34.8515 219.037C34.6755 218.839 34.5435 218.645 34.4555 218.454C34.3675 218.263 34.3088 218.106 34.2795 217.981C34.2575 217.849 34.2465 217.783 34.2465 217.783H35.6325C35.6325 217.783 35.6435 217.823 35.6655 217.904C35.6948 217.985 35.7462 218.08 35.8195 218.19C35.9002 218.293 36.0212 218.384 36.1825 218.465C36.3438 218.546 36.5565 218.586 36.8205 218.586C37.1358 218.586 37.3632 218.52 37.5025 218.388C37.6418 218.249 37.7115 218.095 37.7115 217.926C37.7115 217.765 37.6492 217.636 37.5245 217.541C37.4072 217.438 37.2312 217.361 36.9965 217.31L36.1935 217.145C35.8708 217.079 35.5702 216.984 35.2915 216.859C35.0128 216.727 34.7855 216.551 34.6095 216.331C34.4335 216.104 34.3455 215.814 34.3455 215.462C34.3455 214.941 34.5435 214.512 34.9395 214.175C35.3355 213.83 35.8745 213.658 36.5565 213.658C36.9892 213.658 37.3448 213.717 37.6235 213.834C37.9095 213.951 38.1368 214.098 38.3055 214.274C38.4815 214.45 38.6098 214.626 38.6905 214.802C38.7785 214.978 38.8335 215.128 38.8555 215.253C38.8848 215.37 38.8995 215.429 38.8995 215.429H37.5575C37.5575 215.429 37.5465 215.396 37.5245 215.33C37.5025 215.257 37.4548 215.176 37.3815 215.088C37.3155 215 37.2128 214.923 37.0735 214.857C36.9415 214.784 36.7618 214.747 36.5345 214.747C36.2265 214.747 36.0065 214.813 35.8745 214.945C35.7498 215.077 35.6875 215.216 35.6875 215.363C35.6875 215.524 35.7572 215.649 35.8965 215.737C36.0358 215.825 36.2155 215.891 36.4355 215.935L37.1945 216.1C37.7372 216.21 38.1808 216.401 38.5255 216.672C38.8775 216.943 39.0535 217.336 39.0535 217.849C39.0535 218.194 38.9618 218.509 38.7785 218.795C38.6025 219.074 38.3422 219.297 37.9975 219.466C37.6602 219.627 37.2495 219.708 36.7655 219.708ZM42.4504 219.598L45.2554 211.458H47.2024L50.0184 219.598H48.4564L47.8734 217.882H44.5954L44.0124 219.598H42.4504ZM45.0244 216.584H47.4444L46.2344 212.987L45.0244 216.584ZM51.1934 219.598L51.2044 211.238H52.6564V219.598H51.1934ZM54.2441 219.598L54.2551 211.238H55.7071V219.598H54.2441ZM60.046 219.708C59.408 219.708 58.8653 219.565 58.418 219.279C57.9706 218.993 57.6296 218.623 57.395 218.168C57.1676 217.706 57.054 217.211 57.054 216.683C57.054 216.155 57.1676 215.664 57.395 215.209C57.6296 214.747 57.9706 214.373 58.418 214.087C58.8653 213.801 59.408 213.658 60.046 213.658C60.6913 213.658 61.234 213.801 61.674 214.087C62.1213 214.373 62.4586 214.747 62.686 215.209C62.9206 215.664 63.038 216.155 63.038 216.683C63.038 217.211 62.9206 217.706 62.686 218.168C62.4586 218.623 62.1213 218.993 61.674 219.279C61.234 219.565 60.6913 219.708 60.046 219.708ZM60.046 218.487C60.376 218.487 60.651 218.403 60.871 218.234C61.0983 218.065 61.2706 217.845 61.388 217.574C61.5053 217.295 61.564 216.998 61.564 216.683C61.564 216.36 61.5053 216.063 61.388 215.792C61.2706 215.521 61.0983 215.301 60.871 215.132C60.651 214.963 60.376 214.879 60.046 214.879C59.7233 214.879 59.4483 214.963 59.221 215.132C58.9936 215.301 58.8213 215.521 58.704 215.792C58.5866 216.063 58.528 216.36 58.528 216.683C58.528 216.998 58.5866 217.295 58.704 217.574C58.8213 217.845 58.9936 218.065 59.221 218.234C59.4483 218.403 59.7233 218.487 60.046 218.487ZM67.157 219.708C66.6584 219.708 66.222 219.624 65.848 219.455C65.474 219.279 65.1624 219.048 64.913 218.762C64.6637 218.469 64.4767 218.142 64.352 217.783C64.2347 217.424 64.176 217.057 64.176 216.683C64.176 216.309 64.2347 215.942 64.352 215.583C64.4767 215.224 64.66 214.901 64.902 214.615C65.1514 214.322 65.463 214.091 65.837 213.922C66.211 213.746 66.651 213.658 67.157 213.658C67.6557 213.658 68.07 213.731 68.4 213.878C68.73 214.025 68.9904 214.208 69.181 214.428C69.379 214.648 69.5257 214.868 69.621 215.088C69.7164 215.301 69.7787 215.48 69.808 215.627C69.8374 215.774 69.852 215.847 69.852 215.847H68.477C68.477 215.847 68.4624 215.799 68.433 215.704C68.4037 215.601 68.345 215.484 68.257 215.352C68.169 215.22 68.037 215.103 67.861 215C67.6924 214.897 67.465 214.846 67.179 214.846C66.8417 214.846 66.5557 214.934 66.321 215.11C66.0937 215.279 65.9214 215.502 65.804 215.781C65.6867 216.06 65.628 216.36 65.628 216.683C65.628 217.006 65.6867 217.306 65.804 217.585C65.9214 217.864 66.0937 218.091 66.321 218.267C66.5557 218.436 66.8417 218.52 67.179 218.52C67.465 218.52 67.6924 218.469 67.861 218.366C68.037 218.263 68.169 218.146 68.257 218.014C68.345 217.882 68.4037 217.768 68.433 217.673C68.4624 217.57 68.477 217.519 68.477 217.519H69.852C69.852 217.519 69.8374 217.592 69.808 217.739C69.7787 217.886 69.7164 218.069 69.621 218.289C69.5257 218.502 69.379 218.718 69.181 218.938C68.9904 219.158 68.73 219.341 68.4 219.488C68.07 219.635 67.6557 219.708 67.157 219.708ZM73.5823 213.658C73.9563 213.658 74.2643 213.72 74.5063 213.845C74.7483 213.962 74.939 214.094 75.0783 214.241C75.2177 214.38 75.313 214.494 75.3643 214.582H75.4303V213.768H76.8933V219.598H75.4303V218.784H75.3643C75.313 218.872 75.2177 218.989 75.0783 219.136C74.939 219.283 74.7483 219.415 74.5063 219.532C74.2643 219.649 73.9563 219.708 73.5823 219.708C73.1497 219.708 72.772 219.624 72.4493 219.455C72.1267 219.279 71.8553 219.048 71.6353 218.762C71.4227 218.469 71.2613 218.142 71.1513 217.783C71.0487 217.424 70.9973 217.057 70.9973 216.683C70.9973 216.309 71.0487 215.942 71.1513 215.583C71.2613 215.224 71.4227 214.901 71.6353 214.615C71.8553 214.322 72.1267 214.091 72.4493 213.922C72.772 213.746 73.1497 213.658 73.5823 213.658ZM73.9673 214.857C73.6373 214.857 73.3587 214.949 73.1313 215.132C72.9113 215.308 72.7463 215.535 72.6363 215.814C72.5263 216.093 72.4713 216.382 72.4713 216.683C72.4713 216.984 72.5263 217.273 72.6363 217.552C72.7463 217.831 72.9113 218.062 73.1313 218.245C73.3587 218.421 73.6373 218.509 73.9673 218.509C74.2973 218.509 74.5723 218.421 74.7923 218.245C75.0123 218.062 75.1773 217.831 75.2873 217.552C75.3973 217.273 75.4523 216.984 75.4523 216.683C75.4523 216.382 75.3973 216.093 75.2873 215.814C75.1773 215.535 75.0123 215.308 74.7923 215.132C74.5723 214.949 74.2973 214.857 73.9673 214.857ZM80.7612 219.708C80.3652 219.708 80.0389 219.649 79.7822 219.532C79.5255 219.415 79.3239 219.261 79.1772 219.07C79.0379 218.879 78.9389 218.67 78.8802 218.443C78.8215 218.216 78.7922 217.992 78.7922 217.772V214.945H77.7912V213.768H78.7922V212.316H80.2552V213.768H81.5642V214.945H80.2552V217.739C80.2552 218.26 80.5485 218.52 81.1352 218.52C81.2745 218.52 81.4029 218.513 81.5202 218.498C81.6449 218.476 81.7072 218.465 81.7072 218.465V219.609C81.7072 219.609 81.6119 219.624 81.4212 219.653C81.2379 219.69 81.0179 219.708 80.7612 219.708ZM85.5888 219.708C85.0902 219.708 84.6575 219.624 84.2908 219.455C83.9315 219.279 83.6308 219.048 83.3888 218.762C83.1542 218.469 82.9782 218.142 82.8608 217.783C82.7435 217.424 82.6848 217.057 82.6848 216.683C82.6848 216.309 82.7398 215.946 82.8498 215.594C82.9672 215.235 83.1395 214.908 83.3668 214.615C83.6015 214.322 83.8985 214.091 84.2578 213.922C84.6172 213.746 85.0425 213.658 85.5338 213.658C86.0618 213.658 86.5275 213.775 86.9308 214.01C87.3342 214.245 87.6495 214.589 87.8768 215.044C88.1042 215.491 88.2178 216.049 88.2178 216.716V217.09H84.1588C84.1808 217.486 84.3165 217.831 84.5658 218.124C84.8152 218.41 85.1562 218.553 85.5888 218.553C85.8382 218.553 86.0435 218.513 86.2048 218.432C86.3662 218.351 86.4908 218.26 86.5788 218.157C86.6668 218.047 86.7292 217.955 86.7658 217.882C86.8025 217.801 86.8208 217.761 86.8208 217.761H88.1738C88.1738 217.761 88.1555 217.827 88.1188 217.959C88.0822 218.084 88.0125 218.245 87.9098 218.443C87.8145 218.634 87.6715 218.828 87.4808 219.026C87.2902 219.217 87.0408 219.378 86.7328 219.51C86.4248 219.642 86.0435 219.708 85.5888 219.708ZM84.1588 216.133H86.8098C86.7878 215.678 86.6522 215.341 86.4028 215.121C86.1535 214.901 85.8602 214.791 85.5228 214.791C85.1488 214.791 84.8372 214.912 84.5878 215.154C84.3385 215.389 84.1955 215.715 84.1588 216.133ZM91.9407 219.708C91.5081 219.708 91.1304 219.624 90.8077 219.455C90.4851 219.279 90.2137 219.048 89.9937 218.762C89.7811 218.469 89.6197 218.142 89.5097 217.783C89.4071 217.424 89.3557 217.057 89.3557 216.683C89.3557 216.309 89.4071 215.942 89.5097 215.583C89.6197 215.224 89.7811 214.901 89.9937 214.615C90.2137 214.322 90.4851 214.091 90.8077 213.922C91.1304 213.746 91.5081 213.658 91.9407 213.658C92.3147 213.658 92.6227 213.72 92.8647 213.845C93.1067 213.962 93.2974 214.094 93.4367 214.241C93.5761 214.38 93.6714 214.494 93.7227 214.582H93.7887V211.238H95.2517V219.598H93.7887V218.784H93.7227C93.6714 218.872 93.5761 218.989 93.4367 219.136C93.2974 219.283 93.1067 219.415 92.8647 219.532C92.6227 219.649 92.3147 219.708 91.9407 219.708ZM92.3257 218.509C92.6557 218.509 92.9307 218.421 93.1507 218.245C93.3707 218.062 93.5357 217.831 93.6457 217.552C93.7557 217.273 93.8107 216.984 93.8107 216.683C93.8107 216.382 93.7557 216.093 93.6457 215.814C93.5357 215.535 93.3707 215.308 93.1507 215.132C92.9307 214.949 92.6557 214.857 92.3257 214.857C91.9957 214.857 91.7171 214.949 91.4897 215.132C91.2697 215.308 91.1047 215.535 90.9947 215.814C90.8847 216.093 90.8297 216.382 90.8297 216.683C90.8297 216.984 90.8847 217.273 90.9947 217.552C91.1047 217.831 91.2697 218.062 91.4897 218.245C91.7171 218.421 91.9957 218.509 92.3257 218.509Z" fill="#101014"/>
</svg>
