<svg width="100" height="226" viewBox="0 0 100 226" fill="none" xmlns="http://www.w3.org/2000/svg">
<rect y="0.5979" width="100" height="100" rx="50" fill="#E3E3E2"/>
<path d="M24.667 73.9313H22.1337L20.5003 67.2647H16.667V49.4313C16.667 47.998 17.1337 46.7647 18.0837 45.7646C19.0337 44.7646 20.217 44.2647 21.667 44.2647H23.8337V32.2646C23.8337 30.898 24.317 29.7146 25.3003 28.7313C26.2837 27.748 27.467 27.2646 28.8337 27.2646H71.0837C72.467 27.2646 73.6337 27.748 74.617 28.7313C75.6003 29.7146 76.0837 30.8813 76.0837 32.2646V44.2647H78.3337C79.717 44.2647 80.8837 44.748 81.867 45.7313C82.8503 46.7146 83.3337 47.898 83.3337 49.2647V67.2647H79.5003L77.8503 73.9313H75.317L73.667 67.2647H26.417L24.667 73.9313ZM52.5003 44.2647H71.0837V32.2646H52.5003V44.2647ZM28.8337 44.2647H47.5003V32.2646H28.8337V44.2647Z" fill="black"/>
<path d="M38.542 150.389V135.181H40.1045V145.442H49.2712V137.369H57.6566C58.6982 137.369 59.5837 137.733 60.3128 138.462C61.042 139.192 61.4066 140.077 61.4066 141.119V150.389H59.8441V147.004H40.1045V150.389H38.542ZM44.5316 143.879C43.7503 143.879 43.0732 143.619 42.5524 143.098C42.0316 142.577 41.7712 141.9 41.7712 141.119C41.7712 140.337 42.0316 139.66 42.5524 139.139C43.0732 138.619 43.7503 138.358 44.5316 138.358C45.3128 138.358 45.9899 138.619 46.5107 139.139C47.0316 139.66 47.292 140.337 47.292 141.119C47.292 141.9 47.0316 142.577 46.5107 143.098C45.9899 143.619 45.3128 143.879 44.5316 143.879ZM50.8337 145.442H59.8962V141.171C59.8962 140.546 59.6878 140.025 59.2712 139.608C58.8545 139.192 58.3337 138.983 57.7087 138.983H50.8337V145.442ZM44.5316 142.317C44.8441 142.317 45.1566 142.212 45.3649 141.952C45.5732 141.692 45.7295 141.431 45.7295 141.119C45.7295 140.806 45.6253 140.494 45.3649 140.285C45.1045 140.077 44.8441 139.921 44.5316 139.921C44.2191 139.921 43.9066 140.025 43.6982 140.285C43.4899 140.546 43.3337 140.806 43.3337 141.119C43.3337 141.431 43.4378 141.744 43.6982 141.952C43.9587 142.16 44.2191 142.317 44.5316 142.317ZM44.5316 142.317C44.2191 142.317 43.9066 142.212 43.6982 141.952C43.4899 141.692 43.3337 141.431 43.3337 141.119C43.3337 140.806 43.4378 140.494 43.6982 140.285C43.9587 140.077 44.2191 139.921 44.5316 139.921C44.8441 139.921 45.1566 140.025 45.3649 140.285C45.5732 140.546 45.7295 140.806 45.7295 141.119C45.7295 141.431 45.6253 141.744 45.3649 141.952C45.1045 142.16 44.8441 142.317 44.5316 142.317ZM50.8337 138.931H57.6566C58.2816 138.931 58.8024 139.139 59.2191 139.556C59.6357 139.973 59.8441 140.494 59.8441 141.119V145.389H50.8337V138.931Z" fill="#F26B43"/>
<path d="M49.5913 194.598V170.098H53.5463V194.598H49.5913ZM44.6913 173.703V170.098H53.1963V173.703H44.6913Z" fill="#333333"/>
<path d="M25.792 219.598V211.458H29.345C29.8657 211.458 30.3093 211.55 30.676 211.733C31.0427 211.916 31.3213 212.162 31.512 212.47C31.71 212.778 31.809 213.115 31.809 213.482C31.809 213.856 31.7393 214.164 31.6 214.406C31.468 214.648 31.3067 214.839 31.116 214.978C30.9327 215.11 30.764 215.202 30.61 215.253V215.33C30.8007 215.381 31.0133 215.48 31.248 215.627C31.49 215.774 31.699 215.983 31.875 216.254C32.051 216.518 32.139 216.863 32.139 217.288C32.139 217.669 32.0473 218.04 31.864 218.399C31.6807 218.751 31.391 219.041 30.995 219.268C30.599 219.488 30.0747 219.598 29.422 219.598H25.792ZM29.147 212.723H27.288V214.846H29.147C29.5723 214.846 29.8803 214.74 30.071 214.527C30.2617 214.314 30.357 214.065 30.357 213.779C30.357 213.5 30.2617 213.255 30.071 213.042C29.8803 212.829 29.5723 212.723 29.147 212.723ZM29.257 215.99H27.288V218.333H29.257C29.741 218.333 30.093 218.216 30.313 217.981C30.533 217.746 30.643 217.471 30.643 217.156C30.643 216.848 30.533 216.577 30.313 216.342C30.093 216.107 29.741 215.99 29.257 215.99ZM36.1787 219.708C35.68 219.708 35.2473 219.624 34.8807 219.455C34.5213 219.279 34.2207 219.048 33.9787 218.762C33.744 218.469 33.568 218.142 33.4507 217.783C33.3333 217.424 33.2747 217.057 33.2747 216.683C33.2747 216.309 33.3297 215.946 33.4397 215.594C33.557 215.235 33.7293 214.908 33.9567 214.615C34.1913 214.322 34.4883 214.091 34.8477 213.922C35.207 213.746 35.6323 213.658 36.1237 213.658C36.6517 213.658 37.1173 213.775 37.5207 214.01C37.924 214.245 38.2393 214.589 38.4667 215.044C38.694 215.491 38.8077 216.049 38.8077 216.716V217.09H34.7487C34.7707 217.486 34.9063 217.831 35.1557 218.124C35.405 218.41 35.746 218.553 36.1787 218.553C36.428 218.553 36.6333 218.513 36.7947 218.432C36.956 218.351 37.0807 218.26 37.1687 218.157C37.2567 218.047 37.319 217.955 37.3557 217.882C37.3923 217.801 37.4107 217.761 37.4107 217.761H38.7637C38.7637 217.761 38.7453 217.827 38.7087 217.959C38.672 218.084 38.6023 218.245 38.4997 218.443C38.4043 218.634 38.2613 218.828 38.0707 219.026C37.88 219.217 37.6307 219.378 37.3227 219.51C37.0147 219.642 36.6333 219.708 36.1787 219.708ZM34.7487 216.133H37.3997C37.3777 215.678 37.242 215.341 36.9927 215.121C36.7433 214.901 36.45 214.791 36.1127 214.791C35.7387 214.791 35.427 214.912 35.1777 215.154C34.9283 215.389 34.7853 215.715 34.7487 216.133ZM42.5306 219.708C42.0979 219.708 41.7202 219.624 41.3976 219.455C41.0749 219.279 40.8036 219.048 40.5836 218.762C40.3709 218.469 40.2096 218.142 40.0996 217.783C39.9969 217.424 39.9456 217.057 39.9456 216.683C39.9456 216.309 39.9969 215.942 40.0996 215.583C40.2096 215.224 40.3709 214.901 40.5836 214.615C40.8036 214.322 41.0749 214.091 41.3976 213.922C41.7202 213.746 42.0979 213.658 42.5306 213.658C42.9046 213.658 43.2126 213.72 43.4546 213.845C43.6966 213.962 43.8872 214.094 44.0266 214.241C44.1659 214.38 44.2612 214.494 44.3126 214.582H44.3786V211.238H45.8416V219.598H44.3786V218.784H44.3126C44.2612 218.872 44.1659 218.989 44.0266 219.136C43.8872 219.283 43.6966 219.415 43.4546 219.532C43.2126 219.649 42.9046 219.708 42.5306 219.708ZM42.9156 218.509C43.2456 218.509 43.5206 218.421 43.7406 218.245C43.9606 218.062 44.1256 217.831 44.2356 217.552C44.3456 217.273 44.4006 216.984 44.4006 216.683C44.4006 216.382 44.3456 216.093 44.2356 215.814C44.1256 215.535 43.9606 215.308 43.7406 215.132C43.5206 214.949 43.2456 214.857 42.9156 214.857C42.5856 214.857 42.3069 214.949 42.0796 215.132C41.8596 215.308 41.6946 215.535 41.5846 215.814C41.4746 216.093 41.4196 216.382 41.4196 216.683C41.4196 216.984 41.4746 217.273 41.5846 217.552C41.6946 217.831 41.8596 218.062 42.0796 218.245C42.3069 218.421 42.5856 218.509 42.9156 218.509ZM47.3168 219.598V213.768H48.7688V214.571H48.8238C48.9264 214.344 49.0951 214.135 49.3298 213.944C49.5644 213.753 49.9164 213.658 50.3858 213.658C50.5324 213.658 50.6534 213.669 50.7488 213.691C50.8441 213.706 50.8918 213.713 50.8918 213.713V215.132C50.8918 215.132 50.8368 215.125 50.7268 215.11C50.6241 215.095 50.4958 215.088 50.3418 215.088C49.8284 215.088 49.4398 215.231 49.1758 215.517C48.9118 215.803 48.7798 216.265 48.7798 216.903V219.598H47.3168ZM54.4854 219.708C53.8474 219.708 53.3047 219.565 52.8574 219.279C52.4101 218.993 52.0691 218.623 51.8344 218.168C51.6071 217.706 51.4934 217.211 51.4934 216.683C51.4934 216.155 51.6071 215.664 51.8344 215.209C52.0691 214.747 52.4101 214.373 52.8574 214.087C53.3047 213.801 53.8474 213.658 54.4854 213.658C55.1307 213.658 55.6734 213.801 56.1134 214.087C56.5607 214.373 56.8981 214.747 57.1254 215.209C57.3601 215.664 57.4774 216.155 57.4774 216.683C57.4774 217.211 57.3601 217.706 57.1254 218.168C56.8981 218.623 56.5607 218.993 56.1134 219.279C55.6734 219.565 55.1307 219.708 54.4854 219.708ZM54.4854 218.487C54.8154 218.487 55.0904 218.403 55.3104 218.234C55.5377 218.065 55.7101 217.845 55.8274 217.574C55.9447 217.295 56.0034 216.998 56.0034 216.683C56.0034 216.36 55.9447 216.063 55.8274 215.792C55.7101 215.521 55.5377 215.301 55.3104 215.132C55.0904 214.963 54.8154 214.879 54.4854 214.879C54.1627 214.879 53.8877 214.963 53.6604 215.132C53.4331 215.301 53.2607 215.521 53.1434 215.792C53.0261 216.063 52.9674 216.36 52.9674 216.683C52.9674 216.998 53.0261 217.295 53.1434 217.574C53.2607 217.845 53.4331 218.065 53.6604 218.234C53.8877 218.403 54.1627 218.487 54.4854 218.487ZM61.6075 219.708C60.9695 219.708 60.4268 219.565 59.9795 219.279C59.5322 218.993 59.1912 218.623 58.9565 218.168C58.7292 217.706 58.6155 217.211 58.6155 216.683C58.6155 216.155 58.7292 215.664 58.9565 215.209C59.1912 214.747 59.5322 214.373 59.9795 214.087C60.4268 213.801 60.9695 213.658 61.6075 213.658C62.2528 213.658 62.7955 213.801 63.2355 214.087C63.6828 214.373 64.0202 214.747 64.2475 215.209C64.4822 215.664 64.5995 216.155 64.5995 216.683C64.5995 217.211 64.4822 217.706 64.2475 218.168C64.0202 218.623 63.6828 218.993 63.2355 219.279C62.7955 219.565 62.2528 219.708 61.6075 219.708ZM61.6075 218.487C61.9375 218.487 62.2125 218.403 62.4325 218.234C62.6598 218.065 62.8322 217.845 62.9495 217.574C63.0668 217.295 63.1255 216.998 63.1255 216.683C63.1255 216.36 63.0668 216.063 62.9495 215.792C62.8322 215.521 62.6598 215.301 62.4325 215.132C62.2125 214.963 61.9375 214.879 61.6075 214.879C61.2848 214.879 61.0098 214.963 60.7825 215.132C60.5552 215.301 60.3828 215.521 60.2655 215.792C60.1482 216.063 60.0895 216.36 60.0895 216.683C60.0895 216.998 60.1482 217.295 60.2655 217.574C60.3828 217.845 60.5552 218.065 60.7825 218.234C61.0098 218.403 61.2848 218.487 61.6075 218.487ZM65.8363 219.598V213.768H67.2993V214.582H67.3543C67.4276 214.45 67.5303 214.314 67.6623 214.175C67.7943 214.028 67.963 213.907 68.1683 213.812C68.381 213.709 68.6413 213.658 68.9493 213.658C69.382 213.658 69.7376 213.761 70.0163 213.966C70.295 214.171 70.5003 214.435 70.6323 214.758H70.6543C70.801 214.479 71.0173 214.226 71.3033 213.999C71.5966 213.772 71.9853 213.658 72.4693 213.658C72.88 213.658 73.221 213.753 73.4923 213.944C73.771 214.127 73.9763 214.377 74.1083 214.692C74.2476 215.007 74.3173 215.348 74.3173 215.715V219.598H72.8543V216.023C72.8543 215.686 72.77 215.411 72.6013 215.198C72.44 214.978 72.198 214.868 71.8753 214.868C71.6186 214.868 71.4096 214.938 71.2483 215.077C71.0943 215.209 70.9806 215.378 70.9073 215.583C70.8413 215.788 70.8083 215.997 70.8083 216.21V219.598H69.3453V216.023C69.3453 215.686 69.2646 215.411 69.1033 215.198C68.942 214.978 68.6963 214.868 68.3663 214.868C68.1096 214.868 67.9006 214.938 67.7393 215.077C67.5853 215.209 67.4716 215.381 67.3983 215.594C67.3323 215.799 67.2993 216.005 67.2993 216.21V219.598H65.8363Z" fill="#101014"/>
</svg>
