<svg width="100" height="226" viewBox="0 0 100 226" fill="none" xmlns="http://www.w3.org/2000/svg">
<rect y="0.5979" width="100" height="100" rx="50" fill="#E3E3E2"/>
<path d="M51.1172 54.8977C50.9505 54.8144 50.7672 54.7644 50.5672 54.7644H49.3672V56.9144H50.5672C50.7672 56.9144 50.9505 56.8644 51.1172 56.7811C51.2839 56.6977 51.4172 56.5811 51.5172 56.4144C51.6172 56.2477 51.6672 56.0644 51.6672 55.8311C51.6672 55.6144 51.6172 55.4144 51.5172 55.2644C51.4172 55.0977 51.2839 54.9811 51.1172 54.8977Z" fill="black"/>
<path d="M62.1835 12.9978H44.6501C44.3668 12.9978 44.0835 13.1145 43.8835 13.3145L37.0501 20.1478C36.8501 20.3478 36.7335 20.6311 36.7335 20.9145V27.4645C36.7335 27.7478 36.8501 28.0311 37.0501 28.2478C37.4835 28.6811 38.1668 28.6645 38.6001 28.2478C40.7001 26.1311 42.4668 24.3645 44.8501 21.9645L44.8668 21.9478C45.3001 21.5311 45.9835 21.5478 46.4001 21.9645C49.6335 25.2145 51.7001 27.2978 55.0501 30.6645C55.2501 30.8645 55.3668 31.1478 55.3668 31.4311V38.8811C55.3668 39.3311 55.0001 39.7145 54.5335 39.7145H37.5501C37.1001 39.7145 36.7168 40.0811 36.7168 40.5478V87.3978C36.7168 87.8478 37.0835 88.2311 37.5501 88.2311H55.4835C55.7001 88.2311 55.9168 88.1478 56.0668 87.9811L63.0335 81.0145C63.1835 80.8645 63.2668 80.6478 63.2668 80.4311V14.0978C63.2668 13.4811 62.7835 12.9978 62.1835 12.9978ZM45.9168 60.3978C45.4168 60.7978 44.7168 60.9978 43.8335 60.9978C43.2335 60.9978 42.7001 60.8978 42.2668 60.6978C41.8335 60.4978 41.4335 60.1978 41.0668 59.7978L42.1335 58.7478C42.3668 59.0145 42.6335 59.2311 42.9168 59.3811C43.2001 59.5311 43.5501 59.5978 43.9168 59.5978C44.2668 59.5978 44.5335 59.5311 44.7335 59.4145C44.9335 59.2978 45.0168 59.1145 45.0168 58.8978C45.0168 58.6978 44.9501 58.5311 44.8335 58.4145C44.7168 58.2978 44.5501 58.1811 44.3335 58.0978C44.1335 58.0145 43.9001 57.9145 43.6501 57.8311C43.4001 57.7478 43.1501 57.6478 42.9168 57.5478C42.6835 57.4478 42.4501 57.2978 42.2501 57.1311C42.0501 56.9645 41.8835 56.7645 41.7501 56.5145C41.6168 56.2645 41.5668 55.9645 41.5668 55.5811C41.5668 55.1311 41.6835 54.7311 41.9001 54.4145C42.1168 54.0978 42.4168 53.8311 42.8168 53.6645C43.2001 53.4978 43.6501 53.4145 44.1668 53.4145C44.6835 53.4145 45.1501 53.4978 45.5835 53.6811C46.0168 53.8645 46.3668 54.1145 46.6501 54.4311L45.5835 55.4811C45.3668 55.2478 45.1335 55.0811 44.9168 54.9645C44.6835 54.8478 44.4335 54.7978 44.1501 54.7978C43.8668 54.7978 43.6335 54.8478 43.4668 54.9645C43.3001 55.0811 43.2168 55.2311 43.2168 55.4311C43.2168 55.6145 43.2835 55.7645 43.4001 55.8811C43.5335 55.9978 43.6835 56.0978 43.9001 56.1811C44.1001 56.2645 44.3335 56.3478 44.5835 56.4311C44.8335 56.5145 45.0835 56.6145 45.3168 56.7311C45.5668 56.8478 45.7835 56.9811 45.9835 57.1478C46.1835 57.3145 46.3501 57.5311 46.4835 57.7978C46.6168 58.0645 46.6668 58.3811 46.6668 58.7645C46.6835 59.4311 46.4168 59.9978 45.9168 60.3978ZM52.9668 57.0811C52.7501 57.4311 52.4501 57.6978 52.0668 57.8978C51.6835 58.0811 51.2668 58.1811 50.8001 58.1811H49.3501V60.8645H47.7168V53.4811H48.9668H49.3501H50.8001C51.2668 53.4811 51.6835 53.5811 52.0668 53.7645C52.4335 53.9478 52.7335 54.2145 52.9668 54.5811C53.1835 54.9311 53.3001 55.3478 53.3001 55.8311C53.3001 56.3145 53.1835 56.7311 52.9668 57.0811ZM58.8835 54.4145L56.4668 60.8811H54.7668L57.1001 54.8978H53.7835V53.5145H58.8835V54.4145Z" fill="black"/>
<path d="M46.8226 134.712H57.6559C58.0205 134.712 58.333 135.025 58.333 135.442V146.9C58.333 147.264 58.1768 147.681 57.9163 147.942L54.583 151.327C54.4788 151.431 54.2705 151.535 54.0622 151.535C53.6976 151.535 53.333 151.223 53.333 150.858V146.379C53.333 146.171 53.2809 146.014 53.1247 145.858C51.0413 143.775 49.7393 142.473 47.708 140.389C47.4476 140.129 46.9788 140.129 46.7184 140.389C45.208 141.9 44.1663 142.994 42.8122 144.296C42.3434 144.712 41.6143 144.4 41.6143 143.775V139.869C41.6143 139.608 41.7184 139.296 41.9268 139.087L45.9893 135.025C46.2497 134.817 46.5101 134.712 46.8226 134.712Z" fill="#F26B43"/>
<path d="M49.0981 194.948C47.3948 194.948 45.8781 194.656 44.5481 194.073C43.2181 193.466 42.0981 192.591 41.1881 191.448L43.9181 188.718C44.4081 189.465 45.0965 190.06 45.9831 190.503C46.8931 190.946 47.9081 191.168 49.0281 191.168C50.0548 191.168 50.9531 190.981 51.7231 190.608C52.4931 190.235 53.0998 189.698 53.5431 188.998C53.9865 188.298 54.2081 187.47 54.2081 186.513C54.2081 185.51 53.9865 184.681 53.5431 184.028C53.1231 183.351 52.5515 182.85 51.8281 182.523C51.1281 182.173 50.3698 181.998 49.5531 181.998C48.6198 181.998 47.7798 182.103 47.0331 182.313C46.3098 182.523 45.5981 182.896 44.8981 183.433L45.0031 180.913C45.3765 180.423 45.8081 180.026 46.2981 179.723C46.7881 179.396 47.3598 179.151 48.0131 178.988C48.6665 178.825 49.4365 178.743 50.3231 178.743C52.0498 178.743 53.4965 179.105 54.6631 179.828C55.8531 180.551 56.7515 181.52 57.3581 182.733C57.9648 183.923 58.2681 185.253 58.2681 186.723C58.2681 188.31 57.8715 189.721 57.0781 190.958C56.3081 192.195 55.2348 193.175 53.8581 193.898C52.4815 194.598 50.8948 194.948 49.0981 194.948ZM44.8981 183.433L42.6931 181.228L43.7781 170.098H47.4531L46.1931 181.683L44.8981 183.433ZM44.4781 173.703L43.7781 170.098H56.9031V173.703H44.4781Z" fill="#333333"/>
<path d="M10.1354 219.708C9.53404 219.708 8.98771 219.594 8.49638 219.367C8.00504 219.132 7.61638 218.78 7.33038 218.311C7.04438 217.842 6.90138 217.251 6.90138 216.54V211.458H8.39738V216.54C8.39738 217.039 8.53671 217.457 8.81538 217.794C9.10138 218.131 9.54138 218.3 10.1354 218.3C10.7367 218.3 11.1804 218.131 11.4664 217.794C11.7524 217.457 11.8954 217.039 11.8954 216.54V211.458H13.3804V216.54C13.3804 217.251 13.2374 217.842 12.9514 218.311C12.6654 218.78 12.2767 219.132 11.7854 219.367C11.3014 219.594 10.7514 219.708 10.1354 219.708ZM14.8588 219.598V213.768H16.3218V214.604H16.3878C16.4464 214.501 16.5381 214.377 16.6628 214.23C16.7874 214.076 16.9598 213.944 17.1798 213.834C17.3998 213.717 17.6784 213.658 18.0158 213.658C18.4631 213.658 18.8298 213.761 19.1158 213.966C19.4091 214.164 19.6254 214.428 19.7648 214.758C19.9114 215.088 19.9848 215.444 19.9848 215.825V219.598H18.5218V216.023C18.5218 215.708 18.4338 215.436 18.2578 215.209C18.0818 214.982 17.8178 214.868 17.4658 214.868C17.1944 214.868 16.9744 214.938 16.8058 215.077C16.6371 215.209 16.5124 215.381 16.4318 215.594C16.3584 215.807 16.3218 216.03 16.3218 216.265V219.598H14.8588ZM22.227 212.866C21.9704 212.866 21.7577 212.782 21.589 212.613C21.4277 212.444 21.347 212.243 21.347 212.008C21.347 211.773 21.4277 211.572 21.589 211.403C21.7577 211.234 21.9704 211.15 22.227 211.15C22.4837 211.15 22.6964 211.234 22.865 211.403C23.0337 211.572 23.118 211.773 23.118 212.008C23.118 212.243 23.0337 212.444 22.865 212.613C22.6964 212.782 22.4837 212.866 22.227 212.866ZM21.501 219.598V213.768H22.964V219.598H21.501ZM27.1128 219.708C26.7168 219.708 26.3904 219.649 26.1338 219.532C25.8771 219.415 25.6754 219.261 25.5288 219.07C25.3894 218.879 25.2904 218.67 25.2318 218.443C25.1731 218.216 25.1438 217.992 25.1438 217.772V214.945H24.1428V213.768H25.1438V212.316H26.6068V213.768H27.9158V214.945H26.6068V217.739C26.6068 218.26 26.9001 218.52 27.4868 218.52C27.6261 218.52 27.7544 218.513 27.8718 218.498C27.9964 218.476 28.0588 218.465 28.0588 218.465V219.609C28.0588 219.609 27.9634 219.624 27.7728 219.653C27.5894 219.69 27.3694 219.708 27.1128 219.708ZM31.6073 219.708C31.1306 219.708 30.7383 219.646 30.4303 219.521C30.1223 219.389 29.8766 219.228 29.6933 219.037C29.5173 218.839 29.3853 218.645 29.2973 218.454C29.2093 218.263 29.1506 218.106 29.1213 217.981C29.0993 217.849 29.0883 217.783 29.0883 217.783H30.4743C30.4743 217.783 30.4853 217.823 30.5073 217.904C30.5366 217.985 30.588 218.08 30.6613 218.19C30.742 218.293 30.863 218.384 31.0243 218.465C31.1856 218.546 31.3983 218.586 31.6623 218.586C31.9776 218.586 32.205 218.52 32.3443 218.388C32.4836 218.249 32.5533 218.095 32.5533 217.926C32.5533 217.765 32.491 217.636 32.3663 217.541C32.249 217.438 32.073 217.361 31.8383 217.31L31.0353 217.145C30.7126 217.079 30.412 216.984 30.1333 216.859C29.8546 216.727 29.6273 216.551 29.4513 216.331C29.2753 216.104 29.1873 215.814 29.1873 215.462C29.1873 214.941 29.3853 214.512 29.7813 214.175C30.1773 213.83 30.7163 213.658 31.3983 213.658C31.831 213.658 32.1866 213.717 32.4653 213.834C32.7513 213.951 32.9786 214.098 33.1473 214.274C33.3233 214.45 33.4516 214.626 33.5323 214.802C33.6203 214.978 33.6753 215.128 33.6973 215.253C33.7266 215.37 33.7413 215.429 33.7413 215.429H32.3993C32.3993 215.429 32.3883 215.396 32.3663 215.33C32.3443 215.257 32.2966 215.176 32.2233 215.088C32.1573 215 32.0546 214.923 31.9153 214.857C31.7833 214.784 31.6036 214.747 31.3763 214.747C31.0683 214.747 30.8483 214.813 30.7163 214.945C30.5916 215.077 30.5293 215.216 30.5293 215.363C30.5293 215.524 30.599 215.649 30.7383 215.737C30.8776 215.825 31.0573 215.891 31.2773 215.935L32.0363 216.1C32.579 216.21 33.0226 216.401 33.3673 216.672C33.7193 216.943 33.8953 217.336 33.8953 217.849C33.8953 218.194 33.8036 218.509 33.6203 218.795C33.4443 219.074 33.184 219.297 32.8393 219.466C32.502 219.627 32.0913 219.708 31.6073 219.708ZM40.4932 219.708C39.8552 219.708 39.3126 219.565 38.8652 219.279C38.4179 218.993 38.0769 218.623 37.8422 218.168C37.6149 217.706 37.5012 217.211 37.5012 216.683C37.5012 216.155 37.6149 215.664 37.8422 215.209C38.0769 214.747 38.4179 214.373 38.8652 214.087C39.3126 213.801 39.8552 213.658 40.4932 213.658C41.1386 213.658 41.6812 213.801 42.1212 214.087C42.5686 214.373 42.9059 214.747 43.1332 215.209C43.3679 215.664 43.4852 216.155 43.4852 216.683C43.4852 217.211 43.3679 217.706 43.1332 218.168C42.9059 218.623 42.5686 218.993 42.1212 219.279C41.6812 219.565 41.1386 219.708 40.4932 219.708ZM40.4932 218.487C40.8232 218.487 41.0982 218.403 41.3182 218.234C41.5456 218.065 41.7179 217.845 41.8352 217.574C41.9526 217.295 42.0112 216.998 42.0112 216.683C42.0112 216.36 41.9526 216.063 41.8352 215.792C41.7179 215.521 41.5456 215.301 41.3182 215.132C41.0982 214.963 40.8232 214.879 40.4932 214.879C40.1706 214.879 39.8956 214.963 39.6682 215.132C39.4409 215.301 39.2686 215.521 39.1512 215.792C39.0339 216.063 38.9752 216.36 38.9752 216.683C38.9752 216.998 39.0339 217.295 39.1512 217.574C39.2686 217.845 39.4409 218.065 39.6682 218.234C39.8956 218.403 40.1706 218.487 40.4932 218.487ZM45.3611 219.598V214.945H44.4261V213.768H45.3611V213.229C45.3611 213.009 45.3904 212.778 45.4491 212.536C45.5077 212.287 45.6067 212.056 45.7461 211.843C45.8927 211.63 46.0944 211.458 46.3511 211.326C46.6151 211.194 46.9451 211.128 47.3411 211.128C47.5611 211.128 47.7407 211.146 47.8801 211.183C48.0267 211.212 48.1001 211.227 48.1001 211.227V212.294C48.1001 212.294 48.0524 212.287 47.9571 212.272C47.8617 212.25 47.7591 212.239 47.6491 212.239C47.3337 212.239 47.1174 212.331 47.0001 212.514C46.8827 212.697 46.8241 212.936 46.8241 213.229V213.768H48.0671V214.945H46.8241V219.598H45.3611ZM52.7403 219.598C52.7696 218.916 52.8576 218.271 53.0043 217.662C53.1583 217.053 53.3453 216.492 53.5653 215.979C53.7926 215.458 54.0309 214.989 54.2803 214.571C54.5296 214.153 54.7643 213.794 54.9843 213.493C55.2116 213.185 55.4023 212.943 55.5563 212.767H51.4093V211.458H57.2173V212.536C57.2173 212.536 57.1476 212.613 57.0083 212.767C56.8763 212.914 56.7003 213.134 56.4803 213.427C56.2676 213.713 56.0366 214.065 55.7873 214.483C55.5379 214.894 55.2996 215.363 55.0723 215.891C54.8523 216.412 54.6616 216.984 54.5003 217.607C54.3463 218.23 54.2583 218.894 54.2363 219.598H52.7403ZM60.7172 219.598V213.768H62.1802V214.604H62.2462C62.3048 214.501 62.3965 214.377 62.5212 214.23C62.6458 214.076 62.8182 213.944 63.0382 213.834C63.2582 213.717 63.5368 213.658 63.8742 213.658C64.3215 213.658 64.6882 213.761 64.9742 213.966C65.2675 214.164 65.4838 214.428 65.6232 214.758C65.7698 215.088 65.8432 215.444 65.8432 215.825V219.598H64.3802V216.023C64.3802 215.708 64.2922 215.436 64.1162 215.209C63.9402 214.982 63.6762 214.868 63.3242 214.868C63.0528 214.868 62.8328 214.938 62.6642 215.077C62.4955 215.209 62.3708 215.381 62.2902 215.594C62.2168 215.807 62.1802 216.03 62.1802 216.265V219.598H60.7172ZM68.0854 212.866C67.8288 212.866 67.6161 212.782 67.4474 212.613C67.2861 212.444 67.2054 212.243 67.2054 212.008C67.2054 211.773 67.2861 211.572 67.4474 211.403C67.6161 211.234 67.8288 211.15 68.0854 211.15C68.3421 211.15 68.5548 211.234 68.7234 211.403C68.8921 211.572 68.9764 211.773 68.9764 212.008C68.9764 212.243 68.8921 212.444 68.7234 212.613C68.5548 212.782 68.3421 212.866 68.0854 212.866ZM67.3594 219.598V213.768H68.8224V219.598H67.3594ZM73.2682 221.93C72.7475 221.93 72.3148 221.86 71.9702 221.721C71.6328 221.589 71.3652 221.424 71.1672 221.226C70.9692 221.035 70.8225 220.841 70.7272 220.643C70.6318 220.445 70.5695 220.28 70.5402 220.148C70.5108 220.016 70.4962 219.95 70.4962 219.95H71.9262C71.9262 219.95 71.9408 219.99 71.9702 220.071C71.9995 220.152 72.0582 220.243 72.1462 220.346C72.2415 220.456 72.3772 220.551 72.5532 220.632C72.7292 220.713 72.9638 220.753 73.2572 220.753C73.7705 220.753 74.1408 220.606 74.3682 220.313C74.5955 220.02 74.7092 219.664 74.7092 219.246V218.597H74.6432C74.5625 218.722 74.4452 218.857 74.2912 219.004C74.1445 219.151 73.9502 219.275 73.7082 219.378C73.4735 219.481 73.1875 219.532 72.8502 219.532C72.4175 219.532 72.0398 219.448 71.7172 219.279C71.3945 219.11 71.1232 218.887 70.9032 218.608C70.6832 218.329 70.5182 218.018 70.4082 217.673C70.3055 217.321 70.2542 216.962 70.2542 216.595C70.2542 216.228 70.3055 215.873 70.4082 215.528C70.5182 215.176 70.6832 214.861 70.9032 214.582C71.1232 214.296 71.3945 214.072 71.7172 213.911C72.0398 213.742 72.4175 213.658 72.8502 213.658C73.1875 213.658 73.4735 213.709 73.7082 213.812C73.9502 213.915 74.1445 214.039 74.2912 214.186C74.4452 214.325 74.5625 214.457 74.6432 214.582H74.7092V213.768H76.1722V219.235C76.1722 219.741 76.0658 220.196 75.8532 220.599C75.6405 221.01 75.3178 221.332 74.8852 221.567C74.4598 221.809 73.9208 221.93 73.2682 221.93ZM73.2352 218.355C73.5652 218.355 73.8402 218.271 74.0602 218.102C74.2802 217.926 74.4452 217.706 74.5552 217.442C74.6652 217.171 74.7202 216.888 74.7202 216.595C74.7202 216.294 74.6652 216.012 74.5552 215.748C74.4452 215.477 74.2802 215.257 74.0602 215.088C73.8402 214.919 73.5652 214.835 73.2352 214.835C72.8978 214.835 72.6155 214.919 72.3882 215.088C72.1682 215.257 72.0032 215.477 71.8932 215.748C71.7832 216.012 71.7282 216.294 71.7282 216.595C71.7282 216.888 71.7832 217.171 71.8932 217.442C72.0032 217.706 72.1682 217.926 72.3882 218.102C72.6155 218.271 72.8978 218.355 73.2352 218.355ZM77.6494 219.598V211.238H79.1124V214.604H79.1784C79.2371 214.501 79.3288 214.377 79.4534 214.23C79.5781 214.076 79.7504 213.944 79.9704 213.834C80.1904 213.717 80.4691 213.658 80.8064 213.658C81.2538 213.658 81.6204 213.761 81.9064 213.966C82.1998 214.164 82.4161 214.428 82.5554 214.758C82.7021 215.088 82.7754 215.444 82.7754 215.825V219.598H81.3124V216.023C81.3124 215.708 81.2244 215.436 81.0484 215.209C80.8724 214.982 80.6084 214.868 80.2564 214.868C79.9851 214.868 79.7651 214.938 79.5964 215.077C79.4278 215.209 79.3031 215.381 79.2224 215.594C79.1491 215.807 79.1124 216.03 79.1124 216.265V219.598H77.6494ZM86.6352 219.708C86.2392 219.708 85.9129 219.649 85.6562 219.532C85.3996 219.415 85.1979 219.261 85.0512 219.07C84.9119 218.879 84.8129 218.67 84.7542 218.443C84.6956 218.216 84.6662 217.992 84.6662 217.772V214.945H83.6652V213.768H84.6662V212.316H86.1292V213.768H87.4382V214.945H86.1292V217.739C86.1292 218.26 86.4226 218.52 87.0092 218.52C87.1486 218.52 87.2769 218.513 87.3942 218.498C87.5189 218.476 87.5812 218.465 87.5812 218.465V219.609C87.5812 219.609 87.4859 219.624 87.2952 219.653C87.1119 219.69 86.8919 219.708 86.6352 219.708ZM91.1298 219.708C90.6531 219.708 90.2608 219.646 89.9528 219.521C89.6448 219.389 89.3991 219.228 89.2158 219.037C89.0398 218.839 88.9078 218.645 88.8197 218.454C88.7318 218.263 88.6731 218.106 88.6438 217.981C88.6218 217.849 88.6108 217.783 88.6108 217.783H89.9968C89.9968 217.783 90.0078 217.823 90.0298 217.904C90.0591 217.985 90.1104 218.08 90.1838 218.19C90.2644 218.293 90.3854 218.384 90.5468 218.465C90.7081 218.546 90.9208 218.586 91.1848 218.586C91.5001 218.586 91.7274 218.52 91.8668 218.388C92.0061 218.249 92.0758 218.095 92.0758 217.926C92.0758 217.765 92.0134 217.636 91.8888 217.541C91.7714 217.438 91.5954 217.361 91.3608 217.31L90.5578 217.145C90.2351 217.079 89.9344 216.984 89.6558 216.859C89.3771 216.727 89.1498 216.551 88.9738 216.331C88.7978 216.104 88.7098 215.814 88.7098 215.462C88.7098 214.941 88.9078 214.512 89.3038 214.175C89.6998 213.83 90.2388 213.658 90.9207 213.658C91.3534 213.658 91.7091 213.717 91.9878 213.834C92.2738 213.951 92.5011 214.098 92.6698 214.274C92.8458 214.45 92.9741 214.626 93.0548 214.802C93.1428 214.978 93.1978 215.128 93.2198 215.253C93.2491 215.37 93.2638 215.429 93.2638 215.429H91.9218C91.9218 215.429 91.9108 215.396 91.8888 215.33C91.8668 215.257 91.8191 215.176 91.7458 215.088C91.6798 215 91.5771 214.923 91.4378 214.857C91.3058 214.784 91.1261 214.747 90.8988 214.747C90.5908 214.747 90.3708 214.813 90.2388 214.945C90.1141 215.077 90.0518 215.216 90.0518 215.363C90.0518 215.524 90.1214 215.649 90.2608 215.737C90.4001 215.825 90.5798 215.891 90.7998 215.935L91.5588 216.1C92.1014 216.21 92.5451 216.401 92.8898 216.672C93.2418 216.943 93.4178 217.336 93.4178 217.849C93.4178 218.194 93.3261 218.509 93.1428 218.795C92.9668 219.074 92.7064 219.297 92.3618 219.466C92.0244 219.627 91.6138 219.708 91.1298 219.708Z" fill="#101014"/>
</svg>
