<svg width="32" height="32" viewBox="0 0 32 32" fill="none" xmlns="http://www.w3.org/2000/svg">
<path d="M3.086 18.2027C2.42139 18.2027 1.84293 17.9565 1.35062 17.4642C0.861388 16.975 0.615234 16.3965 0.615234 15.7319C0.615234 15.0673 0.861388 14.4889 1.3537 13.9965C1.846 13.5042 2.42447 13.2581 3.08908 13.2581C3.7537 13.2581 4.33216 13.5042 4.82447 13.9965C5.31677 14.4889 5.56293 15.0673 5.56293 15.7319C5.56293 16.3965 5.31677 16.975 4.82447 17.4673C4.32908 17.9565 3.75062 18.2027 3.086 18.2027ZM5.78139 28.3873L3.31062 25.9165L10.5783 18.6489L13.0491 21.1196L5.78139 28.3873ZM10.5752 12.7442L3.34447 5.51347L5.81523 3.0427L13.046 10.2735L10.5752 12.7442ZM15.9999 31.1165C15.3352 31.1165 14.7568 30.8704 14.2645 30.3781C13.7722 29.8858 13.526 29.3073 13.526 28.6427C13.526 27.9781 13.7722 27.3996 14.2645 26.9073C14.7568 26.415 15.3352 26.1689 15.9999 26.1689C16.6645 26.1689 17.2429 26.415 17.7352 26.9073C18.2275 27.3996 18.4737 27.9781 18.4737 28.6427C18.4737 29.3073 18.2275 29.8858 17.7352 30.3781C17.2429 30.8704 16.6645 31.1165 15.9999 31.1165ZM15.9999 5.29193C15.3352 5.29193 14.7568 5.04578 14.2645 4.55347C13.7722 4.06116 13.526 3.4827 13.526 2.81808C13.526 2.15347 13.7722 1.57501 14.2645 1.0827C14.7568 0.590392 15.3352 0.344238 15.9999 0.344238C16.6645 0.344238 17.2429 0.590392 17.7352 1.0827C18.2275 1.57501 18.4737 2.15347 18.4737 2.81808C18.4737 3.4827 18.2275 4.06116 17.7352 4.55347C17.2429 5.04578 16.6645 5.29193 15.9999 5.29193ZM21.4245 12.7442L18.9537 10.2735L26.1845 3.0427L28.6552 5.51347L21.4245 12.7442ZM26.1814 28.3504L18.9506 21.1196L21.4214 18.6489L28.6522 25.8796L26.1814 28.3504ZM28.9137 18.2027C28.2491 18.2027 27.6706 17.9565 27.1783 17.4642C26.686 16.9719 26.4399 16.3935 26.4399 15.7289C26.4399 15.0642 26.686 14.4858 27.1783 13.9935C27.6706 13.5012 28.2491 13.255 28.9137 13.255C29.5783 13.255 30.1568 13.5012 30.6491 13.9935C31.1414 14.4858 31.3875 15.0642 31.3875 15.7289C31.3875 16.3935 31.1414 16.9719 30.6491 17.4642C30.1537 17.9565 29.5752 18.2027 28.9137 18.2027Z" fill="black"/>
</svg>
