<svg width="32" height="32" viewBox="0 0 32 32" fill="none" xmlns="http://www.w3.org/2000/svg">
<path d="M15.6376 31.1166C13.533 31.1166 11.5484 30.7136 9.68072 29.9105C7.81302 29.1074 6.17918 28.012 4.78225 26.6243C3.38533 25.2397 2.28379 23.612 1.47764 21.7443C0.674561 19.8766 0.271484 17.8797 0.271484 15.7505C0.271484 13.6213 0.674561 11.6243 1.47764 9.75664C2.28071 7.88895 3.38225 6.26126 4.78225 4.87664C6.18225 3.49203 7.81302 2.39049 9.68072 1.57203C11.5484 0.753566 13.5453 0.347412 15.6746 0.347412C17.8038 0.347412 19.7946 0.756643 21.6499 1.57203C23.5053 2.38741 25.1269 3.48895 26.5115 4.87664C27.8961 6.26126 28.9976 7.88895 29.8161 9.75664C30.6315 11.6243 31.0407 13.6243 31.0407 15.7505C31.0407 17.8766 30.6376 19.8766 29.8346 21.7443C29.0315 23.612 27.9299 25.2397 26.5299 26.6243C25.133 28.0089 23.4992 29.1043 21.6315 29.9105C19.7638 30.7136 17.7669 31.1166 15.6376 31.1166ZM14.0776 28.1474V25.1043C13.213 25.1043 12.4869 24.7874 11.9053 24.1566C11.3238 23.5259 11.0346 22.7905 11.0346 21.9474V20.3166L3.5761 12.8551C3.45302 13.3505 3.36687 13.8274 3.31764 14.2828C3.26841 14.7413 3.24379 15.2182 3.24379 15.7105C3.24379 18.8766 4.27148 21.6489 6.32379 24.0243C8.3761 26.3997 10.9607 27.7751 14.0776 28.1474ZM24.8438 24.212C25.3638 23.6182 25.8223 22.9936 26.2161 22.3382C26.613 21.6828 26.9515 20.9905 27.2376 20.2582C27.5207 19.5289 27.733 18.7874 27.8684 18.0305C28.0038 17.2766 28.0715 16.5013 28.0715 15.7105C28.0715 13.1382 27.3669 10.7997 25.9546 8.6951C24.5423 6.59049 22.6623 5.05818 20.3115 4.09203V4.7228C20.3115 5.5628 20.013 6.30126 19.4192 6.93203C18.8253 7.5628 18.0961 7.87972 17.2284 7.87972H14.0776V11.0705C14.0776 11.492 13.9115 11.8366 13.5761 12.1105C13.2407 12.3813 12.8653 12.5197 12.4438 12.5197H9.43764V15.7105H18.8653C19.2869 15.7105 19.6315 15.8705 19.9053 16.1936C20.1761 16.5166 20.3146 16.8859 20.3146 17.3074V21.9474H21.8746C22.5669 21.9474 23.1853 22.1566 23.7299 22.5782C24.2746 22.9997 24.6438 23.5443 24.8438 24.212Z" fill="black"/>
</svg>
