<svg width="28" height="28" viewBox="0 0 28 28" fill="none" xmlns="http://www.w3.org/2000/svg">
<path d="M4.11262 27.2395C3.20185 27.2395 2.42339 26.9195 1.78339 26.2764C1.14031 25.6334 0.820312 24.858 0.820312 23.9472V3.55335C0.820312 2.64258 1.14031 1.86104 1.78339 1.20566C2.42647 0.550275 3.20185 0.224121 4.11262 0.224121H13.2572V27.2426H4.11262V27.2395ZM15.3619 27.2395V13.7134H27.8357V23.9472C27.8357 24.858 27.5095 25.6364 26.8542 26.2764C26.1988 26.9195 25.4172 27.2395 24.5065 27.2395H15.3619ZM15.3619 11.6118V0.224121H24.5065C25.4172 0.224121 26.1988 0.550275 26.8542 1.20566C27.5095 1.86104 27.8357 2.64258 27.8357 3.55335V11.6118H15.3619Z" fill="black"/>
</svg>
