<svg width="38" height="28" viewBox="0 0 38 28" fill="none" xmlns="http://www.w3.org/2000/svg">
<path d="M0.901367 27.295V22.5873C0.901367 21.4888 1.18137 20.5012 1.74444 19.6242C2.30752 18.7473 3.08906 18.0735 4.09214 17.6058C6.03675 16.775 7.80906 16.1658 9.40291 15.7781C10.9968 15.3904 12.6398 15.1935 14.3291 15.1935C16.0675 15.1935 17.7198 15.3812 19.2921 15.7565C20.8614 16.1319 22.6183 16.7504 24.566 17.6058C25.5598 18.0427 26.3475 18.7012 26.926 19.5781C27.5044 20.4581 27.7937 21.4581 27.7937 22.5842V27.295H0.901367ZM30.5598 27.295V22.6642C30.5598 20.9781 30.1506 19.5565 29.3352 18.4027C28.5198 17.2488 27.406 16.2027 26.006 15.2704C27.5875 15.5042 29.086 15.8088 30.5014 16.1842C31.9167 16.5596 33.0891 16.9812 34.0244 17.4488C34.9598 17.9412 35.7044 18.6519 36.2614 19.5812C36.8183 20.5104 37.0983 21.5781 37.0983 22.7812V27.295H30.5598ZM14.3383 12.8181C12.4644 12.8181 10.9414 12.2335 9.77521 11.0673C8.60906 9.90116 8.02444 8.375 8.02444 6.495C8.02444 4.615 8.60906 3.08885 9.77829 1.92269C10.9475 0.756541 12.4644 0.171925 14.3321 0.171925C16.1998 0.171925 17.7229 0.756541 18.9044 1.92577C20.086 3.095 20.6768 4.61193 20.6768 6.47962C20.6768 8.375 20.0891 9.90423 18.9168 11.0735C17.7383 12.2335 16.2152 12.8181 14.3383 12.8181ZM29.7814 6.47346C29.7814 8.34116 29.1906 9.86731 28.0121 11.0458C26.8337 12.2273 25.3044 12.8181 23.4275 12.8181C23.1137 12.8181 22.7968 12.7935 22.4768 12.7412C22.1568 12.6888 21.8152 12.5996 21.4521 12.4673C22.126 11.7658 22.6275 10.9135 22.9506 9.90423C23.2737 8.895 23.4368 7.75962 23.4368 6.49808C23.4368 5.23654 23.2737 4.11962 22.9444 3.14731C22.6152 2.175 22.1198 1.29808 21.4521 0.513464C21.7629 0.411926 22.0921 0.331925 22.4337 0.264233C22.7783 0.199618 23.1075 0.165771 23.4275 0.165771C25.2952 0.165771 26.8214 0.756541 28.006 1.93808C29.1875 3.12269 29.7814 4.63346 29.7814 6.47346Z" fill="black"/>
</svg>
