<svg width="32" height="35" viewBox="0 0 32 35" fill="none" xmlns="http://www.w3.org/2000/svg">
<path d="M12.0418 28.8149C8.96182 28.8149 6.34336 27.7411 4.18336 25.5903C2.02336 23.4426 0.943359 20.8272 0.943359 17.7472C0.943359 14.6672 2.02336 12.0487 4.18336 9.88875C6.34336 7.72875 8.96182 6.64875 12.0418 6.64875C15.1218 6.64875 17.7403 7.72875 19.9003 9.88875C22.0603 12.0487 23.1403 14.6672 23.1403 17.7472C23.1403 20.8272 22.0603 23.4395 19.9003 25.5903C17.7403 27.7411 15.1218 28.8149 12.0418 28.8149ZM10.6449 22.2672H13.4018V15.9872H16.0603V13.8949H7.98644V15.9872H10.6449V22.2672ZM26.2972 11.8672L24.6018 8.07952L20.848 6.41798L24.6018 4.7226L26.2972 0.96875L27.9587 4.7226L31.7126 6.41798L27.9587 8.07952L26.2972 11.8672ZM26.2972 34.4949L24.6018 30.7411L20.848 29.0457L24.6018 27.3841L26.2972 23.5964L27.9587 27.3841L31.7126 29.0457L27.9587 30.7411L26.2972 34.4949Z" fill="black"/>
</svg>
