<svg width="51" height="41" viewBox="0 0 51 41" fill="none" xmlns="http://www.w3.org/2000/svg">
<path d="M40.9531 22.5801V18.8301H50.3281V22.5801H40.9531ZM44.0781 40.7051L36.5156 35.0801L38.7656 32.0801L46.3281 37.7051L44.0781 40.7051ZM38.9531 9.26758L36.7031 6.26758L44.0781 0.705078L46.3281 3.70508L38.9531 9.26758ZM8.45312 38.2051V28.2051H4.07812C3.04063 28.2051 2.15313 27.8426 1.42813 27.1051C0.703125 26.3676 0.328125 25.4926 0.328125 24.4551V16.9551C0.328125 15.9176 0.690625 15.0301 1.42813 14.3051C2.16563 13.5801 3.04063 13.2051 4.07812 13.2051H15.3281L27.8281 5.70508V35.7051L15.3281 28.2051H12.2031V38.2051H8.45312ZM30.3281 29.0801V12.3301C31.4531 13.3301 32.3531 14.5426 33.0406 15.9801C33.7406 17.4301 34.0781 18.9926 34.0781 20.7051C34.0781 22.4176 33.7406 23.9801 33.0406 25.4176C32.3531 26.8676 31.4531 28.0801 30.3281 29.0801Z" fill="black"/>
</svg>
