<svg width="31" height="34" viewBox="0 0 31 34" fill="none" xmlns="http://www.w3.org/2000/svg">
<path d="M8.26264 20.9373C7.79126 20.9373 7.39612 20.7778 7.07724 20.459C6.75837 20.1401 6.59893 19.745 6.59893 19.2736C6.59893 18.8022 6.75837 18.407 7.07724 18.0882C7.39612 17.7693 7.79126 17.6099 8.26264 17.6099C8.73403 17.6099 9.12916 17.7693 9.44804 18.0882C9.76692 18.407 9.92636 18.8022 9.92636 19.2736C9.92636 19.745 9.76692 20.1401 9.44804 20.459C9.12916 20.7778 8.73403 20.9373 8.26264 20.9373ZM15.6246 20.9373C15.1532 20.9373 14.7581 20.7778 14.4392 20.459C14.1203 20.1401 13.9609 19.745 13.9609 19.2736C13.9609 18.8022 14.1203 18.407 14.4392 18.0882C14.7581 17.7693 15.1532 17.6099 15.6246 17.6099C16.096 17.6099 16.4911 17.7693 16.81 18.0882C17.1289 18.407 17.2883 18.8022 17.2883 19.2736C17.2883 19.745 17.1289 20.1401 16.81 20.459C16.4911 20.7778 16.096 20.9373 15.6246 20.9373ZM22.6954 20.9373C22.224 20.9373 21.8289 20.7778 21.51 20.459C21.1911 20.1401 21.0317 19.745 21.0317 19.2736C21.0317 18.8022 21.1911 18.407 21.51 18.0882C21.8289 17.7693 22.224 17.6099 22.6954 17.6099C23.1668 17.6099 23.5619 17.7693 23.8808 18.0882C24.1996 18.407 24.3591 18.8022 24.3591 19.2736C24.3591 19.745 24.1996 20.1401 23.8808 20.459C23.5619 20.7778 23.1668 20.9373 22.6954 20.9373ZM3.02194 33.9974C2.35645 33.9974 1.77415 33.7479 1.27504 33.2488C0.775924 32.7497 0.526367 32.1674 0.526367 31.5019V5.71429C0.526367 5.0488 0.775924 4.4665 1.27504 3.96739C1.77415 3.46827 2.35645 3.21872 3.02194 3.21872H5.72548V0.723145H8.42901V3.21872H22.5706V0.723145H25.2741V3.21872H27.9777C28.6432 3.21872 29.2254 3.46827 29.7246 3.96739C30.2237 4.4665 30.4732 5.0488 30.4732 5.71429V31.5019C30.4732 32.1674 30.2237 32.7497 29.7246 33.2488C29.2254 33.7479 28.6432 33.9974 27.9777 33.9974H3.02194ZM3.02194 31.5019H27.9777V13.6169H3.02194V31.5019Z" fill="white"/>
</svg>
