<svg width="41" height="33" viewBox="0 0 41 33" fill="none" xmlns="http://www.w3.org/2000/svg">
<path d="M3.5 32.3623C2.63333 32.3623 1.91667 32.079 1.35 31.5123C0.783333 30.9456 0.5 30.229 0.5 29.3623V21.7123C1.73333 21.4456 2.75833 20.8206 3.575 19.8373C4.39167 18.854 4.8 17.6956 4.8 16.3623C4.8 15.029 4.39167 13.8623 3.575 12.8623C2.75833 11.8623 1.73333 11.2456 0.5 11.0123V3.3623C0.5 2.49564 0.783333 1.77897 1.35 1.21231C1.91667 0.645638 2.63333 0.362305 3.5 0.362305H37.5C38.3667 0.362305 39.0833 0.645638 39.65 1.21231C40.2167 1.77897 40.5 2.49564 40.5 3.3623V29.3623C40.5 30.229 40.2167 30.9456 39.65 31.5123C39.0833 32.079 38.3667 32.3623 37.5 32.3623H3.5ZM13.9 24.1123L32.3 19.0623C32.8667 18.8956 33.2833 18.629 33.55 18.2623C33.8167 17.8956 33.8667 17.429 33.7 16.8623C33.5333 16.2956 33.2333 15.904 32.8 15.6873C32.3667 15.4706 31.8833 15.429 31.35 15.5623L26.2 16.9123L17.9 8.81231L15.3 9.41231L20.45 18.4623L14.9 20.0123L12.3 17.8623L10.85 18.3623L13.9 24.1123Z" fill="white"/>
</svg>
