<svg width="31" height="31" viewBox="0 0 31 31" fill="none" xmlns="http://www.w3.org/2000/svg">
<path d="M17.144 23.6755L22.4962 18.3233C22.7766 18.0429 22.9805 17.7307 23.1079 17.3866C23.2354 17.0426 23.2991 16.6794 23.2991 16.2971C23.2991 15.4815 23.0123 14.787 22.4389 14.2135C21.8654 13.6401 21.1709 13.3534 20.3554 13.3534C19.8456 13.3534 19.3359 13.519 18.8262 13.8503C18.3164 14.1817 17.7557 14.7169 17.144 15.456C16.5324 14.7169 15.9717 14.1817 15.4619 13.8503C14.9522 13.519 14.4425 13.3534 13.9327 13.3534C13.1171 13.3534 12.4226 13.6401 11.8492 14.2135C11.2757 14.787 10.989 15.4815 10.989 16.2971C10.989 16.6794 11.0527 17.0426 11.1802 17.3866C11.3076 17.7307 11.5115 18.0429 11.7918 18.3233L17.144 23.6755ZM18.4821 29.9834C18.0233 30.4422 17.469 30.6716 16.8191 30.6716C16.1692 30.6716 15.6148 30.4422 15.1561 29.9834L0.819832 15.6472C0.564965 15.3923 0.392931 15.1247 0.303727 14.8443C0.214524 14.564 0.169922 14.2709 0.169922 13.965V2.34312C0.169922 1.68046 0.386559 1.1325 0.819832 0.699226C1.25311 0.265953 1.80107 0.0493164 2.46372 0.0493164H14.0856C14.3915 0.0493164 14.6973 0.0939183 15.0032 0.183122C15.309 0.272325 15.5894 0.44436 15.8442 0.699227L30.104 14.959C30.5883 15.4433 30.8304 16.0103 30.8304 16.6603C30.8304 17.3102 30.5883 17.8772 30.104 18.3615L18.4821 29.9834ZM6.47787 8.307C7.01309 8.307 7.47822 8.10948 7.87327 7.71443C8.26831 7.31939 8.46583 6.85426 8.46583 6.31904C8.46583 5.78382 8.26831 5.31868 7.87327 4.92364C7.47822 4.5286 7.01309 4.33108 6.47787 4.33108C5.94265 4.33108 5.47752 4.5286 5.08248 4.92364C4.68743 5.31868 4.48991 5.78382 4.48991 6.31904C4.48991 6.85426 4.68743 7.31939 5.08248 7.71443C5.47752 8.10947 5.94265 8.307 6.47787 8.307V8.307Z" fill="white"/>
</svg>
