<svg width="33" height="35" viewBox="0 0 33 35" fill="none" xmlns="http://www.w3.org/2000/svg">
<path d="M11.555 11.9918C10.7237 11.9918 10.0142 11.698 9.4265 11.1103C8.83883 10.5227 8.545 9.81317 8.545 8.98184C8.545 8.1505 8.83883 7.441 9.4265 6.85334C10.0142 6.26567 10.7237 5.97184 11.555 5.97184C12.3863 5.97184 13.0958 6.26567 13.6835 6.85334C14.2712 7.441 14.565 8.1505 14.565 8.98184C14.565 9.81317 14.2712 10.5227 13.6835 11.1103C13.0958 11.698 12.3863 11.9918 11.555 11.9918ZM24.455 34.3518C22.1903 34.3518 20.2625 33.5563 18.6715 31.9653C17.0805 30.3743 16.285 28.4465 16.285 26.1818C16.285 23.9172 17.0805 21.9893 18.6715 20.3983C20.2625 18.8073 22.1903 18.0118 24.455 18.0118C26.7197 18.0118 28.6475 18.8073 30.2385 20.3983C31.8295 21.9893 32.625 23.9172 32.625 26.1818C32.625 28.4465 31.8295 30.3743 30.2385 31.9653C28.6475 33.5563 26.7197 34.3518 24.455 34.3518ZM27.336 30.2668L28.54 29.0628L25.315 25.8378V21.0218H23.595V26.5258L27.336 30.2668ZM2.955 34.7818C2.20967 34.7818 1.59333 34.5382 1.106 34.0508C0.618667 33.5635 0.375 32.9472 0.375 32.2018V2.96184C0.375 2.24517 0.618667 1.636 1.106 1.13434C1.59333 0.632669 2.20967 0.381836 2.955 0.381836H20.155C20.8717 0.381836 21.4808 0.632669 21.9825 1.13434C22.4842 1.636 22.735 2.24517 22.735 2.96184V15.6038C22.2763 15.6612 21.8248 15.7543 21.3805 15.8833C20.9362 16.0123 20.5133 16.1628 20.112 16.3348V2.96184H2.955V15.6898C3.52833 15.2025 4.1805 14.8227 4.9115 14.5503C5.6425 14.278 6.42367 14.1418 7.255 14.1418H15.855C16.7723 14.1418 17.6323 14.321 18.435 14.6793C19.2377 15.0377 19.9687 15.5322 20.628 16.1628C19.0227 16.7362 17.661 17.6463 16.543 18.8933C15.425 20.1403 14.6223 21.5665 14.135 23.1718H12.845V19.7318H10.265V23.1718H6.825V25.7518H10.265V29.1918H12.845V25.7518L13.705 26.1818C13.705 27.8158 14.0777 29.4212 14.823 30.9978C15.5683 32.5745 16.629 33.8358 18.005 34.7818H2.955Z" fill="white"/>
</svg>
