<svg width="33" height="33" viewBox="0 0 33 33" fill="none" xmlns="http://www.w3.org/2000/svg">
<path d="M8.25839 22.7771L13.723 17.3124L17.3064 20.8958L24.1148 14.1322V17.5812H26.8023V9.51862H18.7397V12.2061H22.1887L17.3064 17.0885L13.723 13.5051L6.37713 20.8958L8.25839 22.7771ZM3.06252 32.3625C2.34585 32.3625 1.71876 32.0938 1.18126 31.5563C0.643753 31.0188 0.375 30.3917 0.375 29.675V2.79983C0.375 2.08315 0.643753 1.45607 1.18126 0.918562C1.71876 0.381058 2.34585 0.112305 3.06252 0.112305H29.9377C30.6544 0.112305 31.2815 0.381058 31.819 0.918562C32.3565 1.45607 32.6252 2.08315 32.6252 2.79983V29.675C32.6252 30.3917 32.3565 31.0188 31.819 31.5563C31.2815 32.0938 30.6544 32.3625 29.9377 32.3625H3.06252Z" fill="white"/>
</svg>
