<svg width="41" height="33" viewBox="0 0 41 33" fill="none" xmlns="http://www.w3.org/2000/svg">
<path d="M19.15 26.6623H22.15V24.4123H24.55C25.05 24.4123 25.4583 24.2123 25.775 23.8123C26.0917 23.4123 26.25 22.9623 26.25 22.4623V16.7123C26.25 16.179 26.0917 15.7206 25.775 15.3373C25.4583 14.954 25.05 14.7623 24.55 14.7623H17.75V11.3123H26.25V8.3123H22.15V6.0623H19.15V8.3123H16.7C16.2 8.3123 15.75 8.5123 15.35 8.9123C14.95 9.3123 14.75 9.77897 14.75 10.3123V16.0123C14.75 16.5456 14.95 16.9706 15.35 17.2873C15.75 17.604 16.2 17.7623 16.7 17.7623H23.25V21.4123H14.75V24.4123H19.15V26.6623ZM3.5 32.3623C2.7 32.3623 2 32.0623 1.4 31.4623C0.8 30.8623 0.5 30.1623 0.5 29.3623V3.3623C0.5 2.5623 0.8 1.8623 1.4 1.2623C2 0.662305 2.7 0.362305 3.5 0.362305H37.5C38.3 0.362305 39 0.662305 39.6 1.2623C40.2 1.8623 40.5 2.5623 40.5 3.3623V29.3623C40.5 30.1623 40.2 30.8623 39.6 31.4623C39 32.0623 38.3 32.3623 37.5 32.3623H3.5Z" fill="white"/>
</svg>
