<svg width="105" height="105" viewBox="0 0 105 105" fill="none" xmlns="http://www.w3.org/2000/svg">
<circle opacity="0.18427" cx="52.5645" cy="52.705" r="52" fill="#18363B"/>
<path d="M24.5281 74.3501C23.9879 74.3609 23.451 74.2624 22.9498 74.0607C22.4485 73.8589 21.9932 73.5579 21.6111 73.1759C21.2289 72.7938 20.9279 72.3385 20.7261 71.8373C20.5242 71.3361 20.4257 70.7992 20.4363 70.259V34.7976C20.4256 34.2573 20.5241 33.7204 20.7259 33.2191C20.9277 32.7178 21.2287 32.2624 21.6108 31.8803C21.9929 31.4982 22.4483 31.1972 22.9496 30.9953C23.4509 30.7935 23.9878 30.695 24.5281 30.7058H81.2055C81.7458 30.695 82.2827 30.7935 82.784 30.9953C83.2853 31.1972 83.7407 31.4982 84.1228 31.8803C84.505 32.2624 84.806 32.7178 85.0078 33.2191C85.2096 33.7204 85.3081 34.2573 85.2973 34.7976V70.259C85.3081 70.7993 85.2096 71.3362 85.0078 71.8375C84.806 72.3388 84.505 72.7942 84.1228 73.1763C83.7407 73.5584 83.2853 73.8594 82.784 74.0613C82.2827 74.2631 81.7458 74.3616 81.2055 74.3508L24.5281 74.3501ZM59.3071 72.6837H81.2055C81.8345 72.641 82.4268 72.3719 82.8726 71.9261C83.3184 71.4803 83.5875 70.888 83.6302 70.259V34.7976C83.6238 34.4828 83.5533 34.1727 83.4231 33.8861C83.2928 33.5994 83.1055 33.3424 82.8726 33.1305C82.6608 32.8976 82.4037 32.7103 82.1171 32.5801C81.8304 32.4498 81.5203 32.3793 81.2055 32.3729H24.5281C24.2134 32.3793 23.9032 32.4498 23.6166 32.5801C23.33 32.7103 23.0729 32.8976 22.8611 33.1305C22.6282 33.3424 22.4409 33.5994 22.3106 33.8861C22.1803 34.1727 22.1098 34.4828 22.1034 34.7976V70.259C22.11 70.5735 22.1806 70.8835 22.3109 71.1698C22.4411 71.4562 22.6283 71.7131 22.8611 71.9248C23.0728 72.1579 23.3298 72.3455 23.6164 72.4759C23.9031 72.6064 24.2133 72.6771 24.5281 72.6837H26.877C29.0043 70.3949 31.486 68.4632 34.227 66.9628C36.9448 65.4957 39.9849 64.7275 43.0734 64.7275C46.1619 64.7275 49.202 65.4957 51.9198 66.9628C54.6765 68.456 57.1716 70.3883 59.3071 72.6837ZM43.0924 59.4989C44.028 59.4999 44.9546 59.3164 45.8192 58.9588C46.6838 58.6013 47.4694 58.0767 48.131 57.4151C48.7925 56.7535 49.3171 55.9679 49.6747 55.1034C50.0323 54.2388 50.2158 53.3121 50.2148 52.3765C50.2158 51.4409 50.0323 50.5143 49.6747 49.6497C49.3171 48.7851 48.7925 47.9995 48.131 47.3379C47.4694 46.6764 46.6838 46.1518 45.8192 45.7942C44.9546 45.4366 44.028 45.2531 43.0924 45.2541C42.1481 45.2315 41.2094 45.405 40.3356 45.7637C39.4618 46.1224 38.6719 46.6584 38.0159 47.338C36.7046 48.6872 35.9711 50.4944 35.9711 52.3759C35.9711 54.2573 36.7046 56.0646 38.0159 57.4137C38.6719 58.0933 39.4618 58.6293 40.3356 58.988C41.2094 59.3467 42.1481 59.5202 43.0924 59.4976V59.4989ZM29.3776 72.6837H56.7313C54.9945 70.7373 52.8797 69.1648 50.5157 68.062C48.1807 66.9641 45.6323 66.3949 43.0521 66.3949C40.472 66.3949 37.9235 66.9641 35.5886 68.062C33.2262 69.1653 31.113 70.7378 29.3776 72.6837ZM43.0924 57.8318C42.3804 57.8372 41.6747 57.6991 41.0173 57.4257C40.3599 57.1523 39.7644 56.7493 39.2662 56.2406C38.7413 55.7449 38.3253 55.1453 38.0449 54.4801C37.7644 53.8148 37.6255 53.0984 37.6371 52.3765C37.6338 51.6592 37.7726 50.9483 38.0456 50.285C38.3186 49.6216 38.7203 49.0189 39.2276 48.5117C39.7348 48.0045 40.3375 47.6028 41.0008 47.3298C41.6642 47.0568 42.3751 46.9179 43.0924 46.9212C44.1692 46.9178 45.2228 47.2342 46.1197 47.8303C47.0165 48.4264 47.7162 49.2753 48.1301 50.2694C48.5439 51.2636 48.6533 52.3582 48.4444 53.4146C48.2355 54.471 47.7176 55.4416 46.9565 56.2033C46.4608 56.7283 45.8612 57.1442 45.1959 57.4247C44.5307 57.7052 43.8143 57.8434 43.0924 57.8318Z" fill="#18363B"/>
<path d="M78.7049 37.3453V42.9721C78.7052 43.1629 78.6296 43.346 78.4949 43.4811L76.9633 45.0239C76.9604 45.0277 76.9571 45.0312 76.9535 45.0343L76.9384 45.0487C76.8982 45.0859 76.8508 45.1144 76.7991 45.1325C76.7474 45.1506 76.6925 45.1578 76.6379 45.1538C76.5832 45.1497 76.53 45.1345 76.4816 45.109C76.4331 45.0835 76.3904 45.0483 76.3561 45.0055C76.3013 44.9336 76.2725 44.8453 76.2743 44.7549L76.2665 42.6927V42.6888C76.2667 42.6095 76.2391 42.5326 76.1886 42.4715C76.1817 42.461 76.1738 42.4512 76.1651 42.4421L73.5068 39.7688C73.4746 39.7365 73.4363 39.7109 73.3942 39.6935C73.3521 39.676 73.307 39.667 73.2614 39.667C73.2158 39.667 73.1707 39.676 73.1286 39.6935C73.0865 39.7109 73.0483 39.7365 73.0161 39.7688C72.2846 40.5035 71.7455 41.0433 71.103 41.6884C71.0555 41.7366 70.9947 41.7697 70.9284 41.7833C70.8621 41.797 70.7932 41.7906 70.7305 41.765C70.6678 41.7394 70.6141 41.6957 70.5763 41.6396C70.5385 41.5834 70.5182 41.5173 70.5181 41.4496V39.5234C70.5181 39.4546 70.5317 39.3865 70.5581 39.3229C70.5845 39.2594 70.6231 39.2017 70.6718 39.1531L72.6706 37.1543C72.7192 37.1056 72.7769 37.0669 72.8405 37.0406C72.904 37.0142 72.9721 37.0006 73.0409 37.0005H78.3608C78.4061 37.0005 78.451 37.0093 78.4928 37.0266C78.5347 37.0439 78.5728 37.0693 78.6048 37.1013C78.6368 37.1334 78.6622 37.1714 78.6795 37.2133C78.6968 37.2552 78.7057 37.3 78.7056 37.3453" fill="#18363B"/>
</svg>
