<svg width="105" height="105" viewBox="0 0 105 105" fill="none" xmlns="http://www.w3.org/2000/svg">
<circle opacity="0.18427" cx="52.4355" cy="52.705" r="52" fill="#18363B"/>
<path d="M61.7629 56.8634C62.5911 56.8611 63.4 56.6145 64.0875 56.1547C64.7749 55.6949 65.31 55.0426 65.6252 54.2802C65.9404 53.5178 66.0215 52.6795 65.8583 51.8712C65.6951 51.063 65.2949 50.321 64.7083 49.739C64.3229 49.3533 63.8636 49.0487 63.3576 48.8432C62.8516 48.6377 62.3093 48.5355 61.7629 48.5428C61.2057 48.5311 60.6518 48.6309 60.1341 48.8364C59.6164 49.0419 59.1455 49.3488 58.7493 49.739C58.3585 50.1253 58.0484 50.5846 57.8367 51.0907C57.6251 51.5968 57.5162 52.1395 57.5162 52.6877C57.5162 53.2359 57.6251 53.7786 57.8367 54.2847C58.0484 54.7908 58.3585 55.2501 58.7493 55.6364C59.1408 56.035 59.6101 56.3495 60.1285 56.5606C60.6468 56.7716 61.203 56.8747 61.7629 56.8634ZM33.1342 73.7037C32.646 73.7133 32.1608 73.6246 31.7078 73.443C31.2548 73.2614 30.8432 72.9906 30.4979 72.6468C30.1526 72.3031 29.8806 71.8934 29.6981 71.4425C29.5157 70.9915 29.4266 70.5085 29.4363 70.0225V35.3876C29.4265 34.9014 29.5156 34.4183 29.698 33.9672C29.8804 33.5161 30.1525 33.1064 30.4979 32.7626C30.8433 32.4187 31.2549 32.1479 31.708 31.9663C32.1612 31.7847 32.6465 31.6961 33.1349 31.7057H67.9275C68.4158 31.6961 68.9011 31.7847 69.3543 31.9663C69.8074 32.1479 70.219 32.4187 70.5644 32.7626C70.9098 33.1064 71.1819 33.5161 71.3643 33.9672C71.5468 34.4183 71.6358 34.9014 71.6261 35.3876V44.4536H70.1189V35.3876C70.1304 35.098 70.0816 34.8092 69.9755 34.5394C69.8694 34.2695 69.7084 34.0245 69.5026 33.8196C69.2968 33.6147 69.0506 33.4544 68.7795 33.3488C68.5084 33.2432 68.2183 33.1946 67.9275 33.206H33.1349C32.844 33.1946 32.5539 33.2432 32.2828 33.3488C32.0118 33.4544 31.7656 33.6147 31.5597 33.8196C31.3539 34.0245 31.1929 34.2695 31.0868 34.5394C30.9808 34.8092 30.9319 35.098 30.9434 35.3876V70.0225C30.9319 70.312 30.9808 70.6008 31.0868 70.8706C31.1929 71.1405 31.3539 71.3856 31.5597 71.5905C31.7656 71.7954 32.0118 71.9556 32.2828 72.0612C32.5539 72.1668 32.844 72.2154 33.1349 72.204H67.9275C68.2183 72.2154 68.5084 72.1668 68.7795 72.0612C69.0506 71.9556 69.2968 71.7954 69.5026 71.5905C69.7084 71.3856 69.8694 71.1405 69.9755 70.8706C70.0816 70.6008 70.1304 70.312 70.1189 70.0225V60.9564H71.6254V70.0225C71.6352 70.5086 71.5461 70.9917 71.3637 71.4428C71.1813 71.8939 70.9092 72.3036 70.5638 72.6475C70.2184 72.9913 69.8068 73.2622 69.3536 73.4438C68.9005 73.6254 68.4152 73.714 67.9268 73.7043L33.1342 73.7037ZM55.8039 62.5222C55.2814 62.5381 54.7609 62.4498 54.2731 62.2626C53.7853 62.0753 53.3401 61.7928 52.9636 61.4317C52.5855 61.059 52.2897 60.6118 52.0951 60.1187C51.9005 59.6257 51.8114 59.0976 51.8334 58.5684V46.8417C51.8113 46.3123 51.9004 45.7841 52.095 45.291C52.2896 44.7978 52.5854 44.3505 52.9636 43.9777C53.3403 43.6163 53.7858 43.3335 54.2739 43.1461C54.7621 42.9588 55.2829 42.8705 55.8058 42.8866H70.3928C70.9263 42.8663 71.4585 42.9524 71.9581 43.1398C72.4577 43.3271 72.9146 43.612 73.3021 43.9777C73.6801 44.3504 73.9759 44.7976 74.1705 45.2907C74.3652 45.7837 74.4543 46.3118 74.4323 46.841V58.5684C74.4543 59.0976 74.3652 59.6257 74.1705 60.1187C73.9759 60.6118 73.6801 61.059 73.3021 61.4317C72.9146 61.7974 72.4577 62.0823 71.9581 62.2696C71.4585 62.457 70.9263 62.5431 70.3928 62.5228L55.8039 62.5222ZM70.7356 61.0225C71.0204 61.0261 71.3032 60.9738 71.5676 60.8684C71.8321 60.7631 72.0731 60.6069 72.2769 60.4087C72.4905 60.2081 72.659 59.9646 72.7711 59.6943C72.8832 59.4241 72.9363 59.1332 72.927 58.841V46.5684C72.919 45.9923 72.6856 45.4421 72.2763 45.0347C71.8671 44.6273 71.3143 44.3949 70.7356 44.3869H55.5307C54.952 44.3949 54.3992 44.6273 53.99 45.0347C53.5807 45.4421 53.3473 45.9923 53.3393 46.5684V58.841C53.33 59.1334 53.3832 59.4244 53.4954 59.6947C53.6076 59.9651 53.7762 60.2087 53.9901 60.4093C54.1938 60.6075 54.4348 60.7637 54.6993 60.8691C54.9638 60.9744 55.2465 61.0268 55.5314 61.0231L70.7356 61.0225Z" fill="#18363B"/>
</svg>
