<svg width="141" height="32" viewBox="0 0 141 32" fill="none" xmlns="http://www.w3.org/2000/svg">
<path d="M52.169 13.646C51.8064 13.3781 51.3635 13.2413 50.913 13.258C50.4601 13.2421 50.015 13.3788 49.649 13.646C49.3096 13.9044 49.0466 14.25 48.888 14.646C48.7221 15.0445 48.6367 15.4719 48.6367 15.9035C48.6367 16.3352 48.7221 16.7625 48.888 17.161C49.0465 17.5554 49.3096 17.8991 49.649 18.155C50.0141 18.4243 50.4596 18.5621 50.913 18.546C51.3641 18.563 51.8073 18.425 52.169 18.155C52.5036 17.8959 52.7637 17.553 52.923 17.161C53.0887 16.7625 53.1741 16.3351 53.1741 15.9035C53.1741 15.4719 53.0887 15.0445 52.923 14.646C52.7634 14.2525 52.5034 13.9077 52.169 13.646ZM127.769 14.015C127.769 13.41 127.352 13.127 126.769 13.127H125.585V14.905H126.769C127.334 14.905 127.769 14.622 127.769 14.017M81.748 13.017C81.2176 13.0181 80.708 13.2239 80.3255 13.5914C79.943 13.959 79.7172 14.46 79.695 14.99H83.695C83.7051 14.7306 83.6618 14.4719 83.568 14.2298C83.4742 13.9877 83.3318 13.7675 83.1495 13.5826C82.9673 13.3977 82.749 13.2521 82.5083 13.1549C82.2676 13.0576 82.0096 13.0107 81.75 13.017M138.718 0.705017H9.53702C9.01193 0.705165 8.50837 0.913779 8.13702 1.28502L0.580018 8.84202C0.208688 9.21331 5.63207e-05 9.7169 1.84342e-05 10.242V17.515C-0.00135359 17.7719 0.0738904 18.0234 0.216138 18.2373C0.358385 18.4512 0.561177 18.6179 0.798606 18.716C1.03603 18.8141 1.29732 18.8392 1.54908 18.7881C1.80084 18.737 2.03165 18.612 2.21202 18.429C4.64102 15.99 6.68402 13.949 9.44502 11.17C9.56669 11.0482 9.71119 10.9515 9.87025 10.8855C10.0293 10.8196 10.1998 10.7856 10.372 10.7856C10.5442 10.7856 10.7147 10.8196 10.8738 10.8855C11.0328 10.9515 11.1773 11.0482 11.299 11.17C15.054 14.948 17.46 17.37 21.35 21.278C21.3826 21.3123 21.4121 21.3495 21.438 21.389C21.631 21.6192 21.7371 21.9097 21.738 22.21V22.223L21.769 30.023C21.7625 30.2212 21.7963 30.4187 21.8684 30.6034C21.9405 30.7882 22.0494 30.9564 22.1884 31.0977C22.3275 31.2391 22.4938 31.3508 22.6773 31.426C22.8609 31.5011 23.0577 31.5382 23.256 31.535C23.612 31.535 81.274 31.411 94.931 31.206C95.825 31.192 132.037 31.188 132.331 31.177C132.984 31.1505 133.602 30.8783 134.063 30.415L139.232 25.215C139.485 24.9626 139.686 24.6627 139.823 24.3326C139.961 24.0025 140.032 23.6485 140.032 23.291V2.00502C140.032 1.8343 139.998 1.66525 139.933 1.50753C139.868 1.34981 139.772 1.20649 139.651 1.08578C139.531 0.965062 139.387 0.869305 139.23 0.803974C139.072 0.738643 138.903 0.705017 138.732 0.705017M34.292 14.741L35.152 14.907C37.327 15.345 38.459 16.223 38.459 17.907C38.459 19.645 36.706 20.758 34.53 20.758C32.463 20.758 30.544 20.046 30.161 17.925L32.608 17.56C32.7097 17.9722 32.9556 18.3344 33.3012 18.5811C33.6467 18.8278 34.0691 18.9427 34.492 18.905C35.352 18.905 35.81 18.505 35.81 17.973C35.81 17.517 35.463 17.206 34.531 17.022L33.671 16.841C31.806 16.458 30.636 15.598 30.636 14.08C30.636 12.27 32.208 11.027 34.492 11.027C36.649 11.027 38.239 12.027 38.459 13.914L36.045 14.282C36.0215 13.8907 35.8457 13.5241 35.5553 13.2607C35.2648 12.9974 34.8828 12.8582 34.491 12.873C33.652 12.873 33.212 13.331 33.212 13.86C33.212 14.282 33.505 14.575 34.292 14.738M46.047 13.495H43.6V17.705C43.5889 17.7756 43.5943 17.8478 43.6159 17.9159C43.6375 17.984 43.6747 18.0461 43.7245 18.0973C43.7743 18.1486 43.8353 18.1875 43.9027 18.211C43.9702 18.2346 44.0422 18.2421 44.113 18.233H46.05V20.463H43.214C42.9086 20.4986 42.5992 20.4642 42.309 20.3626C42.0189 20.2611 41.7556 20.0949 41.5391 19.8766C41.3225 19.6584 41.1584 19.3937 41.0592 19.1028C40.9599 18.8118 40.928 18.5021 40.966 18.197V13.497H38.881V11.323H40.966V8.60502H43.6V11.327H46.05L46.047 13.495ZM55.836 20.459H53.427V19.188H53.318C53.1822 19.3876 53.025 19.5717 52.849 19.737C52.5736 19.9978 52.2544 20.208 51.906 20.358C51.4246 20.5563 50.9064 20.6501 50.386 20.633C49.7414 20.6493 49.1022 20.5122 48.521 20.233C48.0027 19.9741 47.5481 19.6035 47.19 19.148C46.8322 18.6937 46.561 18.1775 46.39 17.625C46.0414 16.5042 46.0414 15.3039 46.39 14.183C46.561 13.6306 46.8322 13.1143 47.19 12.66C47.5481 12.2045 48.0027 11.834 48.521 11.575C49.1022 11.2958 49.7414 11.1587 50.386 11.175C50.9072 11.1562 51.4262 11.2525 51.906 11.457C52.2524 11.6112 52.571 11.8213 52.849 12.079C53.0256 12.2407 53.183 12.4223 53.318 12.62H53.427V11.338H55.836V20.459ZM61.436 23.932H58.677L60.397 20.04L56.686 11.321H59.5L61.712 16.915L63.887 11.321H66.7L61.436 23.932ZM76.231 20.632H73.565V15.326C73.565 13.987 72.975 13.298 71.954 13.298C70.807 13.298 70.216 14.228 70.216 15.569V20.632H67.549V11.325H70.216L70.177 12.889C70.423 12.3494 70.8162 11.8901 71.3115 11.5639C71.8068 11.2377 72.3841 11.0578 72.977 11.045C75.215 11.045 76.235 12.498 76.235 15.028L76.231 20.632ZM81.765 20.932C78.821 20.932 77.065 18.847 77.065 15.998C77.0385 15.3592 77.1406 14.7215 77.3652 14.1228C77.5899 13.5242 77.9327 12.9769 78.373 12.5133C78.8134 12.0497 79.3424 11.6793 79.9287 11.4242C80.515 11.169 81.1466 11.0343 81.786 11.028C82.3878 11.0196 82.985 11.1336 83.5413 11.3631C84.0977 11.5926 84.6016 11.9328 85.0225 12.363C85.4433 12.7932 85.7723 13.3045 85.9895 13.8658C86.2068 14.427 86.3076 15.0266 86.286 15.628C86.2929 15.9535 86.2617 16.2787 86.193 16.597H79.6C79.5918 17.1823 79.811 17.748 80.2114 18.1749C80.6119 18.6019 81.1624 18.8568 81.747 18.886C82.1845 18.8986 82.6137 18.7645 82.9661 18.505C83.3186 18.2455 83.5741 17.8755 83.692 17.454L86.173 17.92C85.764 19.502 84.373 20.934 81.768 20.934M95.724 20.634H92.778L90.872 17.972L88.984 20.634H86.024L89.429 16.017L86.024 11.327H89L90.87 14.007L92.776 11.327H95.72L92.315 16.017L95.724 20.634ZM102.89 20.934C102.216 20.9741 101.542 20.8763 100.907 20.6466C100.273 20.4168 99.6919 20.06 99.2002 19.5979C98.7084 19.1359 98.3162 18.5783 98.0475 17.9593C97.7787 17.3404 97.6392 16.6731 97.6373 15.9983C97.6355 15.3235 97.7714 14.6555 98.0368 14.0351C98.3021 13.4147 98.6913 12.8549 99.1805 12.3902C99.6697 11.9254 100.249 11.5655 100.882 11.3323C101.515 11.0991 102.189 10.9976 102.863 11.034C104.205 11.0016 105.51 11.4721 106.523 12.353L104.734 14.153C104.495 13.9006 104.204 13.7026 103.881 13.5725C103.558 13.4424 103.212 13.3833 102.864 13.399C102.528 13.3858 102.194 13.4442 101.883 13.5704C101.571 13.6965 101.291 13.8875 101.059 14.1307C100.827 14.3738 100.65 14.6635 100.539 14.9805C100.428 15.2975 100.386 15.6344 100.415 15.969C100.384 16.3054 100.424 16.6447 100.534 16.9642C100.644 17.2838 100.821 17.5762 101.052 17.8222C101.284 18.0682 101.565 18.262 101.878 18.3907C102.19 18.5195 102.526 18.5803 102.864 18.569C103.216 18.585 103.568 18.5274 103.897 18.4C104.226 18.2726 104.525 18.0782 104.775 17.829L106.575 19.629C105.556 20.5164 104.238 20.983 102.888 20.934M113.665 20.772H106.991V11.192H109.682V18.485H113.665V20.772ZM122.048 16.897C122.009 17.9817 121.55 19.0089 120.768 19.7618C119.986 20.5148 118.943 20.9347 117.857 20.933C116.772 20.9313 115.729 20.5082 114.95 19.7528C114.17 18.9974 113.715 17.9689 113.679 16.884V11.189H116.37V17.123C116.362 17.3201 116.396 17.5166 116.47 17.6995C116.543 17.8824 116.655 18.0475 116.798 18.1837C116.941 18.32 117.111 18.4243 117.297 18.4897C117.483 18.5551 117.681 18.5801 117.877 18.563C118.07 18.5797 118.265 18.5546 118.448 18.4894C118.631 18.4242 118.797 18.3205 118.936 18.1852C119.075 18.0499 119.184 17.8863 119.254 17.7055C119.325 17.5246 119.355 17.3307 119.344 17.137V11.189H122.044L122.048 16.897ZM127.363 20.772H122.95V11.192H127.525C127.886 11.151 128.252 11.1859 128.599 11.2943C128.946 11.4027 129.266 11.5824 129.54 11.8217C129.813 12.0611 130.034 12.3549 130.187 12.6843C130.341 13.0138 130.424 13.3716 130.431 13.735C130.446 14.1283 130.35 14.5179 130.156 14.8601C129.962 15.2024 129.676 15.4838 129.331 15.673C129.751 15.883 130.102 16.2086 130.343 16.6116C130.583 17.0145 130.704 17.4778 130.69 17.947C130.69 19.616 129.358 20.773 127.367 20.773M126.896 16.763H125.591V18.835H126.896C127.04 18.8477 127.184 18.8303 127.321 18.7839C127.458 18.7376 127.583 18.6634 127.69 18.566C127.796 18.4685 127.881 18.35 127.939 18.218C127.997 18.086 128.027 17.9433 128.027 17.799C128.027 17.6548 127.997 17.5121 127.939 17.38C127.881 17.248 127.796 17.1295 127.69 17.0321C127.583 16.9347 127.458 16.8604 127.321 16.8141C127.184 16.7678 127.04 16.7504 126.896 16.763Z" fill="white"/>
</svg>
